SplineFontDB: 3.2
FontName: MatrixSansPrint-Regular
FullName: Matrix Sans Print
FamilyName: Matrix Sans Print
Weight: Regular
Copyright: Copyright 2022 The Matrix Sans Project Authors (https://github.com/FriedOrange/MatrixSans)
Version: 1.100
ItalicAngle: 0
UnderlinePosition: -150
UnderlineWidth: 100
Ascent: 800
Descent: 200
InvalidEm: 0
LayerCount: 2
Layer: 0 0 "Back" 1
Layer: 1 0 "Fore" 0
XUID: [1021 655 -629464056 810]
StyleMap: 0x0000
FSType: 0
OS2Version: 0
OS2_WeightWidthSlopeOnly: 0
OS2_UseTypoMetrics: 1
CreationTime: 1657964544
ModificationTime: 1671772376
PfmFamily: 81
TTFWeight: 400
TTFWidth: 5
LineGap: 0
VLineGap: 90
Panose: 4 1 6 4 2 11 2 2 3 2
OS2TypoAscent: 1000
OS2TypoAOffset: 0
OS2TypoDescent: -300
OS2TypoDOffset: 0
OS2TypoLinegap: 0
OS2WinAscent: 1000
OS2WinAOffset: 0
OS2WinDescent: 200
OS2WinDOffset: 0
HheadAscent: 1000
HheadAOffset: 0
HheadDescent: -300
HheadDOffset: 0
OS2SubXSize: 714
OS2SubYSize: 714
OS2SubXOff: 0
OS2SubYOff: 200
OS2SupXSize: 714
OS2SupYSize: 714
OS2SupXOff: 0
OS2SupYOff: 300
OS2StrikeYSize: 80
OS2StrikeYPos: 310
OS2CapHeight: 700
OS2XHeight: 500
OS2FamilyClass: 2058
OS2Vendor: 'PfEd'
MarkAttachClasses: 1
DEI: 91125
LangName: 1033 "" "" "" "" "" "" "" "" "" "Brad Neil" "" "" "http://friedorange.xyz/" "This Font Software is licensed under the SIL Open Font License, Version 1.1. This license is available with a FAQ at: https://scripts.sil.org/OFL" "https://scripts.sil.org/OFL"
Encoding: UnicodeFull
UnicodeInterp: none
NameList: AGL For New Fonts
DisplaySize: -48
AntiAlias: 1
FitToEm: 1
WinInfo: 1114000 16 14
BeginPrivate: 0
EndPrivate
TeXData: 1 0 0 629146 314573 209715 524288 1048576 0 783286 444596 497025 792723 393216 433062 380633 303038 157286 324010 404750 52429 2506097 1059062 262144
AnchorClass2: "marks_above"""  "marks_below"""  "ogonek"""  "marks_aboveright""" 
BeginChars: 1114214 474

StartChar: exclam
Encoding: 33 33 1
Width: 200
Flags: HMW
LayerCount: 2
Fore
SplineSet
52 650 m 0
 52 676 74 698 100 698 c 0
 126 698 148 676 148 650 c 0
 148 624 126 602 100 602 c 0
 74 602 52 624 52 650 c 0
52 550 m 0
 52 576 74 598 100 598 c 0
 126 598 148 576 148 550 c 0
 148 524 126 502 100 502 c 0
 74 502 52 524 52 550 c 0
52 450 m 0
 52 476 74 498 100 498 c 0
 126 498 148 476 148 450 c 0
 148 424 126 402 100 402 c 0
 74 402 52 424 52 450 c 0
52 350 m 0
 52 376 74 398 100 398 c 0
 126 398 148 376 148 350 c 0
 148 324 126 302 100 302 c 0
 74 302 52 324 52 350 c 0
52 250 m 0
 52 276 74 298 100 298 c 0
 126 298 148 276 148 250 c 0
 148 224 126 202 100 202 c 0
 74 202 52 224 52 250 c 0
52 50 m 0
 52 76 74 98 100 98 c 0
 126 98 148 76 148 50 c 0
 148 24 126 2 100 2 c 0
 74 2 52 24 52 50 c 0
EndSplineSet
EndChar

StartChar: quotedbl
Encoding: 34 34 2
Width: 400
Flags: HMW
LayerCount: 2
Fore
SplineSet
52 650 m 0
 52 676 74 698 100 698 c 0
 126 698 148 676 148 650 c 0
 148 624 126 602 100 602 c 0
 74 602 52 624 52 650 c 0
252 650 m 0
 252 676 274 698 300 698 c 0
 326 698 348 676 348 650 c 0
 348 624 326 602 300 602 c 0
 274 602 252 624 252 650 c 0
52 550 m 0
 52 576 74 598 100 598 c 0
 126 598 148 576 148 550 c 0
 148 524 126 502 100 502 c 0
 74 502 52 524 52 550 c 0
252 550 m 0
 252 576 274 598 300 598 c 0
 326 598 348 576 348 550 c 0
 348 524 326 502 300 502 c 0
 274 502 252 524 252 550 c 0
52 450 m 0
 52 476 74 498 100 498 c 0
 126 498 148 476 148 450 c 0
 148 424 126 402 100 402 c 0
 74 402 52 424 52 450 c 0
252 450 m 0
 252 476 274 498 300 498 c 0
 326 498 348 476 348 450 c 0
 348 424 326 402 300 402 c 0
 274 402 252 424 252 450 c 0
EndSplineSet
EndChar

StartChar: numbersign
Encoding: 35 35 3
Width: 600
Flags: HMW
LayerCount: 2
Fore
SplineSet
152 650 m 0
 152 676 174 698 200 698 c 0
 226 698 248 676 248 650 c 0
 248 624 226 602 200 602 c 0
 174 602 152 624 152 650 c 0
352 650 m 0
 352 676 374 698 400 698 c 0
 426 698 448 676 448 650 c 0
 448 624 426 602 400 602 c 0
 374 602 352 624 352 650 c 0
152 550 m 0
 152 576 174 598 200 598 c 0
 226 598 248 576 248 550 c 0
 248 524 226 502 200 502 c 0
 174 502 152 524 152 550 c 0
352 550 m 0
 352 576 374 598 400 598 c 0
 426 598 448 576 448 550 c 0
 448 524 426 502 400 502 c 0
 374 502 352 524 352 550 c 0
52 450 m 0
 52 476 74 498 100 498 c 0
 126 498 148 476 148 450 c 0
 148 424 126 402 100 402 c 0
 74 402 52 424 52 450 c 0
152 450 m 0
 152 476 174 498 200 498 c 0
 226 498 248 476 248 450 c 0
 248 424 226 402 200 402 c 0
 174 402 152 424 152 450 c 0
252 450 m 0
 252 476 274 498 300 498 c 0
 326 498 348 476 348 450 c 0
 348 424 326 402 300 402 c 0
 274 402 252 424 252 450 c 0
352 450 m 0
 352 476 374 498 400 498 c 0
 426 498 448 476 448 450 c 0
 448 424 426 402 400 402 c 0
 374 402 352 424 352 450 c 0
452 450 m 0
 452 476 474 498 500 498 c 0
 526 498 548 476 548 450 c 0
 548 424 526 402 500 402 c 0
 474 402 452 424 452 450 c 0
152 350 m 0
 152 376 174 398 200 398 c 0
 226 398 248 376 248 350 c 0
 248 324 226 302 200 302 c 0
 174 302 152 324 152 350 c 0
352 350 m 0
 352 376 374 398 400 398 c 0
 426 398 448 376 448 350 c 0
 448 324 426 302 400 302 c 0
 374 302 352 324 352 350 c 0
52 250 m 0
 52 276 74 298 100 298 c 0
 126 298 148 276 148 250 c 0
 148 224 126 202 100 202 c 0
 74 202 52 224 52 250 c 0
152 250 m 0
 152 276 174 298 200 298 c 0
 226 298 248 276 248 250 c 0
 248 224 226 202 200 202 c 0
 174 202 152 224 152 250 c 0
252 250 m 0
 252 276 274 298 300 298 c 0
 326 298 348 276 348 250 c 0
 348 224 326 202 300 202 c 0
 274 202 252 224 252 250 c 0
352 250 m 0
 352 276 374 298 400 298 c 0
 426 298 448 276 448 250 c 0
 448 224 426 202 400 202 c 0
 374 202 352 224 352 250 c 0
452 250 m 0
 452 276 474 298 500 298 c 0
 526 298 548 276 548 250 c 0
 548 224 526 202 500 202 c 0
 474 202 452 224 452 250 c 0
152 150 m 0
 152 176 174 198 200 198 c 0
 226 198 248 176 248 150 c 0
 248 124 226 102 200 102 c 0
 174 102 152 124 152 150 c 0
352 150 m 0
 352 176 374 198 400 198 c 0
 426 198 448 176 448 150 c 0
 448 124 426 102 400 102 c 0
 374 102 352 124 352 150 c 0
152 50 m 0
 152 76 174 98 200 98 c 0
 226 98 248 76 248 50 c 0
 248 24 226 2 200 2 c 0
 174 2 152 24 152 50 c 0
352 50 m 0
 352 76 374 98 400 98 c 0
 426 98 448 76 448 50 c 0
 448 24 426 2 400 2 c 0
 374 2 352 24 352 50 c 0
EndSplineSet
EndChar

StartChar: dollar
Encoding: 36 36 4
Width: 600
Flags: HMW
LayerCount: 2
Fore
SplineSet
252 650 m 0
 252 676 274 698 300 698 c 0
 326 698 348 676 348 650 c 0
 348 624 326 602 300 602 c 0
 274 602 252 624 252 650 c 0
152 550 m 0
 152 576 174 598 200 598 c 0
 226 598 248 576 248 550 c 0
 248 524 226 502 200 502 c 0
 174 502 152 524 152 550 c 0
252 550 m 0
 252 576 274 598 300 598 c 0
 326 598 348 576 348 550 c 0
 348 524 326 502 300 502 c 0
 274 502 252 524 252 550 c 0
352 550 m 0
 352 576 374 598 400 598 c 0
 426 598 448 576 448 550 c 0
 448 524 426 502 400 502 c 0
 374 502 352 524 352 550 c 0
452 550 m 0
 452 576 474 598 500 598 c 0
 526 598 548 576 548 550 c 0
 548 524 526 502 500 502 c 0
 474 502 452 524 452 550 c 0
52 450 m 0
 52 476 74 498 100 498 c 0
 126 498 148 476 148 450 c 0
 148 424 126 402 100 402 c 0
 74 402 52 424 52 450 c 0
252 450 m 0
 252 476 274 498 300 498 c 0
 326 498 348 476 348 450 c 0
 348 424 326 402 300 402 c 0
 274 402 252 424 252 450 c 0
152 350 m 0
 152 376 174 398 200 398 c 0
 226 398 248 376 248 350 c 0
 248 324 226 302 200 302 c 0
 174 302 152 324 152 350 c 0
252 350 m 0
 252 376 274 398 300 398 c 0
 326 398 348 376 348 350 c 0
 348 324 326 302 300 302 c 0
 274 302 252 324 252 350 c 0
352 350 m 0
 352 376 374 398 400 398 c 0
 426 398 448 376 448 350 c 0
 448 324 426 302 400 302 c 0
 374 302 352 324 352 350 c 0
252 250 m 0
 252 276 274 298 300 298 c 0
 326 298 348 276 348 250 c 0
 348 224 326 202 300 202 c 0
 274 202 252 224 252 250 c 0
452 250 m 0
 452 276 474 298 500 298 c 0
 526 298 548 276 548 250 c 0
 548 224 526 202 500 202 c 0
 474 202 452 224 452 250 c 0
52 150 m 0
 52 176 74 198 100 198 c 0
 126 198 148 176 148 150 c 0
 148 124 126 102 100 102 c 0
 74 102 52 124 52 150 c 0
152 150 m 0
 152 176 174 198 200 198 c 0
 226 198 248 176 248 150 c 0
 248 124 226 102 200 102 c 0
 174 102 152 124 152 150 c 0
252 150 m 0
 252 176 274 198 300 198 c 0
 326 198 348 176 348 150 c 0
 348 124 326 102 300 102 c 0
 274 102 252 124 252 150 c 0
352 150 m 0
 352 176 374 198 400 198 c 0
 426 198 448 176 448 150 c 0
 448 124 426 102 400 102 c 0
 374 102 352 124 352 150 c 0
252 50 m 0
 252 76 274 98 300 98 c 0
 326 98 348 76 348 50 c 0
 348 24 326 2 300 2 c 0
 274 2 252 24 252 50 c 0
EndSplineSet
EndChar

StartChar: percent
Encoding: 37 37 5
Width: 600
Flags: HMW
LayerCount: 2
Fore
SplineSet
52 650 m 0
 52 676 74 698 100 698 c 0
 126 698 148 676 148 650 c 0
 148 624 126 602 100 602 c 0
 74 602 52 624 52 650 c 0
152 650 m 0
 152 676 174 698 200 698 c 0
 226 698 248 676 248 650 c 0
 248 624 226 602 200 602 c 0
 174 602 152 624 152 650 c 0
52 550 m 0
 52 576 74 598 100 598 c 0
 126 598 148 576 148 550 c 0
 148 524 126 502 100 502 c 0
 74 502 52 524 52 550 c 0
152 550 m 0
 152 576 174 598 200 598 c 0
 226 598 248 576 248 550 c 0
 248 524 226 502 200 502 c 0
 174 502 152 524 152 550 c 0
452 550 m 0
 452 576 474 598 500 598 c 0
 526 598 548 576 548 550 c 0
 548 524 526 502 500 502 c 0
 474 502 452 524 452 550 c 0
352 450 m 0
 352 476 374 498 400 498 c 0
 426 498 448 476 448 450 c 0
 448 424 426 402 400 402 c 0
 374 402 352 424 352 450 c 0
252 350 m 0
 252 376 274 398 300 398 c 0
 326 398 348 376 348 350 c 0
 348 324 326 302 300 302 c 0
 274 302 252 324 252 350 c 0
152 250 m 0
 152 276 174 298 200 298 c 0
 226 298 248 276 248 250 c 0
 248 224 226 202 200 202 c 0
 174 202 152 224 152 250 c 0
52 150 m 0
 52 176 74 198 100 198 c 0
 126 198 148 176 148 150 c 0
 148 124 126 102 100 102 c 0
 74 102 52 124 52 150 c 0
352 150 m 0
 352 176 374 198 400 198 c 0
 426 198 448 176 448 150 c 0
 448 124 426 102 400 102 c 0
 374 102 352 124 352 150 c 0
452 150 m 0
 452 176 474 198 500 198 c 0
 526 198 548 176 548 150 c 0
 548 124 526 102 500 102 c 0
 474 102 452 124 452 150 c 0
352 50 m 0
 352 76 374 98 400 98 c 0
 426 98 448 76 448 50 c 0
 448 24 426 2 400 2 c 0
 374 2 352 24 352 50 c 0
452 50 m 0
 452 76 474 98 500 98 c 0
 526 98 548 76 548 50 c 0
 548 24 526 2 500 2 c 0
 474 2 452 24 452 50 c 0
EndSplineSet
EndChar

StartChar: ampersand
Encoding: 38 38 6
Width: 600
Flags: HMW
LayerCount: 2
Fore
SplineSet
152 650 m 0
 152 676 174 698 200 698 c 0
 226 698 248 676 248 650 c 0
 248 624 226 602 200 602 c 0
 174 602 152 624 152 650 c 0
52 550 m 0
 52 576 74 598 100 598 c 0
 126 598 148 576 148 550 c 0
 148 524 126 502 100 502 c 0
 74 502 52 524 52 550 c 0
252 550 m 0
 252 576 274 598 300 598 c 0
 326 598 348 576 348 550 c 0
 348 524 326 502 300 502 c 0
 274 502 252 524 252 550 c 0
52 450 m 0
 52 476 74 498 100 498 c 0
 126 498 148 476 148 450 c 0
 148 424 126 402 100 402 c 0
 74 402 52 424 52 450 c 0
252 450 m 0
 252 476 274 498 300 498 c 0
 326 498 348 476 348 450 c 0
 348 424 326 402 300 402 c 0
 274 402 252 424 252 450 c 0
152 350 m 0
 152 376 174 398 200 398 c 0
 226 398 248 376 248 350 c 0
 248 324 226 302 200 302 c 0
 174 302 152 324 152 350 c 0
52 250 m 0
 52 276 74 298 100 298 c 0
 126 298 148 276 148 250 c 0
 148 224 126 202 100 202 c 0
 74 202 52 224 52 250 c 0
252 250 m 0
 252 276 274 298 300 298 c 0
 326 298 348 276 348 250 c 0
 348 224 326 202 300 202 c 0
 274 202 252 224 252 250 c 0
452 250 m 0
 452 276 474 298 500 298 c 0
 526 298 548 276 548 250 c 0
 548 224 526 202 500 202 c 0
 474 202 452 224 452 250 c 0
52 150 m 0
 52 176 74 198 100 198 c 0
 126 198 148 176 148 150 c 0
 148 124 126 102 100 102 c 0
 74 102 52 124 52 150 c 0
352 150 m 0
 352 176 374 198 400 198 c 0
 426 198 448 176 448 150 c 0
 448 124 426 102 400 102 c 0
 374 102 352 124 352 150 c 0
152 50 m 0
 152 76 174 98 200 98 c 0
 226 98 248 76 248 50 c 0
 248 24 226 2 200 2 c 0
 174 2 152 24 152 50 c 0
252 50 m 0
 252 76 274 98 300 98 c 0
 326 98 348 76 348 50 c 0
 348 24 326 2 300 2 c 0
 274 2 252 24 252 50 c 0
452 50 m 0
 452 76 474 98 500 98 c 0
 526 98 548 76 548 50 c 0
 548 24 526 2 500 2 c 0
 474 2 452 24 452 50 c 0
EndSplineSet
EndChar

StartChar: quotesingle
Encoding: 39 39 7
Width: 200
Flags: HMW
LayerCount: 2
Fore
SplineSet
52 650 m 0
 52 676 74 698 100 698 c 0
 126 698 148 676 148 650 c 0
 148 624 126 602 100 602 c 0
 74 602 52 624 52 650 c 0
52 550 m 0
 52 576 74 598 100 598 c 0
 126 598 148 576 148 550 c 0
 148 524 126 502 100 502 c 0
 74 502 52 524 52 550 c 0
52 450 m 0
 52 476 74 498 100 498 c 0
 126 498 148 476 148 450 c 0
 148 424 126 402 100 402 c 0
 74 402 52 424 52 450 c 0
EndSplineSet
EndChar

StartChar: parenleft
Encoding: 40 40 8
Width: 400
Flags: HMW
LayerCount: 2
Fore
SplineSet
252 650 m 0
 252 676 274 698 300 698 c 0
 326 698 348 676 348 650 c 0
 348 624 326 602 300 602 c 0
 274 602 252 624 252 650 c 0
152 550 m 0
 152 576 174 598 200 598 c 0
 226 598 248 576 248 550 c 0
 248 524 226 502 200 502 c 0
 174 502 152 524 152 550 c 0
52 450 m 0
 52 476 74 498 100 498 c 0
 126 498 148 476 148 450 c 0
 148 424 126 402 100 402 c 0
 74 402 52 424 52 450 c 0
52 350 m 0
 52 376 74 398 100 398 c 0
 126 398 148 376 148 350 c 0
 148 324 126 302 100 302 c 0
 74 302 52 324 52 350 c 0
52 250 m 0
 52 276 74 298 100 298 c 0
 126 298 148 276 148 250 c 0
 148 224 126 202 100 202 c 0
 74 202 52 224 52 250 c 0
152 150 m 0
 152 176 174 198 200 198 c 0
 226 198 248 176 248 150 c 0
 248 124 226 102 200 102 c 0
 174 102 152 124 152 150 c 0
252 50 m 0
 252 76 274 98 300 98 c 0
 326 98 348 76 348 50 c 0
 348 24 326 2 300 2 c 0
 274 2 252 24 252 50 c 0
EndSplineSet
EndChar

StartChar: parenright
Encoding: 41 41 9
Width: 400
Flags: HMW
LayerCount: 2
Fore
SplineSet
52 650 m 0
 52 676 74 698 100 698 c 0
 126 698 148 676 148 650 c 0
 148 624 126 602 100 602 c 0
 74 602 52 624 52 650 c 0
152 550 m 0
 152 576 174 598 200 598 c 0
 226 598 248 576 248 550 c 0
 248 524 226 502 200 502 c 0
 174 502 152 524 152 550 c 0
252 450 m 0
 252 476 274 498 300 498 c 0
 326 498 348 476 348 450 c 0
 348 424 326 402 300 402 c 0
 274 402 252 424 252 450 c 0
252 350 m 0
 252 376 274 398 300 398 c 0
 326 398 348 376 348 350 c 0
 348 324 326 302 300 302 c 0
 274 302 252 324 252 350 c 0
252 250 m 0
 252 276 274 298 300 298 c 0
 326 298 348 276 348 250 c 0
 348 224 326 202 300 202 c 0
 274 202 252 224 252 250 c 0
152 150 m 0
 152 176 174 198 200 198 c 0
 226 198 248 176 248 150 c 0
 248 124 226 102 200 102 c 0
 174 102 152 124 152 150 c 0
52 50 m 0
 52 76 74 98 100 98 c 0
 126 98 148 76 148 50 c 0
 148 24 126 2 100 2 c 0
 74 2 52 24 52 50 c 0
EndSplineSet
EndChar

StartChar: asterisk
Encoding: 42 42 10
Width: 600
Flags: HMW
LayerCount: 2
Fore
SplineSet
252 550 m 0
 252 576 274 598 300 598 c 0
 326 598 348 576 348 550 c 0
 348 524 326 502 300 502 c 0
 274 502 252 524 252 550 c 0
52 450 m 0
 52 476 74 498 100 498 c 0
 126 498 148 476 148 450 c 0
 148 424 126 402 100 402 c 0
 74 402 52 424 52 450 c 0
252 450 m 0
 252 476 274 498 300 498 c 0
 326 498 348 476 348 450 c 0
 348 424 326 402 300 402 c 0
 274 402 252 424 252 450 c 0
452 450 m 0
 452 476 474 498 500 498 c 0
 526 498 548 476 548 450 c 0
 548 424 526 402 500 402 c 0
 474 402 452 424 452 450 c 0
152 350 m 0
 152 376 174 398 200 398 c 0
 226 398 248 376 248 350 c 0
 248 324 226 302 200 302 c 0
 174 302 152 324 152 350 c 0
252 350 m 0
 252 376 274 398 300 398 c 0
 326 398 348 376 348 350 c 0
 348 324 326 302 300 302 c 0
 274 302 252 324 252 350 c 0
352 350 m 0
 352 376 374 398 400 398 c 0
 426 398 448 376 448 350 c 0
 448 324 426 302 400 302 c 0
 374 302 352 324 352 350 c 0
52 250 m 0
 52 276 74 298 100 298 c 0
 126 298 148 276 148 250 c 0
 148 224 126 202 100 202 c 0
 74 202 52 224 52 250 c 0
252 250 m 0
 252 276 274 298 300 298 c 0
 326 298 348 276 348 250 c 0
 348 224 326 202 300 202 c 0
 274 202 252 224 252 250 c 0
452 250 m 0
 452 276 474 298 500 298 c 0
 526 298 548 276 548 250 c 0
 548 224 526 202 500 202 c 0
 474 202 452 224 452 250 c 0
252 150 m 0
 252 176 274 198 300 198 c 0
 326 198 348 176 348 150 c 0
 348 124 326 102 300 102 c 0
 274 102 252 124 252 150 c 0
EndSplineSet
EndChar

StartChar: plus
Encoding: 43 43 11
Width: 600
Flags: HMW
LayerCount: 2
Fore
SplineSet
252 550 m 0
 252 576 274 598 300 598 c 0
 326 598 348 576 348 550 c 0
 348 524 326 502 300 502 c 0
 274 502 252 524 252 550 c 0
252 450 m 0
 252 476 274 498 300 498 c 0
 326 498 348 476 348 450 c 0
 348 424 326 402 300 402 c 0
 274 402 252 424 252 450 c 0
52 350 m 0
 52 376 74 398 100 398 c 0
 126 398 148 376 148 350 c 0
 148 324 126 302 100 302 c 0
 74 302 52 324 52 350 c 0
152 350 m 0
 152 376 174 398 200 398 c 0
 226 398 248 376 248 350 c 0
 248 324 226 302 200 302 c 0
 174 302 152 324 152 350 c 0
252 350 m 0
 252 376 274 398 300 398 c 0
 326 398 348 376 348 350 c 0
 348 324 326 302 300 302 c 0
 274 302 252 324 252 350 c 0
352 350 m 0
 352 376 374 398 400 398 c 0
 426 398 448 376 448 350 c 0
 448 324 426 302 400 302 c 0
 374 302 352 324 352 350 c 0
452 350 m 0
 452 376 474 398 500 398 c 0
 526 398 548 376 548 350 c 0
 548 324 526 302 500 302 c 0
 474 302 452 324 452 350 c 0
252 250 m 0
 252 276 274 298 300 298 c 0
 326 298 348 276 348 250 c 0
 348 224 326 202 300 202 c 0
 274 202 252 224 252 250 c 0
252 150 m 0
 252 176 274 198 300 198 c 0
 326 198 348 176 348 150 c 0
 348 124 326 102 300 102 c 0
 274 102 252 124 252 150 c 0
EndSplineSet
EndChar

StartChar: comma
Encoding: 44 44 12
Width: 300
Flags: HMW
LayerCount: 2
Fore
SplineSet
152 150 m 0
 152 176 174 198 200 198 c 0
 226 198 248 176 248 150 c 0
 248 124 226 102 200 102 c 0
 174 102 152 124 152 150 c 0
152 50 m 0
 152 76 174 98 200 98 c 0
 226 98 248 76 248 50 c 0
 248 24 226 2 200 2 c 0
 174 2 152 24 152 50 c 0
52 -50 m 0
 52 -24 74 -2 100 -2 c 0
 126 -2 148 -24 148 -50 c 0
 148 -76 126 -98 100 -98 c 0
 74 -98 52 -76 52 -50 c 0
EndSplineSet
EndChar

StartChar: hyphen
Encoding: 45 45 13
Width: 500
Flags: HMW
LayerCount: 2
Fore
SplineSet
52 350 m 0
 52 376 74 398 100 398 c 0
 126 398 148 376 148 350 c 0
 148 324 126 302 100 302 c 0
 74 302 52 324 52 350 c 0
152 350 m 0
 152 376 174 398 200 398 c 0
 226 398 248 376 248 350 c 0
 248 324 226 302 200 302 c 0
 174 302 152 324 152 350 c 0
252 350 m 0
 252 376 274 398 300 398 c 0
 326 398 348 376 348 350 c 0
 348 324 326 302 300 302 c 0
 274 302 252 324 252 350 c 0
352 350 m 0
 352 376 374 398 400 398 c 0
 426 398 448 376 448 350 c 0
 448 324 426 302 400 302 c 0
 374 302 352 324 352 350 c 0
EndSplineSet
EndChar

StartChar: period
Encoding: 46 46 14
Width: 200
Flags: HMW
LayerCount: 2
Fore
SplineSet
52 50 m 0
 52 76 74 98 100 98 c 0
 126 98 148 76 148 50 c 0
 148 24 126 2 100 2 c 0
 74 2 52 24 52 50 c 0
EndSplineSet
EndChar

StartChar: slash
Encoding: 47 47 15
Width: 600
Flags: HMW
LayerCount: 2
Fore
SplineSet
452 550 m 0
 452 576 474 598 500 598 c 0
 526 598 548 576 548 550 c 0
 548 524 526 502 500 502 c 0
 474 502 452 524 452 550 c 0
352 450 m 0
 352 476 374 498 400 498 c 0
 426 498 448 476 448 450 c 0
 448 424 426 402 400 402 c 0
 374 402 352 424 352 450 c 0
252 350 m 0
 252 376 274 398 300 398 c 0
 326 398 348 376 348 350 c 0
 348 324 326 302 300 302 c 0
 274 302 252 324 252 350 c 0
152 250 m 0
 152 276 174 298 200 298 c 0
 226 298 248 276 248 250 c 0
 248 224 226 202 200 202 c 0
 174 202 152 224 152 250 c 0
52 150 m 0
 52 176 74 198 100 198 c 0
 126 198 148 176 148 150 c 0
 148 124 126 102 100 102 c 0
 74 102 52 124 52 150 c 0
EndSplineSet
EndChar

StartChar: zero
Encoding: 48 48 16
Width: 600
Flags: HMW
LayerCount: 2
Fore
SplineSet
152 650 m 0
 152 676 174 698 200 698 c 0
 226 698 248 676 248 650 c 0
 248 624 226 602 200 602 c 0
 174 602 152 624 152 650 c 0
252 650 m 0
 252 676 274 698 300 698 c 0
 326 698 348 676 348 650 c 0
 348 624 326 602 300 602 c 0
 274 602 252 624 252 650 c 0
352 650 m 0
 352 676 374 698 400 698 c 0
 426 698 448 676 448 650 c 0
 448 624 426 602 400 602 c 0
 374 602 352 624 352 650 c 0
52 550 m 0
 52 576 74 598 100 598 c 0
 126 598 148 576 148 550 c 0
 148 524 126 502 100 502 c 0
 74 502 52 524 52 550 c 0
452 550 m 0
 452 576 474 598 500 598 c 0
 526 598 548 576 548 550 c 0
 548 524 526 502 500 502 c 0
 474 502 452 524 452 550 c 0
52 450 m 0
 52 476 74 498 100 498 c 0
 126 498 148 476 148 450 c 0
 148 424 126 402 100 402 c 0
 74 402 52 424 52 450 c 0
352 450 m 0
 352 476 374 498 400 498 c 0
 426 498 448 476 448 450 c 0
 448 424 426 402 400 402 c 0
 374 402 352 424 352 450 c 0
452 450 m 0
 452 476 474 498 500 498 c 0
 526 498 548 476 548 450 c 0
 548 424 526 402 500 402 c 0
 474 402 452 424 452 450 c 0
52 350 m 0
 52 376 74 398 100 398 c 0
 126 398 148 376 148 350 c 0
 148 324 126 302 100 302 c 0
 74 302 52 324 52 350 c 0
252 350 m 0
 252 376 274 398 300 398 c 0
 326 398 348 376 348 350 c 0
 348 324 326 302 300 302 c 0
 274 302 252 324 252 350 c 0
452 350 m 0
 452 376 474 398 500 398 c 0
 526 398 548 376 548 350 c 0
 548 324 526 302 500 302 c 0
 474 302 452 324 452 350 c 0
52 250 m 0
 52 276 74 298 100 298 c 0
 126 298 148 276 148 250 c 0
 148 224 126 202 100 202 c 0
 74 202 52 224 52 250 c 0
152 250 m 0
 152 276 174 298 200 298 c 0
 226 298 248 276 248 250 c 0
 248 224 226 202 200 202 c 0
 174 202 152 224 152 250 c 0
452 250 m 0
 452 276 474 298 500 298 c 0
 526 298 548 276 548 250 c 0
 548 224 526 202 500 202 c 0
 474 202 452 224 452 250 c 0
52 150 m 0
 52 176 74 198 100 198 c 0
 126 198 148 176 148 150 c 0
 148 124 126 102 100 102 c 0
 74 102 52 124 52 150 c 0
452 150 m 0
 452 176 474 198 500 198 c 0
 526 198 548 176 548 150 c 0
 548 124 526 102 500 102 c 0
 474 102 452 124 452 150 c 0
152 50 m 0
 152 76 174 98 200 98 c 0
 226 98 248 76 248 50 c 0
 248 24 226 2 200 2 c 0
 174 2 152 24 152 50 c 0
252 50 m 0
 252 76 274 98 300 98 c 0
 326 98 348 76 348 50 c 0
 348 24 326 2 300 2 c 0
 274 2 252 24 252 50 c 0
352 50 m 0
 352 76 374 98 400 98 c 0
 426 98 448 76 448 50 c 0
 448 24 426 2 400 2 c 0
 374 2 352 24 352 50 c 0
EndSplineSet
EndChar

StartChar: one
Encoding: 49 49 17
Width: 400
Flags: HMW
LayerCount: 2
Fore
SplineSet
152 650 m 0
 152 676 174 698 200 698 c 0
 226 698 248 676 248 650 c 0
 248 624 226 602 200 602 c 0
 174 602 152 624 152 650 c 0
52 550 m 0
 52 576 74 598 100 598 c 0
 126 598 148 576 148 550 c 0
 148 524 126 502 100 502 c 0
 74 502 52 524 52 550 c 0
152 550 m 0
 152 576 174 598 200 598 c 0
 226 598 248 576 248 550 c 0
 248 524 226 502 200 502 c 0
 174 502 152 524 152 550 c 0
152 450 m 0
 152 476 174 498 200 498 c 0
 226 498 248 476 248 450 c 0
 248 424 226 402 200 402 c 0
 174 402 152 424 152 450 c 0
152 350 m 0
 152 376 174 398 200 398 c 0
 226 398 248 376 248 350 c 0
 248 324 226 302 200 302 c 0
 174 302 152 324 152 350 c 0
152 250 m 0
 152 276 174 298 200 298 c 0
 226 298 248 276 248 250 c 0
 248 224 226 202 200 202 c 0
 174 202 152 224 152 250 c 0
152 150 m 0
 152 176 174 198 200 198 c 0
 226 198 248 176 248 150 c 0
 248 124 226 102 200 102 c 0
 174 102 152 124 152 150 c 0
52 50 m 0
 52 76 74 98 100 98 c 0
 126 98 148 76 148 50 c 0
 148 24 126 2 100 2 c 0
 74 2 52 24 52 50 c 0
152 50 m 0
 152 76 174 98 200 98 c 0
 226 98 248 76 248 50 c 0
 248 24 226 2 200 2 c 0
 174 2 152 24 152 50 c 0
252 50 m 0
 252 76 274 98 300 98 c 0
 326 98 348 76 348 50 c 0
 348 24 326 2 300 2 c 0
 274 2 252 24 252 50 c 0
EndSplineSet
EndChar

StartChar: two
Encoding: 50 50 18
Width: 600
Flags: HMW
LayerCount: 2
Fore
SplineSet
152 650 m 0
 152 676 174 698 200 698 c 0
 226 698 248 676 248 650 c 0
 248 624 226 602 200 602 c 0
 174 602 152 624 152 650 c 0
252 650 m 0
 252 676 274 698 300 698 c 0
 326 698 348 676 348 650 c 0
 348 624 326 602 300 602 c 0
 274 602 252 624 252 650 c 0
352 650 m 0
 352 676 374 698 400 698 c 0
 426 698 448 676 448 650 c 0
 448 624 426 602 400 602 c 0
 374 602 352 624 352 650 c 0
52 550 m 0
 52 576 74 598 100 598 c 0
 126 598 148 576 148 550 c 0
 148 524 126 502 100 502 c 0
 74 502 52 524 52 550 c 0
452 550 m 0
 452 576 474 598 500 598 c 0
 526 598 548 576 548 550 c 0
 548 524 526 502 500 502 c 0
 474 502 452 524 452 550 c 0
452 450 m 0
 452 476 474 498 500 498 c 0
 526 498 548 476 548 450 c 0
 548 424 526 402 500 402 c 0
 474 402 452 424 452 450 c 0
252 350 m 0
 252 376 274 398 300 398 c 0
 326 398 348 376 348 350 c 0
 348 324 326 302 300 302 c 0
 274 302 252 324 252 350 c 0
352 350 m 0
 352 376 374 398 400 398 c 0
 426 398 448 376 448 350 c 0
 448 324 426 302 400 302 c 0
 374 302 352 324 352 350 c 0
152 250 m 0
 152 276 174 298 200 298 c 0
 226 298 248 276 248 250 c 0
 248 224 226 202 200 202 c 0
 174 202 152 224 152 250 c 0
52 150 m 0
 52 176 74 198 100 198 c 0
 126 198 148 176 148 150 c 0
 148 124 126 102 100 102 c 0
 74 102 52 124 52 150 c 0
52 50 m 0
 52 76 74 98 100 98 c 0
 126 98 148 76 148 50 c 0
 148 24 126 2 100 2 c 0
 74 2 52 24 52 50 c 0
152 50 m 0
 152 76 174 98 200 98 c 0
 226 98 248 76 248 50 c 0
 248 24 226 2 200 2 c 0
 174 2 152 24 152 50 c 0
252 50 m 0
 252 76 274 98 300 98 c 0
 326 98 348 76 348 50 c 0
 348 24 326 2 300 2 c 0
 274 2 252 24 252 50 c 0
352 50 m 0
 352 76 374 98 400 98 c 0
 426 98 448 76 448 50 c 0
 448 24 426 2 400 2 c 0
 374 2 352 24 352 50 c 0
452 50 m 0
 452 76 474 98 500 98 c 0
 526 98 548 76 548 50 c 0
 548 24 526 2 500 2 c 0
 474 2 452 24 452 50 c 0
EndSplineSet
EndChar

StartChar: three
Encoding: 51 51 19
Width: 600
Flags: HMW
LayerCount: 2
Fore
SplineSet
152 650 m 0
 152 676 174 698 200 698 c 0
 226 698 248 676 248 650 c 0
 248 624 226 602 200 602 c 0
 174 602 152 624 152 650 c 0
252 650 m 0
 252 676 274 698 300 698 c 0
 326 698 348 676 348 650 c 0
 348 624 326 602 300 602 c 0
 274 602 252 624 252 650 c 0
352 650 m 0
 352 676 374 698 400 698 c 0
 426 698 448 676 448 650 c 0
 448 624 426 602 400 602 c 0
 374 602 352 624 352 650 c 0
52 550 m 0
 52 576 74 598 100 598 c 0
 126 598 148 576 148 550 c 0
 148 524 126 502 100 502 c 0
 74 502 52 524 52 550 c 0
452 550 m 0
 452 576 474 598 500 598 c 0
 526 598 548 576 548 550 c 0
 548 524 526 502 500 502 c 0
 474 502 452 524 452 550 c 0
452 450 m 0
 452 476 474 498 500 498 c 0
 526 498 548 476 548 450 c 0
 548 424 526 402 500 402 c 0
 474 402 452 424 452 450 c 0
252 350 m 0
 252 376 274 398 300 398 c 0
 326 398 348 376 348 350 c 0
 348 324 326 302 300 302 c 0
 274 302 252 324 252 350 c 0
352 350 m 0
 352 376 374 398 400 398 c 0
 426 398 448 376 448 350 c 0
 448 324 426 302 400 302 c 0
 374 302 352 324 352 350 c 0
452 250 m 0
 452 276 474 298 500 298 c 0
 526 298 548 276 548 250 c 0
 548 224 526 202 500 202 c 0
 474 202 452 224 452 250 c 0
52 150 m 0
 52 176 74 198 100 198 c 0
 126 198 148 176 148 150 c 0
 148 124 126 102 100 102 c 0
 74 102 52 124 52 150 c 0
452 150 m 0
 452 176 474 198 500 198 c 0
 526 198 548 176 548 150 c 0
 548 124 526 102 500 102 c 0
 474 102 452 124 452 150 c 0
152 50 m 0
 152 76 174 98 200 98 c 0
 226 98 248 76 248 50 c 0
 248 24 226 2 200 2 c 0
 174 2 152 24 152 50 c 0
252 50 m 0
 252 76 274 98 300 98 c 0
 326 98 348 76 348 50 c 0
 348 24 326 2 300 2 c 0
 274 2 252 24 252 50 c 0
352 50 m 0
 352 76 374 98 400 98 c 0
 426 98 448 76 448 50 c 0
 448 24 426 2 400 2 c 0
 374 2 352 24 352 50 c 0
EndSplineSet
EndChar

StartChar: four
Encoding: 52 52 20
Width: 600
Flags: HMW
LayerCount: 2
Fore
SplineSet
352 650 m 0
 352 676 374 698 400 698 c 0
 426 698 448 676 448 650 c 0
 448 624 426 602 400 602 c 0
 374 602 352 624 352 650 c 0
252 550 m 0
 252 576 274 598 300 598 c 0
 326 598 348 576 348 550 c 0
 348 524 326 502 300 502 c 0
 274 502 252 524 252 550 c 0
352 550 m 0
 352 576 374 598 400 598 c 0
 426 598 448 576 448 550 c 0
 448 524 426 502 400 502 c 0
 374 502 352 524 352 550 c 0
152 450 m 0
 152 476 174 498 200 498 c 0
 226 498 248 476 248 450 c 0
 248 424 226 402 200 402 c 0
 174 402 152 424 152 450 c 0
352 450 m 0
 352 476 374 498 400 498 c 0
 426 498 448 476 448 450 c 0
 448 424 426 402 400 402 c 0
 374 402 352 424 352 450 c 0
52 350 m 0
 52 376 74 398 100 398 c 0
 126 398 148 376 148 350 c 0
 148 324 126 302 100 302 c 0
 74 302 52 324 52 350 c 0
352 350 m 0
 352 376 374 398 400 398 c 0
 426 398 448 376 448 350 c 0
 448 324 426 302 400 302 c 0
 374 302 352 324 352 350 c 0
52 250 m 0
 52 276 74 298 100 298 c 0
 126 298 148 276 148 250 c 0
 148 224 126 202 100 202 c 0
 74 202 52 224 52 250 c 0
152 250 m 0
 152 276 174 298 200 298 c 0
 226 298 248 276 248 250 c 0
 248 224 226 202 200 202 c 0
 174 202 152 224 152 250 c 0
252 250 m 0
 252 276 274 298 300 298 c 0
 326 298 348 276 348 250 c 0
 348 224 326 202 300 202 c 0
 274 202 252 224 252 250 c 0
352 250 m 0
 352 276 374 298 400 298 c 0
 426 298 448 276 448 250 c 0
 448 224 426 202 400 202 c 0
 374 202 352 224 352 250 c 0
452 250 m 0
 452 276 474 298 500 298 c 0
 526 298 548 276 548 250 c 0
 548 224 526 202 500 202 c 0
 474 202 452 224 452 250 c 0
352 150 m 0
 352 176 374 198 400 198 c 0
 426 198 448 176 448 150 c 0
 448 124 426 102 400 102 c 0
 374 102 352 124 352 150 c 0
352 50 m 0
 352 76 374 98 400 98 c 0
 426 98 448 76 448 50 c 0
 448 24 426 2 400 2 c 0
 374 2 352 24 352 50 c 0
EndSplineSet
EndChar

StartChar: five
Encoding: 53 53 21
Width: 600
Flags: HMW
LayerCount: 2
Fore
SplineSet
52 650 m 0
 52 676 74 698 100 698 c 0
 126 698 148 676 148 650 c 0
 148 624 126 602 100 602 c 0
 74 602 52 624 52 650 c 0
152 650 m 0
 152 676 174 698 200 698 c 0
 226 698 248 676 248 650 c 0
 248 624 226 602 200 602 c 0
 174 602 152 624 152 650 c 0
252 650 m 0
 252 676 274 698 300 698 c 0
 326 698 348 676 348 650 c 0
 348 624 326 602 300 602 c 0
 274 602 252 624 252 650 c 0
352 650 m 0
 352 676 374 698 400 698 c 0
 426 698 448 676 448 650 c 0
 448 624 426 602 400 602 c 0
 374 602 352 624 352 650 c 0
452 650 m 0
 452 676 474 698 500 698 c 0
 526 698 548 676 548 650 c 0
 548 624 526 602 500 602 c 0
 474 602 452 624 452 650 c 0
52 550 m 0
 52 576 74 598 100 598 c 0
 126 598 148 576 148 550 c 0
 148 524 126 502 100 502 c 0
 74 502 52 524 52 550 c 0
52 450 m 0
 52 476 74 498 100 498 c 0
 126 498 148 476 148 450 c 0
 148 424 126 402 100 402 c 0
 74 402 52 424 52 450 c 0
152 450 m 0
 152 476 174 498 200 498 c 0
 226 498 248 476 248 450 c 0
 248 424 226 402 200 402 c 0
 174 402 152 424 152 450 c 0
252 450 m 0
 252 476 274 498 300 498 c 0
 326 498 348 476 348 450 c 0
 348 424 326 402 300 402 c 0
 274 402 252 424 252 450 c 0
352 450 m 0
 352 476 374 498 400 498 c 0
 426 498 448 476 448 450 c 0
 448 424 426 402 400 402 c 0
 374 402 352 424 352 450 c 0
452 350 m 0
 452 376 474 398 500 398 c 0
 526 398 548 376 548 350 c 0
 548 324 526 302 500 302 c 0
 474 302 452 324 452 350 c 0
452 250 m 0
 452 276 474 298 500 298 c 0
 526 298 548 276 548 250 c 0
 548 224 526 202 500 202 c 0
 474 202 452 224 452 250 c 0
52 150 m 0
 52 176 74 198 100 198 c 0
 126 198 148 176 148 150 c 0
 148 124 126 102 100 102 c 0
 74 102 52 124 52 150 c 0
452 150 m 0
 452 176 474 198 500 198 c 0
 526 198 548 176 548 150 c 0
 548 124 526 102 500 102 c 0
 474 102 452 124 452 150 c 0
152 50 m 0
 152 76 174 98 200 98 c 0
 226 98 248 76 248 50 c 0
 248 24 226 2 200 2 c 0
 174 2 152 24 152 50 c 0
252 50 m 0
 252 76 274 98 300 98 c 0
 326 98 348 76 348 50 c 0
 348 24 326 2 300 2 c 0
 274 2 252 24 252 50 c 0
352 50 m 0
 352 76 374 98 400 98 c 0
 426 98 448 76 448 50 c 0
 448 24 426 2 400 2 c 0
 374 2 352 24 352 50 c 0
EndSplineSet
EndChar

StartChar: six
Encoding: 54 54 22
Width: 600
Flags: HMW
LayerCount: 2
Fore
SplineSet
252 650 m 0
 252 676 274 698 300 698 c 0
 326 698 348 676 348 650 c 0
 348 624 326 602 300 602 c 0
 274 602 252 624 252 650 c 0
352 650 m 0
 352 676 374 698 400 698 c 0
 426 698 448 676 448 650 c 0
 448 624 426 602 400 602 c 0
 374 602 352 624 352 650 c 0
152 550 m 0
 152 576 174 598 200 598 c 0
 226 598 248 576 248 550 c 0
 248 524 226 502 200 502 c 0
 174 502 152 524 152 550 c 0
52 450 m 0
 52 476 74 498 100 498 c 0
 126 498 148 476 148 450 c 0
 148 424 126 402 100 402 c 0
 74 402 52 424 52 450 c 0
52 350 m 0
 52 376 74 398 100 398 c 0
 126 398 148 376 148 350 c 0
 148 324 126 302 100 302 c 0
 74 302 52 324 52 350 c 0
152 350 m 0
 152 376 174 398 200 398 c 0
 226 398 248 376 248 350 c 0
 248 324 226 302 200 302 c 0
 174 302 152 324 152 350 c 0
252 350 m 0
 252 376 274 398 300 398 c 0
 326 398 348 376 348 350 c 0
 348 324 326 302 300 302 c 0
 274 302 252 324 252 350 c 0
352 350 m 0
 352 376 374 398 400 398 c 0
 426 398 448 376 448 350 c 0
 448 324 426 302 400 302 c 0
 374 302 352 324 352 350 c 0
52 250 m 0
 52 276 74 298 100 298 c 0
 126 298 148 276 148 250 c 0
 148 224 126 202 100 202 c 0
 74 202 52 224 52 250 c 0
452 250 m 0
 452 276 474 298 500 298 c 0
 526 298 548 276 548 250 c 0
 548 224 526 202 500 202 c 0
 474 202 452 224 452 250 c 0
52 150 m 0
 52 176 74 198 100 198 c 0
 126 198 148 176 148 150 c 0
 148 124 126 102 100 102 c 0
 74 102 52 124 52 150 c 0
452 150 m 0
 452 176 474 198 500 198 c 0
 526 198 548 176 548 150 c 0
 548 124 526 102 500 102 c 0
 474 102 452 124 452 150 c 0
152 50 m 0
 152 76 174 98 200 98 c 0
 226 98 248 76 248 50 c 0
 248 24 226 2 200 2 c 0
 174 2 152 24 152 50 c 0
252 50 m 0
 252 76 274 98 300 98 c 0
 326 98 348 76 348 50 c 0
 348 24 326 2 300 2 c 0
 274 2 252 24 252 50 c 0
352 50 m 0
 352 76 374 98 400 98 c 0
 426 98 448 76 448 50 c 0
 448 24 426 2 400 2 c 0
 374 2 352 24 352 50 c 0
EndSplineSet
EndChar

StartChar: seven
Encoding: 55 55 23
Width: 600
Flags: HMW
LayerCount: 2
Fore
SplineSet
52 650 m 0
 52 676 74 698 100 698 c 0
 126 698 148 676 148 650 c 0
 148 624 126 602 100 602 c 0
 74 602 52 624 52 650 c 0
152 650 m 0
 152 676 174 698 200 698 c 0
 226 698 248 676 248 650 c 0
 248 624 226 602 200 602 c 0
 174 602 152 624 152 650 c 0
252 650 m 0
 252 676 274 698 300 698 c 0
 326 698 348 676 348 650 c 0
 348 624 326 602 300 602 c 0
 274 602 252 624 252 650 c 0
352 650 m 0
 352 676 374 698 400 698 c 0
 426 698 448 676 448 650 c 0
 448 624 426 602 400 602 c 0
 374 602 352 624 352 650 c 0
452 650 m 0
 452 676 474 698 500 698 c 0
 526 698 548 676 548 650 c 0
 548 624 526 602 500 602 c 0
 474 602 452 624 452 650 c 0
452 550 m 0
 452 576 474 598 500 598 c 0
 526 598 548 576 548 550 c 0
 548 524 526 502 500 502 c 0
 474 502 452 524 452 550 c 0
352 450 m 0
 352 476 374 498 400 498 c 0
 426 498 448 476 448 450 c 0
 448 424 426 402 400 402 c 0
 374 402 352 424 352 450 c 0
252 350 m 0
 252 376 274 398 300 398 c 0
 326 398 348 376 348 350 c 0
 348 324 326 302 300 302 c 0
 274 302 252 324 252 350 c 0
152 250 m 0
 152 276 174 298 200 298 c 0
 226 298 248 276 248 250 c 0
 248 224 226 202 200 202 c 0
 174 202 152 224 152 250 c 0
152 150 m 0
 152 176 174 198 200 198 c 0
 226 198 248 176 248 150 c 0
 248 124 226 102 200 102 c 0
 174 102 152 124 152 150 c 0
152 50 m 0
 152 76 174 98 200 98 c 0
 226 98 248 76 248 50 c 0
 248 24 226 2 200 2 c 0
 174 2 152 24 152 50 c 0
EndSplineSet
EndChar

StartChar: eight
Encoding: 56 56 24
Width: 600
Flags: HMW
LayerCount: 2
Fore
SplineSet
152 650 m 0
 152 676 174 698 200 698 c 0
 226 698 248 676 248 650 c 0
 248 624 226 602 200 602 c 0
 174 602 152 624 152 650 c 0
252 650 m 0
 252 676 274 698 300 698 c 0
 326 698 348 676 348 650 c 0
 348 624 326 602 300 602 c 0
 274 602 252 624 252 650 c 0
352 650 m 0
 352 676 374 698 400 698 c 0
 426 698 448 676 448 650 c 0
 448 624 426 602 400 602 c 0
 374 602 352 624 352 650 c 0
52 550 m 0
 52 576 74 598 100 598 c 0
 126 598 148 576 148 550 c 0
 148 524 126 502 100 502 c 0
 74 502 52 524 52 550 c 0
452 550 m 0
 452 576 474 598 500 598 c 0
 526 598 548 576 548 550 c 0
 548 524 526 502 500 502 c 0
 474 502 452 524 452 550 c 0
52 450 m 0
 52 476 74 498 100 498 c 0
 126 498 148 476 148 450 c 0
 148 424 126 402 100 402 c 0
 74 402 52 424 52 450 c 0
452 450 m 0
 452 476 474 498 500 498 c 0
 526 498 548 476 548 450 c 0
 548 424 526 402 500 402 c 0
 474 402 452 424 452 450 c 0
152 350 m 0
 152 376 174 398 200 398 c 0
 226 398 248 376 248 350 c 0
 248 324 226 302 200 302 c 0
 174 302 152 324 152 350 c 0
252 350 m 0
 252 376 274 398 300 398 c 0
 326 398 348 376 348 350 c 0
 348 324 326 302 300 302 c 0
 274 302 252 324 252 350 c 0
352 350 m 0
 352 376 374 398 400 398 c 0
 426 398 448 376 448 350 c 0
 448 324 426 302 400 302 c 0
 374 302 352 324 352 350 c 0
52 250 m 0
 52 276 74 298 100 298 c 0
 126 298 148 276 148 250 c 0
 148 224 126 202 100 202 c 0
 74 202 52 224 52 250 c 0
452 250 m 0
 452 276 474 298 500 298 c 0
 526 298 548 276 548 250 c 0
 548 224 526 202 500 202 c 0
 474 202 452 224 452 250 c 0
52 150 m 0
 52 176 74 198 100 198 c 0
 126 198 148 176 148 150 c 0
 148 124 126 102 100 102 c 0
 74 102 52 124 52 150 c 0
452 150 m 0
 452 176 474 198 500 198 c 0
 526 198 548 176 548 150 c 0
 548 124 526 102 500 102 c 0
 474 102 452 124 452 150 c 0
152 50 m 0
 152 76 174 98 200 98 c 0
 226 98 248 76 248 50 c 0
 248 24 226 2 200 2 c 0
 174 2 152 24 152 50 c 0
252 50 m 0
 252 76 274 98 300 98 c 0
 326 98 348 76 348 50 c 0
 348 24 326 2 300 2 c 0
 274 2 252 24 252 50 c 0
352 50 m 0
 352 76 374 98 400 98 c 0
 426 98 448 76 448 50 c 0
 448 24 426 2 400 2 c 0
 374 2 352 24 352 50 c 0
EndSplineSet
EndChar

StartChar: nine
Encoding: 57 57 25
Width: 600
Flags: HMW
LayerCount: 2
Fore
SplineSet
152 650 m 0
 152 676 174 698 200 698 c 0
 226 698 248 676 248 650 c 0
 248 624 226 602 200 602 c 0
 174 602 152 624 152 650 c 0
252 650 m 0
 252 676 274 698 300 698 c 0
 326 698 348 676 348 650 c 0
 348 624 326 602 300 602 c 0
 274 602 252 624 252 650 c 0
352 650 m 0
 352 676 374 698 400 698 c 0
 426 698 448 676 448 650 c 0
 448 624 426 602 400 602 c 0
 374 602 352 624 352 650 c 0
52 550 m 0
 52 576 74 598 100 598 c 0
 126 598 148 576 148 550 c 0
 148 524 126 502 100 502 c 0
 74 502 52 524 52 550 c 0
452 550 m 0
 452 576 474 598 500 598 c 0
 526 598 548 576 548 550 c 0
 548 524 526 502 500 502 c 0
 474 502 452 524 452 550 c 0
52 450 m 0
 52 476 74 498 100 498 c 0
 126 498 148 476 148 450 c 0
 148 424 126 402 100 402 c 0
 74 402 52 424 52 450 c 0
452 450 m 0
 452 476 474 498 500 498 c 0
 526 498 548 476 548 450 c 0
 548 424 526 402 500 402 c 0
 474 402 452 424 452 450 c 0
152 350 m 0
 152 376 174 398 200 398 c 0
 226 398 248 376 248 350 c 0
 248 324 226 302 200 302 c 0
 174 302 152 324 152 350 c 0
252 350 m 0
 252 376 274 398 300 398 c 0
 326 398 348 376 348 350 c 0
 348 324 326 302 300 302 c 0
 274 302 252 324 252 350 c 0
352 350 m 0
 352 376 374 398 400 398 c 0
 426 398 448 376 448 350 c 0
 448 324 426 302 400 302 c 0
 374 302 352 324 352 350 c 0
452 350 m 0
 452 376 474 398 500 398 c 0
 526 398 548 376 548 350 c 0
 548 324 526 302 500 302 c 0
 474 302 452 324 452 350 c 0
452 250 m 0
 452 276 474 298 500 298 c 0
 526 298 548 276 548 250 c 0
 548 224 526 202 500 202 c 0
 474 202 452 224 452 250 c 0
352 150 m 0
 352 176 374 198 400 198 c 0
 426 198 448 176 448 150 c 0
 448 124 426 102 400 102 c 0
 374 102 352 124 352 150 c 0
152 50 m 0
 152 76 174 98 200 98 c 0
 226 98 248 76 248 50 c 0
 248 24 226 2 200 2 c 0
 174 2 152 24 152 50 c 0
252 50 m 0
 252 76 274 98 300 98 c 0
 326 98 348 76 348 50 c 0
 348 24 326 2 300 2 c 0
 274 2 252 24 252 50 c 0
EndSplineSet
EndChar

StartChar: colon
Encoding: 58 58 26
Width: 200
Flags: HMW
LayerCount: 2
Fore
SplineSet
52 450 m 0
 52 476 74 498 100 498 c 0
 126 498 148 476 148 450 c 0
 148 424 126 402 100 402 c 0
 74 402 52 424 52 450 c 0
52 50 m 0
 52 76 74 98 100 98 c 0
 126 98 148 76 148 50 c 0
 148 24 126 2 100 2 c 0
 74 2 52 24 52 50 c 0
EndSplineSet
EndChar

StartChar: semicolon
Encoding: 59 59 27
Width: 300
Flags: HMW
LayerCount: 2
Fore
SplineSet
152 450 m 0
 152 476 174 498 200 498 c 0
 226 498 248 476 248 450 c 0
 248 424 226 402 200 402 c 0
 174 402 152 424 152 450 c 0
152 150 m 0
 152 176 174 198 200 198 c 0
 226 198 248 176 248 150 c 0
 248 124 226 102 200 102 c 0
 174 102 152 124 152 150 c 0
152 50 m 0
 152 76 174 98 200 98 c 0
 226 98 248 76 248 50 c 0
 248 24 226 2 200 2 c 0
 174 2 152 24 152 50 c 0
52 -50 m 0
 52 -24 74 -2 100 -2 c 0
 126 -2 148 -24 148 -50 c 0
 148 -76 126 -98 100 -98 c 0
 74 -98 52 -76 52 -50 c 0
EndSplineSet
EndChar

StartChar: less
Encoding: 60 60 28
Width: 400
Flags: HMW
LayerCount: 2
Fore
SplineSet
252 550 m 0
 252 576 274 598 300 598 c 0
 326 598 348 576 348 550 c 0
 348 524 326 502 300 502 c 0
 274 502 252 524 252 550 c 0
152 450 m 0
 152 476 174 498 200 498 c 0
 226 498 248 476 248 450 c 0
 248 424 226 402 200 402 c 0
 174 402 152 424 152 450 c 0
52 350 m 0
 52 376 74 398 100 398 c 0
 126 398 148 376 148 350 c 0
 148 324 126 302 100 302 c 0
 74 302 52 324 52 350 c 0
152 250 m 0
 152 276 174 298 200 298 c 0
 226 298 248 276 248 250 c 0
 248 224 226 202 200 202 c 0
 174 202 152 224 152 250 c 0
252 150 m 0
 252 176 274 198 300 198 c 0
 326 198 348 176 348 150 c 0
 348 124 326 102 300 102 c 0
 274 102 252 124 252 150 c 0
EndSplineSet
EndChar

StartChar: equal
Encoding: 61 61 29
Width: 600
Flags: HMW
LayerCount: 2
Fore
SplineSet
52 450 m 0
 52 476 74 498 100 498 c 0
 126 498 148 476 148 450 c 0
 148 424 126 402 100 402 c 0
 74 402 52 424 52 450 c 0
152 450 m 0
 152 476 174 498 200 498 c 0
 226 498 248 476 248 450 c 0
 248 424 226 402 200 402 c 0
 174 402 152 424 152 450 c 0
252 450 m 0
 252 476 274 498 300 498 c 0
 326 498 348 476 348 450 c 0
 348 424 326 402 300 402 c 0
 274 402 252 424 252 450 c 0
352 450 m 0
 352 476 374 498 400 498 c 0
 426 498 448 476 448 450 c 0
 448 424 426 402 400 402 c 0
 374 402 352 424 352 450 c 0
452 450 m 0
 452 476 474 498 500 498 c 0
 526 498 548 476 548 450 c 0
 548 424 526 402 500 402 c 0
 474 402 452 424 452 450 c 0
52 250 m 0
 52 276 74 298 100 298 c 0
 126 298 148 276 148 250 c 0
 148 224 126 202 100 202 c 0
 74 202 52 224 52 250 c 0
152 250 m 0
 152 276 174 298 200 298 c 0
 226 298 248 276 248 250 c 0
 248 224 226 202 200 202 c 0
 174 202 152 224 152 250 c 0
252 250 m 0
 252 276 274 298 300 298 c 0
 326 298 348 276 348 250 c 0
 348 224 326 202 300 202 c 0
 274 202 252 224 252 250 c 0
352 250 m 0
 352 276 374 298 400 298 c 0
 426 298 448 276 448 250 c 0
 448 224 426 202 400 202 c 0
 374 202 352 224 352 250 c 0
452 250 m 0
 452 276 474 298 500 298 c 0
 526 298 548 276 548 250 c 0
 548 224 526 202 500 202 c 0
 474 202 452 224 452 250 c 0
EndSplineSet
EndChar

StartChar: greater
Encoding: 62 62 30
Width: 400
Flags: HMW
LayerCount: 2
Fore
SplineSet
52 550 m 0
 52 576 74 598 100 598 c 0
 126 598 148 576 148 550 c 0
 148 524 126 502 100 502 c 0
 74 502 52 524 52 550 c 0
152 450 m 0
 152 476 174 498 200 498 c 0
 226 498 248 476 248 450 c 0
 248 424 226 402 200 402 c 0
 174 402 152 424 152 450 c 0
252 350 m 0
 252 376 274 398 300 398 c 0
 326 398 348 376 348 350 c 0
 348 324 326 302 300 302 c 0
 274 302 252 324 252 350 c 0
152 250 m 0
 152 276 174 298 200 298 c 0
 226 298 248 276 248 250 c 0
 248 224 226 202 200 202 c 0
 174 202 152 224 152 250 c 0
52 150 m 0
 52 176 74 198 100 198 c 0
 126 198 148 176 148 150 c 0
 148 124 126 102 100 102 c 0
 74 102 52 124 52 150 c 0
EndSplineSet
EndChar

StartChar: question
Encoding: 63 63 31
Width: 600
Flags: HMW
LayerCount: 2
Fore
SplineSet
152 650 m 0
 152 676 174 698 200 698 c 0
 226 698 248 676 248 650 c 0
 248 624 226 602 200 602 c 0
 174 602 152 624 152 650 c 0
252 650 m 0
 252 676 274 698 300 698 c 0
 326 698 348 676 348 650 c 0
 348 624 326 602 300 602 c 0
 274 602 252 624 252 650 c 0
352 650 m 0
 352 676 374 698 400 698 c 0
 426 698 448 676 448 650 c 0
 448 624 426 602 400 602 c 0
 374 602 352 624 352 650 c 0
52 550 m 0
 52 576 74 598 100 598 c 0
 126 598 148 576 148 550 c 0
 148 524 126 502 100 502 c 0
 74 502 52 524 52 550 c 0
452 550 m 0
 452 576 474 598 500 598 c 0
 526 598 548 576 548 550 c 0
 548 524 526 502 500 502 c 0
 474 502 452 524 452 550 c 0
452 450 m 0
 452 476 474 498 500 498 c 0
 526 498 548 476 548 450 c 0
 548 424 526 402 500 402 c 0
 474 402 452 424 452 450 c 0
252 350 m 0
 252 376 274 398 300 398 c 0
 326 398 348 376 348 350 c 0
 348 324 326 302 300 302 c 0
 274 302 252 324 252 350 c 0
352 350 m 0
 352 376 374 398 400 398 c 0
 426 398 448 376 448 350 c 0
 448 324 426 302 400 302 c 0
 374 302 352 324 352 350 c 0
252 250 m 0
 252 276 274 298 300 298 c 0
 326 298 348 276 348 250 c 0
 348 224 326 202 300 202 c 0
 274 202 252 224 252 250 c 0
252 50 m 0
 252 76 274 98 300 98 c 0
 326 98 348 76 348 50 c 0
 348 24 326 2 300 2 c 0
 274 2 252 24 252 50 c 0
EndSplineSet
EndChar

StartChar: at
Encoding: 64 64 32
Width: 600
Flags: HMW
LayerCount: 2
Fore
SplineSet
152 650 m 0
 152 676 174 698 200 698 c 0
 226 698 248 676 248 650 c 0
 248 624 226 602 200 602 c 0
 174 602 152 624 152 650 c 0
252 650 m 0
 252 676 274 698 300 698 c 0
 326 698 348 676 348 650 c 0
 348 624 326 602 300 602 c 0
 274 602 252 624 252 650 c 0
352 650 m 0
 352 676 374 698 400 698 c 0
 426 698 448 676 448 650 c 0
 448 624 426 602 400 602 c 0
 374 602 352 624 352 650 c 0
52 550 m 0
 52 576 74 598 100 598 c 0
 126 598 148 576 148 550 c 0
 148 524 126 502 100 502 c 0
 74 502 52 524 52 550 c 0
452 550 m 0
 452 576 474 598 500 598 c 0
 526 598 548 576 548 550 c 0
 548 524 526 502 500 502 c 0
 474 502 452 524 452 550 c 0
52 450 m 0
 52 476 74 498 100 498 c 0
 126 498 148 476 148 450 c 0
 148 424 126 402 100 402 c 0
 74 402 52 424 52 450 c 0
252 450 m 0
 252 476 274 498 300 498 c 0
 326 498 348 476 348 450 c 0
 348 424 326 402 300 402 c 0
 274 402 252 424 252 450 c 0
352 450 m 0
 352 476 374 498 400 498 c 0
 426 498 448 476 448 450 c 0
 448 424 426 402 400 402 c 0
 374 402 352 424 352 450 c 0
452 450 m 0
 452 476 474 498 500 498 c 0
 526 498 548 476 548 450 c 0
 548 424 526 402 500 402 c 0
 474 402 452 424 452 450 c 0
52 350 m 0
 52 376 74 398 100 398 c 0
 126 398 148 376 148 350 c 0
 148 324 126 302 100 302 c 0
 74 302 52 324 52 350 c 0
252 350 m 0
 252 376 274 398 300 398 c 0
 326 398 348 376 348 350 c 0
 348 324 326 302 300 302 c 0
 274 302 252 324 252 350 c 0
452 350 m 0
 452 376 474 398 500 398 c 0
 526 398 548 376 548 350 c 0
 548 324 526 302 500 302 c 0
 474 302 452 324 452 350 c 0
52 250 m 0
 52 276 74 298 100 298 c 0
 126 298 148 276 148 250 c 0
 148 224 126 202 100 202 c 0
 74 202 52 224 52 250 c 0
252 250 m 0
 252 276 274 298 300 298 c 0
 326 298 348 276 348 250 c 0
 348 224 326 202 300 202 c 0
 274 202 252 224 252 250 c 0
352 250 m 0
 352 276 374 298 400 298 c 0
 426 298 448 276 448 250 c 0
 448 224 426 202 400 202 c 0
 374 202 352 224 352 250 c 0
452 250 m 0
 452 276 474 298 500 298 c 0
 526 298 548 276 548 250 c 0
 548 224 526 202 500 202 c 0
 474 202 452 224 452 250 c 0
52 150 m 0
 52 176 74 198 100 198 c 0
 126 198 148 176 148 150 c 0
 148 124 126 102 100 102 c 0
 74 102 52 124 52 150 c 0
152 50 m 0
 152 76 174 98 200 98 c 0
 226 98 248 76 248 50 c 0
 248 24 226 2 200 2 c 0
 174 2 152 24 152 50 c 0
252 50 m 0
 252 76 274 98 300 98 c 0
 326 98 348 76 348 50 c 0
 348 24 326 2 300 2 c 0
 274 2 252 24 252 50 c 0
352 50 m 0
 352 76 374 98 400 98 c 0
 426 98 448 76 448 50 c 0
 448 24 426 2 400 2 c 0
 374 2 352 24 352 50 c 0
EndSplineSet
EndChar

StartChar: A
Encoding: 65 65 33
Width: 600
Flags: HMW
AnchorPoint: "ogonek" 400 0 basechar 0
AnchorPoint: "marks_below" 300 0 basechar 0
AnchorPoint: "marks_above" 300 800 basechar 0
LayerCount: 2
Fore
SplineSet
252 650 m 0
 252 676 274 698 300 698 c 0
 326 698 348 676 348 650 c 0
 348 624 326 602 300 602 c 0
 274 602 252 624 252 650 c 0
152 550 m 0
 152 576 174 598 200 598 c 0
 226 598 248 576 248 550 c 0
 248 524 226 502 200 502 c 0
 174 502 152 524 152 550 c 0
352 550 m 0
 352 576 374 598 400 598 c 0
 426 598 448 576 448 550 c 0
 448 524 426 502 400 502 c 0
 374 502 352 524 352 550 c 0
52 450 m 0
 52 476 74 498 100 498 c 0
 126 498 148 476 148 450 c 0
 148 424 126 402 100 402 c 0
 74 402 52 424 52 450 c 0
452 450 m 0
 452 476 474 498 500 498 c 0
 526 498 548 476 548 450 c 0
 548 424 526 402 500 402 c 0
 474 402 452 424 452 450 c 0
52 350 m 0
 52 376 74 398 100 398 c 0
 126 398 148 376 148 350 c 0
 148 324 126 302 100 302 c 0
 74 302 52 324 52 350 c 0
452 350 m 0
 452 376 474 398 500 398 c 0
 526 398 548 376 548 350 c 0
 548 324 526 302 500 302 c 0
 474 302 452 324 452 350 c 0
52 250 m 0
 52 276 74 298 100 298 c 0
 126 298 148 276 148 250 c 0
 148 224 126 202 100 202 c 0
 74 202 52 224 52 250 c 0
152 250 m 0
 152 276 174 298 200 298 c 0
 226 298 248 276 248 250 c 0
 248 224 226 202 200 202 c 0
 174 202 152 224 152 250 c 0
252 250 m 0
 252 276 274 298 300 298 c 0
 326 298 348 276 348 250 c 0
 348 224 326 202 300 202 c 0
 274 202 252 224 252 250 c 0
352 250 m 0
 352 276 374 298 400 298 c 0
 426 298 448 276 448 250 c 0
 448 224 426 202 400 202 c 0
 374 202 352 224 352 250 c 0
452 250 m 0
 452 276 474 298 500 298 c 0
 526 298 548 276 548 250 c 0
 548 224 526 202 500 202 c 0
 474 202 452 224 452 250 c 0
52 150 m 0
 52 176 74 198 100 198 c 0
 126 198 148 176 148 150 c 0
 148 124 126 102 100 102 c 0
 74 102 52 124 52 150 c 0
452 150 m 0
 452 176 474 198 500 198 c 0
 526 198 548 176 548 150 c 0
 548 124 526 102 500 102 c 0
 474 102 452 124 452 150 c 0
52 50 m 0
 52 76 74 98 100 98 c 0
 126 98 148 76 148 50 c 0
 148 24 126 2 100 2 c 0
 74 2 52 24 52 50 c 0
452 50 m 0
 452 76 474 98 500 98 c 0
 526 98 548 76 548 50 c 0
 548 24 526 2 500 2 c 0
 474 2 452 24 452 50 c 0
EndSplineSet
EndChar

StartChar: B
Encoding: 66 66 34
Width: 600
Flags: HMW
AnchorPoint: "marks_below" 300 0 basechar 0
AnchorPoint: "marks_above" 300 800 basechar 0
LayerCount: 2
Fore
SplineSet
52 650 m 0
 52 676 74 698 100 698 c 0
 126 698 148 676 148 650 c 0
 148 624 126 602 100 602 c 0
 74 602 52 624 52 650 c 0
152 650 m 0
 152 676 174 698 200 698 c 0
 226 698 248 676 248 650 c 0
 248 624 226 602 200 602 c 0
 174 602 152 624 152 650 c 0
252 650 m 0
 252 676 274 698 300 698 c 0
 326 698 348 676 348 650 c 0
 348 624 326 602 300 602 c 0
 274 602 252 624 252 650 c 0
352 650 m 0
 352 676 374 698 400 698 c 0
 426 698 448 676 448 650 c 0
 448 624 426 602 400 602 c 0
 374 602 352 624 352 650 c 0
52 550 m 0
 52 576 74 598 100 598 c 0
 126 598 148 576 148 550 c 0
 148 524 126 502 100 502 c 0
 74 502 52 524 52 550 c 0
452 550 m 0
 452 576 474 598 500 598 c 0
 526 598 548 576 548 550 c 0
 548 524 526 502 500 502 c 0
 474 502 452 524 452 550 c 0
52 450 m 0
 52 476 74 498 100 498 c 0
 126 498 148 476 148 450 c 0
 148 424 126 402 100 402 c 0
 74 402 52 424 52 450 c 0
452 450 m 0
 452 476 474 498 500 498 c 0
 526 498 548 476 548 450 c 0
 548 424 526 402 500 402 c 0
 474 402 452 424 452 450 c 0
52 350 m 0
 52 376 74 398 100 398 c 0
 126 398 148 376 148 350 c 0
 148 324 126 302 100 302 c 0
 74 302 52 324 52 350 c 0
152 350 m 0
 152 376 174 398 200 398 c 0
 226 398 248 376 248 350 c 0
 248 324 226 302 200 302 c 0
 174 302 152 324 152 350 c 0
252 350 m 0
 252 376 274 398 300 398 c 0
 326 398 348 376 348 350 c 0
 348 324 326 302 300 302 c 0
 274 302 252 324 252 350 c 0
352 350 m 0
 352 376 374 398 400 398 c 0
 426 398 448 376 448 350 c 0
 448 324 426 302 400 302 c 0
 374 302 352 324 352 350 c 0
52 250 m 0
 52 276 74 298 100 298 c 0
 126 298 148 276 148 250 c 0
 148 224 126 202 100 202 c 0
 74 202 52 224 52 250 c 0
452 250 m 0
 452 276 474 298 500 298 c 0
 526 298 548 276 548 250 c 0
 548 224 526 202 500 202 c 0
 474 202 452 224 452 250 c 0
52 150 m 0
 52 176 74 198 100 198 c 0
 126 198 148 176 148 150 c 0
 148 124 126 102 100 102 c 0
 74 102 52 124 52 150 c 0
452 150 m 0
 452 176 474 198 500 198 c 0
 526 198 548 176 548 150 c 0
 548 124 526 102 500 102 c 0
 474 102 452 124 452 150 c 0
52 50 m 0
 52 76 74 98 100 98 c 0
 126 98 148 76 148 50 c 0
 148 24 126 2 100 2 c 0
 74 2 52 24 52 50 c 0
152 50 m 0
 152 76 174 98 200 98 c 0
 226 98 248 76 248 50 c 0
 248 24 226 2 200 2 c 0
 174 2 152 24 152 50 c 0
252 50 m 0
 252 76 274 98 300 98 c 0
 326 98 348 76 348 50 c 0
 348 24 326 2 300 2 c 0
 274 2 252 24 252 50 c 0
352 50 m 0
 352 76 374 98 400 98 c 0
 426 98 448 76 448 50 c 0
 448 24 426 2 400 2 c 0
 374 2 352 24 352 50 c 0
EndSplineSet
EndChar

StartChar: C
Encoding: 67 67 35
Width: 600
Flags: HMW
AnchorPoint: "marks_below" 300 0 basechar 0
AnchorPoint: "marks_above" 300 800 basechar 0
LayerCount: 2
Fore
SplineSet
152 650 m 0
 152 676 174 698 200 698 c 0
 226 698 248 676 248 650 c 0
 248 624 226 602 200 602 c 0
 174 602 152 624 152 650 c 0
252 650 m 0
 252 676 274 698 300 698 c 0
 326 698 348 676 348 650 c 0
 348 624 326 602 300 602 c 0
 274 602 252 624 252 650 c 0
352 650 m 0
 352 676 374 698 400 698 c 0
 426 698 448 676 448 650 c 0
 448 624 426 602 400 602 c 0
 374 602 352 624 352 650 c 0
52 550 m 0
 52 576 74 598 100 598 c 0
 126 598 148 576 148 550 c 0
 148 524 126 502 100 502 c 0
 74 502 52 524 52 550 c 0
452 550 m 0
 452 576 474 598 500 598 c 0
 526 598 548 576 548 550 c 0
 548 524 526 502 500 502 c 0
 474 502 452 524 452 550 c 0
52 450 m 0
 52 476 74 498 100 498 c 0
 126 498 148 476 148 450 c 0
 148 424 126 402 100 402 c 0
 74 402 52 424 52 450 c 0
52 350 m 0
 52 376 74 398 100 398 c 0
 126 398 148 376 148 350 c 0
 148 324 126 302 100 302 c 0
 74 302 52 324 52 350 c 0
52 250 m 0
 52 276 74 298 100 298 c 0
 126 298 148 276 148 250 c 0
 148 224 126 202 100 202 c 0
 74 202 52 224 52 250 c 0
52 150 m 0
 52 176 74 198 100 198 c 0
 126 198 148 176 148 150 c 0
 148 124 126 102 100 102 c 0
 74 102 52 124 52 150 c 0
452 150 m 0
 452 176 474 198 500 198 c 0
 526 198 548 176 548 150 c 0
 548 124 526 102 500 102 c 0
 474 102 452 124 452 150 c 0
152 50 m 0
 152 76 174 98 200 98 c 0
 226 98 248 76 248 50 c 0
 248 24 226 2 200 2 c 0
 174 2 152 24 152 50 c 0
252 50 m 0
 252 76 274 98 300 98 c 0
 326 98 348 76 348 50 c 0
 348 24 326 2 300 2 c 0
 274 2 252 24 252 50 c 0
352 50 m 0
 352 76 374 98 400 98 c 0
 426 98 448 76 448 50 c 0
 448 24 426 2 400 2 c 0
 374 2 352 24 352 50 c 0
EndSplineSet
EndChar

StartChar: D
Encoding: 68 68 36
Width: 600
Flags: HMW
AnchorPoint: "marks_below" 300 0 basechar 0
AnchorPoint: "marks_above" 300 800 basechar 0
LayerCount: 2
Fore
SplineSet
52 650 m 0
 52 676 74 698 100 698 c 0
 126 698 148 676 148 650 c 0
 148 624 126 602 100 602 c 0
 74 602 52 624 52 650 c 0
152 650 m 0
 152 676 174 698 200 698 c 0
 226 698 248 676 248 650 c 0
 248 624 226 602 200 602 c 0
 174 602 152 624 152 650 c 0
252 650 m 0
 252 676 274 698 300 698 c 0
 326 698 348 676 348 650 c 0
 348 624 326 602 300 602 c 0
 274 602 252 624 252 650 c 0
52 550 m 0
 52 576 74 598 100 598 c 0
 126 598 148 576 148 550 c 0
 148 524 126 502 100 502 c 0
 74 502 52 524 52 550 c 0
352 550 m 0
 352 576 374 598 400 598 c 0
 426 598 448 576 448 550 c 0
 448 524 426 502 400 502 c 0
 374 502 352 524 352 550 c 0
52 450 m 0
 52 476 74 498 100 498 c 0
 126 498 148 476 148 450 c 0
 148 424 126 402 100 402 c 0
 74 402 52 424 52 450 c 0
452 450 m 0
 452 476 474 498 500 498 c 0
 526 498 548 476 548 450 c 0
 548 424 526 402 500 402 c 0
 474 402 452 424 452 450 c 0
52 350 m 0
 52 376 74 398 100 398 c 0
 126 398 148 376 148 350 c 0
 148 324 126 302 100 302 c 0
 74 302 52 324 52 350 c 0
452 350 m 0
 452 376 474 398 500 398 c 0
 526 398 548 376 548 350 c 0
 548 324 526 302 500 302 c 0
 474 302 452 324 452 350 c 0
52 250 m 0
 52 276 74 298 100 298 c 0
 126 298 148 276 148 250 c 0
 148 224 126 202 100 202 c 0
 74 202 52 224 52 250 c 0
452 250 m 0
 452 276 474 298 500 298 c 0
 526 298 548 276 548 250 c 0
 548 224 526 202 500 202 c 0
 474 202 452 224 452 250 c 0
52 150 m 0
 52 176 74 198 100 198 c 0
 126 198 148 176 148 150 c 0
 148 124 126 102 100 102 c 0
 74 102 52 124 52 150 c 0
352 150 m 0
 352 176 374 198 400 198 c 0
 426 198 448 176 448 150 c 0
 448 124 426 102 400 102 c 0
 374 102 352 124 352 150 c 0
52 50 m 0
 52 76 74 98 100 98 c 0
 126 98 148 76 148 50 c 0
 148 24 126 2 100 2 c 0
 74 2 52 24 52 50 c 0
152 50 m 0
 152 76 174 98 200 98 c 0
 226 98 248 76 248 50 c 0
 248 24 226 2 200 2 c 0
 174 2 152 24 152 50 c 0
252 50 m 0
 252 76 274 98 300 98 c 0
 326 98 348 76 348 50 c 0
 348 24 326 2 300 2 c 0
 274 2 252 24 252 50 c 0
EndSplineSet
EndChar

StartChar: E
Encoding: 69 69 37
Width: 600
Flags: HMW
AnchorPoint: "ogonek" 400 0 basechar 0
AnchorPoint: "marks_below" 300 0 basechar 0
AnchorPoint: "marks_above" 300 800 basechar 0
LayerCount: 2
Fore
SplineSet
52 650 m 0
 52 676 74 698 100 698 c 0
 126 698 148 676 148 650 c 0
 148 624 126 602 100 602 c 0
 74 602 52 624 52 650 c 0
152 650 m 0
 152 676 174 698 200 698 c 0
 226 698 248 676 248 650 c 0
 248 624 226 602 200 602 c 0
 174 602 152 624 152 650 c 0
252 650 m 0
 252 676 274 698 300 698 c 0
 326 698 348 676 348 650 c 0
 348 624 326 602 300 602 c 0
 274 602 252 624 252 650 c 0
352 650 m 0
 352 676 374 698 400 698 c 0
 426 698 448 676 448 650 c 0
 448 624 426 602 400 602 c 0
 374 602 352 624 352 650 c 0
452 650 m 0
 452 676 474 698 500 698 c 0
 526 698 548 676 548 650 c 0
 548 624 526 602 500 602 c 0
 474 602 452 624 452 650 c 0
52 550 m 0
 52 576 74 598 100 598 c 0
 126 598 148 576 148 550 c 0
 148 524 126 502 100 502 c 0
 74 502 52 524 52 550 c 0
52 450 m 0
 52 476 74 498 100 498 c 0
 126 498 148 476 148 450 c 0
 148 424 126 402 100 402 c 0
 74 402 52 424 52 450 c 0
52 350 m 0
 52 376 74 398 100 398 c 0
 126 398 148 376 148 350 c 0
 148 324 126 302 100 302 c 0
 74 302 52 324 52 350 c 0
152 350 m 0
 152 376 174 398 200 398 c 0
 226 398 248 376 248 350 c 0
 248 324 226 302 200 302 c 0
 174 302 152 324 152 350 c 0
252 350 m 0
 252 376 274 398 300 398 c 0
 326 398 348 376 348 350 c 0
 348 324 326 302 300 302 c 0
 274 302 252 324 252 350 c 0
352 350 m 0
 352 376 374 398 400 398 c 0
 426 398 448 376 448 350 c 0
 448 324 426 302 400 302 c 0
 374 302 352 324 352 350 c 0
52 250 m 0
 52 276 74 298 100 298 c 0
 126 298 148 276 148 250 c 0
 148 224 126 202 100 202 c 0
 74 202 52 224 52 250 c 0
52 150 m 0
 52 176 74 198 100 198 c 0
 126 198 148 176 148 150 c 0
 148 124 126 102 100 102 c 0
 74 102 52 124 52 150 c 0
52 50 m 0
 52 76 74 98 100 98 c 0
 126 98 148 76 148 50 c 0
 148 24 126 2 100 2 c 0
 74 2 52 24 52 50 c 0
152 50 m 0
 152 76 174 98 200 98 c 0
 226 98 248 76 248 50 c 0
 248 24 226 2 200 2 c 0
 174 2 152 24 152 50 c 0
252 50 m 0
 252 76 274 98 300 98 c 0
 326 98 348 76 348 50 c 0
 348 24 326 2 300 2 c 0
 274 2 252 24 252 50 c 0
352 50 m 0
 352 76 374 98 400 98 c 0
 426 98 448 76 448 50 c 0
 448 24 426 2 400 2 c 0
 374 2 352 24 352 50 c 0
452 50 m 0
 452 76 474 98 500 98 c 0
 526 98 548 76 548 50 c 0
 548 24 526 2 500 2 c 0
 474 2 452 24 452 50 c 0
EndSplineSet
EndChar

StartChar: F
Encoding: 70 70 38
Width: 600
Flags: HMW
AnchorPoint: "marks_below" 300 0 basechar 0
AnchorPoint: "marks_above" 300 800 basechar 0
LayerCount: 2
Fore
SplineSet
52 650 m 0
 52 676 74 698 100 698 c 0
 126 698 148 676 148 650 c 0
 148 624 126 602 100 602 c 0
 74 602 52 624 52 650 c 0
152 650 m 0
 152 676 174 698 200 698 c 0
 226 698 248 676 248 650 c 0
 248 624 226 602 200 602 c 0
 174 602 152 624 152 650 c 0
252 650 m 0
 252 676 274 698 300 698 c 0
 326 698 348 676 348 650 c 0
 348 624 326 602 300 602 c 0
 274 602 252 624 252 650 c 0
352 650 m 0
 352 676 374 698 400 698 c 0
 426 698 448 676 448 650 c 0
 448 624 426 602 400 602 c 0
 374 602 352 624 352 650 c 0
452 650 m 0
 452 676 474 698 500 698 c 0
 526 698 548 676 548 650 c 0
 548 624 526 602 500 602 c 0
 474 602 452 624 452 650 c 0
52 550 m 0
 52 576 74 598 100 598 c 0
 126 598 148 576 148 550 c 0
 148 524 126 502 100 502 c 0
 74 502 52 524 52 550 c 0
52 450 m 0
 52 476 74 498 100 498 c 0
 126 498 148 476 148 450 c 0
 148 424 126 402 100 402 c 0
 74 402 52 424 52 450 c 0
52 350 m 0
 52 376 74 398 100 398 c 0
 126 398 148 376 148 350 c 0
 148 324 126 302 100 302 c 0
 74 302 52 324 52 350 c 0
152 350 m 0
 152 376 174 398 200 398 c 0
 226 398 248 376 248 350 c 0
 248 324 226 302 200 302 c 0
 174 302 152 324 152 350 c 0
252 350 m 0
 252 376 274 398 300 398 c 0
 326 398 348 376 348 350 c 0
 348 324 326 302 300 302 c 0
 274 302 252 324 252 350 c 0
352 350 m 0
 352 376 374 398 400 398 c 0
 426 398 448 376 448 350 c 0
 448 324 426 302 400 302 c 0
 374 302 352 324 352 350 c 0
52 250 m 0
 52 276 74 298 100 298 c 0
 126 298 148 276 148 250 c 0
 148 224 126 202 100 202 c 0
 74 202 52 224 52 250 c 0
52 150 m 0
 52 176 74 198 100 198 c 0
 126 198 148 176 148 150 c 0
 148 124 126 102 100 102 c 0
 74 102 52 124 52 150 c 0
52 50 m 0
 52 76 74 98 100 98 c 0
 126 98 148 76 148 50 c 0
 148 24 126 2 100 2 c 0
 74 2 52 24 52 50 c 0
EndSplineSet
EndChar

StartChar: G
Encoding: 71 71 39
Width: 600
Flags: HMW
AnchorPoint: "marks_below" 300 0 basechar 0
AnchorPoint: "marks_above" 300 800 basechar 0
LayerCount: 2
Fore
SplineSet
152 650 m 0
 152 676 174 698 200 698 c 0
 226 698 248 676 248 650 c 0
 248 624 226 602 200 602 c 0
 174 602 152 624 152 650 c 0
252 650 m 0
 252 676 274 698 300 698 c 0
 326 698 348 676 348 650 c 0
 348 624 326 602 300 602 c 0
 274 602 252 624 252 650 c 0
352 650 m 0
 352 676 374 698 400 698 c 0
 426 698 448 676 448 650 c 0
 448 624 426 602 400 602 c 0
 374 602 352 624 352 650 c 0
52 550 m 0
 52 576 74 598 100 598 c 0
 126 598 148 576 148 550 c 0
 148 524 126 502 100 502 c 0
 74 502 52 524 52 550 c 0
452 550 m 0
 452 576 474 598 500 598 c 0
 526 598 548 576 548 550 c 0
 548 524 526 502 500 502 c 0
 474 502 452 524 452 550 c 0
52 450 m 0
 52 476 74 498 100 498 c 0
 126 498 148 476 148 450 c 0
 148 424 126 402 100 402 c 0
 74 402 52 424 52 450 c 0
52 350 m 0
 52 376 74 398 100 398 c 0
 126 398 148 376 148 350 c 0
 148 324 126 302 100 302 c 0
 74 302 52 324 52 350 c 0
352 350 m 0
 352 376 374 398 400 398 c 0
 426 398 448 376 448 350 c 0
 448 324 426 302 400 302 c 0
 374 302 352 324 352 350 c 0
452 350 m 0
 452 376 474 398 500 398 c 0
 526 398 548 376 548 350 c 0
 548 324 526 302 500 302 c 0
 474 302 452 324 452 350 c 0
52 250 m 0
 52 276 74 298 100 298 c 0
 126 298 148 276 148 250 c 0
 148 224 126 202 100 202 c 0
 74 202 52 224 52 250 c 0
452 250 m 0
 452 276 474 298 500 298 c 0
 526 298 548 276 548 250 c 0
 548 224 526 202 500 202 c 0
 474 202 452 224 452 250 c 0
52 150 m 0
 52 176 74 198 100 198 c 0
 126 198 148 176 148 150 c 0
 148 124 126 102 100 102 c 0
 74 102 52 124 52 150 c 0
452 150 m 0
 452 176 474 198 500 198 c 0
 526 198 548 176 548 150 c 0
 548 124 526 102 500 102 c 0
 474 102 452 124 452 150 c 0
152 50 m 0
 152 76 174 98 200 98 c 0
 226 98 248 76 248 50 c 0
 248 24 226 2 200 2 c 0
 174 2 152 24 152 50 c 0
252 50 m 0
 252 76 274 98 300 98 c 0
 326 98 348 76 348 50 c 0
 348 24 326 2 300 2 c 0
 274 2 252 24 252 50 c 0
352 50 m 0
 352 76 374 98 400 98 c 0
 426 98 448 76 448 50 c 0
 448 24 426 2 400 2 c 0
 374 2 352 24 352 50 c 0
452 50 m 0
 452 76 474 98 500 98 c 0
 526 98 548 76 548 50 c 0
 548 24 526 2 500 2 c 0
 474 2 452 24 452 50 c 0
EndSplineSet
EndChar

StartChar: H
Encoding: 72 72 40
Width: 600
Flags: HMW
AnchorPoint: "marks_below" 300 0 basechar 0
AnchorPoint: "marks_above" 300 800 basechar 0
LayerCount: 2
Fore
SplineSet
52 650 m 0
 52 676 74 698 100 698 c 0
 126 698 148 676 148 650 c 0
 148 624 126 602 100 602 c 0
 74 602 52 624 52 650 c 0
452 650 m 0
 452 676 474 698 500 698 c 0
 526 698 548 676 548 650 c 0
 548 624 526 602 500 602 c 0
 474 602 452 624 452 650 c 0
52 550 m 0
 52 576 74 598 100 598 c 0
 126 598 148 576 148 550 c 0
 148 524 126 502 100 502 c 0
 74 502 52 524 52 550 c 0
452 550 m 0
 452 576 474 598 500 598 c 0
 526 598 548 576 548 550 c 0
 548 524 526 502 500 502 c 0
 474 502 452 524 452 550 c 0
52 450 m 0
 52 476 74 498 100 498 c 0
 126 498 148 476 148 450 c 0
 148 424 126 402 100 402 c 0
 74 402 52 424 52 450 c 0
452 450 m 0
 452 476 474 498 500 498 c 0
 526 498 548 476 548 450 c 0
 548 424 526 402 500 402 c 0
 474 402 452 424 452 450 c 0
52 350 m 0
 52 376 74 398 100 398 c 0
 126 398 148 376 148 350 c 0
 148 324 126 302 100 302 c 0
 74 302 52 324 52 350 c 0
152 350 m 0
 152 376 174 398 200 398 c 0
 226 398 248 376 248 350 c 0
 248 324 226 302 200 302 c 0
 174 302 152 324 152 350 c 0
252 350 m 0
 252 376 274 398 300 398 c 0
 326 398 348 376 348 350 c 0
 348 324 326 302 300 302 c 0
 274 302 252 324 252 350 c 0
352 350 m 0
 352 376 374 398 400 398 c 0
 426 398 448 376 448 350 c 0
 448 324 426 302 400 302 c 0
 374 302 352 324 352 350 c 0
452 350 m 0
 452 376 474 398 500 398 c 0
 526 398 548 376 548 350 c 0
 548 324 526 302 500 302 c 0
 474 302 452 324 452 350 c 0
52 250 m 0
 52 276 74 298 100 298 c 0
 126 298 148 276 148 250 c 0
 148 224 126 202 100 202 c 0
 74 202 52 224 52 250 c 0
452 250 m 0
 452 276 474 298 500 298 c 0
 526 298 548 276 548 250 c 0
 548 224 526 202 500 202 c 0
 474 202 452 224 452 250 c 0
52 150 m 0
 52 176 74 198 100 198 c 0
 126 198 148 176 148 150 c 0
 148 124 126 102 100 102 c 0
 74 102 52 124 52 150 c 0
452 150 m 0
 452 176 474 198 500 198 c 0
 526 198 548 176 548 150 c 0
 548 124 526 102 500 102 c 0
 474 102 452 124 452 150 c 0
52 50 m 0
 52 76 74 98 100 98 c 0
 126 98 148 76 148 50 c 0
 148 24 126 2 100 2 c 0
 74 2 52 24 52 50 c 0
452 50 m 0
 452 76 474 98 500 98 c 0
 526 98 548 76 548 50 c 0
 548 24 526 2 500 2 c 0
 474 2 452 24 452 50 c 0
EndSplineSet
EndChar

StartChar: I
Encoding: 73 73 41
Width: 400
Flags: HMW
AnchorPoint: "marks_below" 200 0 basechar 0
AnchorPoint: "ogonek" 200 0 basechar 0
AnchorPoint: "marks_above" 200 800 basechar 0
LayerCount: 2
Fore
SplineSet
52 650 m 0
 52 676 74 698 100 698 c 0
 126 698 148 676 148 650 c 0
 148 624 126 602 100 602 c 0
 74 602 52 624 52 650 c 0
152 650 m 0
 152 676 174 698 200 698 c 0
 226 698 248 676 248 650 c 0
 248 624 226 602 200 602 c 0
 174 602 152 624 152 650 c 0
252 650 m 0
 252 676 274 698 300 698 c 0
 326 698 348 676 348 650 c 0
 348 624 326 602 300 602 c 0
 274 602 252 624 252 650 c 0
152 550 m 0
 152 576 174 598 200 598 c 0
 226 598 248 576 248 550 c 0
 248 524 226 502 200 502 c 0
 174 502 152 524 152 550 c 0
152 450 m 0
 152 476 174 498 200 498 c 0
 226 498 248 476 248 450 c 0
 248 424 226 402 200 402 c 0
 174 402 152 424 152 450 c 0
152 350 m 0
 152 376 174 398 200 398 c 0
 226 398 248 376 248 350 c 0
 248 324 226 302 200 302 c 0
 174 302 152 324 152 350 c 0
152 250 m 0
 152 276 174 298 200 298 c 0
 226 298 248 276 248 250 c 0
 248 224 226 202 200 202 c 0
 174 202 152 224 152 250 c 0
152 150 m 0
 152 176 174 198 200 198 c 0
 226 198 248 176 248 150 c 0
 248 124 226 102 200 102 c 0
 174 102 152 124 152 150 c 0
52 50 m 0
 52 76 74 98 100 98 c 0
 126 98 148 76 148 50 c 0
 148 24 126 2 100 2 c 0
 74 2 52 24 52 50 c 0
152 50 m 0
 152 76 174 98 200 98 c 0
 226 98 248 76 248 50 c 0
 248 24 226 2 200 2 c 0
 174 2 152 24 152 50 c 0
252 50 m 0
 252 76 274 98 300 98 c 0
 326 98 348 76 348 50 c 0
 348 24 326 2 300 2 c 0
 274 2 252 24 252 50 c 0
EndSplineSet
EndChar

StartChar: J
Encoding: 74 74 42
Width: 600
Flags: HMW
AnchorPoint: "marks_above" 400 800 basechar 0
LayerCount: 2
Fore
SplineSet
252 650 m 0
 252 676 274 698 300 698 c 0
 326 698 348 676 348 650 c 0
 348 624 326 602 300 602 c 0
 274 602 252 624 252 650 c 0
352 650 m 0
 352 676 374 698 400 698 c 0
 426 698 448 676 448 650 c 0
 448 624 426 602 400 602 c 0
 374 602 352 624 352 650 c 0
452 650 m 0
 452 676 474 698 500 698 c 0
 526 698 548 676 548 650 c 0
 548 624 526 602 500 602 c 0
 474 602 452 624 452 650 c 0
352 550 m 0
 352 576 374 598 400 598 c 0
 426 598 448 576 448 550 c 0
 448 524 426 502 400 502 c 0
 374 502 352 524 352 550 c 0
352 450 m 0
 352 476 374 498 400 498 c 0
 426 498 448 476 448 450 c 0
 448 424 426 402 400 402 c 0
 374 402 352 424 352 450 c 0
352 350 m 0
 352 376 374 398 400 398 c 0
 426 398 448 376 448 350 c 0
 448 324 426 302 400 302 c 0
 374 302 352 324 352 350 c 0
352 250 m 0
 352 276 374 298 400 298 c 0
 426 298 448 276 448 250 c 0
 448 224 426 202 400 202 c 0
 374 202 352 224 352 250 c 0
52 150 m 0
 52 176 74 198 100 198 c 0
 126 198 148 176 148 150 c 0
 148 124 126 102 100 102 c 0
 74 102 52 124 52 150 c 0
352 150 m 0
 352 176 374 198 400 198 c 0
 426 198 448 176 448 150 c 0
 448 124 426 102 400 102 c 0
 374 102 352 124 352 150 c 0
152 50 m 0
 152 76 174 98 200 98 c 0
 226 98 248 76 248 50 c 0
 248 24 226 2 200 2 c 0
 174 2 152 24 152 50 c 0
252 50 m 0
 252 76 274 98 300 98 c 0
 326 98 348 76 348 50 c 0
 348 24 326 2 300 2 c 0
 274 2 252 24 252 50 c 0
EndSplineSet
EndChar

StartChar: K
Encoding: 75 75 43
Width: 600
Flags: HMW
AnchorPoint: "marks_below" 300 0 basechar 0
AnchorPoint: "marks_above" 300 800 basechar 0
LayerCount: 2
Fore
SplineSet
52 650 m 0
 52 676 74 698 100 698 c 0
 126 698 148 676 148 650 c 0
 148 624 126 602 100 602 c 0
 74 602 52 624 52 650 c 0
452 650 m 0
 452 676 474 698 500 698 c 0
 526 698 548 676 548 650 c 0
 548 624 526 602 500 602 c 0
 474 602 452 624 452 650 c 0
52 550 m 0
 52 576 74 598 100 598 c 0
 126 598 148 576 148 550 c 0
 148 524 126 502 100 502 c 0
 74 502 52 524 52 550 c 0
352 550 m 0
 352 576 374 598 400 598 c 0
 426 598 448 576 448 550 c 0
 448 524 426 502 400 502 c 0
 374 502 352 524 352 550 c 0
52 450 m 0
 52 476 74 498 100 498 c 0
 126 498 148 476 148 450 c 0
 148 424 126 402 100 402 c 0
 74 402 52 424 52 450 c 0
252 450 m 0
 252 476 274 498 300 498 c 0
 326 498 348 476 348 450 c 0
 348 424 326 402 300 402 c 0
 274 402 252 424 252 450 c 0
52 350 m 0
 52 376 74 398 100 398 c 0
 126 398 148 376 148 350 c 0
 148 324 126 302 100 302 c 0
 74 302 52 324 52 350 c 0
152 350 m 0
 152 376 174 398 200 398 c 0
 226 398 248 376 248 350 c 0
 248 324 226 302 200 302 c 0
 174 302 152 324 152 350 c 0
52 250 m 0
 52 276 74 298 100 298 c 0
 126 298 148 276 148 250 c 0
 148 224 126 202 100 202 c 0
 74 202 52 224 52 250 c 0
252 250 m 0
 252 276 274 298 300 298 c 0
 326 298 348 276 348 250 c 0
 348 224 326 202 300 202 c 0
 274 202 252 224 252 250 c 0
52 150 m 0
 52 176 74 198 100 198 c 0
 126 198 148 176 148 150 c 0
 148 124 126 102 100 102 c 0
 74 102 52 124 52 150 c 0
352 150 m 0
 352 176 374 198 400 198 c 0
 426 198 448 176 448 150 c 0
 448 124 426 102 400 102 c 0
 374 102 352 124 352 150 c 0
52 50 m 0
 52 76 74 98 100 98 c 0
 126 98 148 76 148 50 c 0
 148 24 126 2 100 2 c 0
 74 2 52 24 52 50 c 0
452 50 m 0
 452 76 474 98 500 98 c 0
 526 98 548 76 548 50 c 0
 548 24 526 2 500 2 c 0
 474 2 452 24 452 50 c 0
EndSplineSet
EndChar

StartChar: L
Encoding: 76 76 44
Width: 600
Flags: HMW
AnchorPoint: "marks_aboveright" 250 500 basechar 0
AnchorPoint: "marks_below" 300 0 basechar 0
AnchorPoint: "marks_above" 300 800 basechar 0
LayerCount: 2
Fore
SplineSet
52 650 m 0
 52 676 74 698 100 698 c 0
 126 698 148 676 148 650 c 0
 148 624 126 602 100 602 c 0
 74 602 52 624 52 650 c 0
52 550 m 0
 52 576 74 598 100 598 c 0
 126 598 148 576 148 550 c 0
 148 524 126 502 100 502 c 0
 74 502 52 524 52 550 c 0
52 450 m 0
 52 476 74 498 100 498 c 0
 126 498 148 476 148 450 c 0
 148 424 126 402 100 402 c 0
 74 402 52 424 52 450 c 0
52 350 m 0
 52 376 74 398 100 398 c 0
 126 398 148 376 148 350 c 0
 148 324 126 302 100 302 c 0
 74 302 52 324 52 350 c 0
52 250 m 0
 52 276 74 298 100 298 c 0
 126 298 148 276 148 250 c 0
 148 224 126 202 100 202 c 0
 74 202 52 224 52 250 c 0
52 150 m 0
 52 176 74 198 100 198 c 0
 126 198 148 176 148 150 c 0
 148 124 126 102 100 102 c 0
 74 102 52 124 52 150 c 0
52 50 m 0
 52 76 74 98 100 98 c 0
 126 98 148 76 148 50 c 0
 148 24 126 2 100 2 c 0
 74 2 52 24 52 50 c 0
152 50 m 0
 152 76 174 98 200 98 c 0
 226 98 248 76 248 50 c 0
 248 24 226 2 200 2 c 0
 174 2 152 24 152 50 c 0
252 50 m 0
 252 76 274 98 300 98 c 0
 326 98 348 76 348 50 c 0
 348 24 326 2 300 2 c 0
 274 2 252 24 252 50 c 0
352 50 m 0
 352 76 374 98 400 98 c 0
 426 98 448 76 448 50 c 0
 448 24 426 2 400 2 c 0
 374 2 352 24 352 50 c 0
452 50 m 0
 452 76 474 98 500 98 c 0
 526 98 548 76 548 50 c 0
 548 24 526 2 500 2 c 0
 474 2 452 24 452 50 c 0
EndSplineSet
EndChar

StartChar: M
Encoding: 77 77 45
Width: 600
Flags: HMW
AnchorPoint: "marks_below" 300 0 basechar 0
AnchorPoint: "marks_above" 300 800 basechar 0
LayerCount: 2
Fore
SplineSet
52 650 m 0
 52 676 74 698 100 698 c 0
 126 698 148 676 148 650 c 0
 148 624 126 602 100 602 c 0
 74 602 52 624 52 650 c 0
452 650 m 0
 452 676 474 698 500 698 c 0
 526 698 548 676 548 650 c 0
 548 624 526 602 500 602 c 0
 474 602 452 624 452 650 c 0
52 550 m 0
 52 576 74 598 100 598 c 0
 126 598 148 576 148 550 c 0
 148 524 126 502 100 502 c 0
 74 502 52 524 52 550 c 0
152 550 m 0
 152 576 174 598 200 598 c 0
 226 598 248 576 248 550 c 0
 248 524 226 502 200 502 c 0
 174 502 152 524 152 550 c 0
352 550 m 0
 352 576 374 598 400 598 c 0
 426 598 448 576 448 550 c 0
 448 524 426 502 400 502 c 0
 374 502 352 524 352 550 c 0
452 550 m 0
 452 576 474 598 500 598 c 0
 526 598 548 576 548 550 c 0
 548 524 526 502 500 502 c 0
 474 502 452 524 452 550 c 0
52 450 m 0
 52 476 74 498 100 498 c 0
 126 498 148 476 148 450 c 0
 148 424 126 402 100 402 c 0
 74 402 52 424 52 450 c 0
252 450 m 0
 252 476 274 498 300 498 c 0
 326 498 348 476 348 450 c 0
 348 424 326 402 300 402 c 0
 274 402 252 424 252 450 c 0
452 450 m 0
 452 476 474 498 500 498 c 0
 526 498 548 476 548 450 c 0
 548 424 526 402 500 402 c 0
 474 402 452 424 452 450 c 0
52 350 m 0
 52 376 74 398 100 398 c 0
 126 398 148 376 148 350 c 0
 148 324 126 302 100 302 c 0
 74 302 52 324 52 350 c 0
252 350 m 0
 252 376 274 398 300 398 c 0
 326 398 348 376 348 350 c 0
 348 324 326 302 300 302 c 0
 274 302 252 324 252 350 c 0
452 350 m 0
 452 376 474 398 500 398 c 0
 526 398 548 376 548 350 c 0
 548 324 526 302 500 302 c 0
 474 302 452 324 452 350 c 0
52 250 m 0
 52 276 74 298 100 298 c 0
 126 298 148 276 148 250 c 0
 148 224 126 202 100 202 c 0
 74 202 52 224 52 250 c 0
452 250 m 0
 452 276 474 298 500 298 c 0
 526 298 548 276 548 250 c 0
 548 224 526 202 500 202 c 0
 474 202 452 224 452 250 c 0
52 150 m 0
 52 176 74 198 100 198 c 0
 126 198 148 176 148 150 c 0
 148 124 126 102 100 102 c 0
 74 102 52 124 52 150 c 0
452 150 m 0
 452 176 474 198 500 198 c 0
 526 198 548 176 548 150 c 0
 548 124 526 102 500 102 c 0
 474 102 452 124 452 150 c 0
52 50 m 0
 52 76 74 98 100 98 c 0
 126 98 148 76 148 50 c 0
 148 24 126 2 100 2 c 0
 74 2 52 24 52 50 c 0
452 50 m 0
 452 76 474 98 500 98 c 0
 526 98 548 76 548 50 c 0
 548 24 526 2 500 2 c 0
 474 2 452 24 452 50 c 0
EndSplineSet
EndChar

StartChar: N
Encoding: 78 78 46
Width: 600
Flags: HMW
AnchorPoint: "marks_below" 300 0 basechar 0
AnchorPoint: "marks_above" 300 800 basechar 0
LayerCount: 2
Fore
SplineSet
52 650 m 0
 52 676 74 698 100 698 c 0
 126 698 148 676 148 650 c 0
 148 624 126 602 100 602 c 0
 74 602 52 624 52 650 c 0
452 650 m 0
 452 676 474 698 500 698 c 0
 526 698 548 676 548 650 c 0
 548 624 526 602 500 602 c 0
 474 602 452 624 452 650 c 0
52 550 m 0
 52 576 74 598 100 598 c 0
 126 598 148 576 148 550 c 0
 148 524 126 502 100 502 c 0
 74 502 52 524 52 550 c 0
452 550 m 0
 452 576 474 598 500 598 c 0
 526 598 548 576 548 550 c 0
 548 524 526 502 500 502 c 0
 474 502 452 524 452 550 c 0
52 450 m 0
 52 476 74 498 100 498 c 0
 126 498 148 476 148 450 c 0
 148 424 126 402 100 402 c 0
 74 402 52 424 52 450 c 0
152 450 m 0
 152 476 174 498 200 498 c 0
 226 498 248 476 248 450 c 0
 248 424 226 402 200 402 c 0
 174 402 152 424 152 450 c 0
452 450 m 0
 452 476 474 498 500 498 c 0
 526 498 548 476 548 450 c 0
 548 424 526 402 500 402 c 0
 474 402 452 424 452 450 c 0
52 350 m 0
 52 376 74 398 100 398 c 0
 126 398 148 376 148 350 c 0
 148 324 126 302 100 302 c 0
 74 302 52 324 52 350 c 0
252 350 m 0
 252 376 274 398 300 398 c 0
 326 398 348 376 348 350 c 0
 348 324 326 302 300 302 c 0
 274 302 252 324 252 350 c 0
452 350 m 0
 452 376 474 398 500 398 c 0
 526 398 548 376 548 350 c 0
 548 324 526 302 500 302 c 0
 474 302 452 324 452 350 c 0
52 250 m 0
 52 276 74 298 100 298 c 0
 126 298 148 276 148 250 c 0
 148 224 126 202 100 202 c 0
 74 202 52 224 52 250 c 0
352 250 m 0
 352 276 374 298 400 298 c 0
 426 298 448 276 448 250 c 0
 448 224 426 202 400 202 c 0
 374 202 352 224 352 250 c 0
452 250 m 0
 452 276 474 298 500 298 c 0
 526 298 548 276 548 250 c 0
 548 224 526 202 500 202 c 0
 474 202 452 224 452 250 c 0
52 150 m 0
 52 176 74 198 100 198 c 0
 126 198 148 176 148 150 c 0
 148 124 126 102 100 102 c 0
 74 102 52 124 52 150 c 0
452 150 m 0
 452 176 474 198 500 198 c 0
 526 198 548 176 548 150 c 0
 548 124 526 102 500 102 c 0
 474 102 452 124 452 150 c 0
52 50 m 0
 52 76 74 98 100 98 c 0
 126 98 148 76 148 50 c 0
 148 24 126 2 100 2 c 0
 74 2 52 24 52 50 c 0
452 50 m 0
 452 76 474 98 500 98 c 0
 526 98 548 76 548 50 c 0
 548 24 526 2 500 2 c 0
 474 2 452 24 452 50 c 0
EndSplineSet
EndChar

StartChar: O
Encoding: 79 79 47
Width: 600
Flags: HMW
AnchorPoint: "marks_below" 300 0 basechar 0
AnchorPoint: "marks_above" 300 800 basechar 0
LayerCount: 2
Fore
SplineSet
152 650 m 0
 152 676 174 698 200 698 c 0
 226 698 248 676 248 650 c 0
 248 624 226 602 200 602 c 0
 174 602 152 624 152 650 c 0
252 650 m 0
 252 676 274 698 300 698 c 0
 326 698 348 676 348 650 c 0
 348 624 326 602 300 602 c 0
 274 602 252 624 252 650 c 0
352 650 m 0
 352 676 374 698 400 698 c 0
 426 698 448 676 448 650 c 0
 448 624 426 602 400 602 c 0
 374 602 352 624 352 650 c 0
52 550 m 0
 52 576 74 598 100 598 c 0
 126 598 148 576 148 550 c 0
 148 524 126 502 100 502 c 0
 74 502 52 524 52 550 c 0
452 550 m 0
 452 576 474 598 500 598 c 0
 526 598 548 576 548 550 c 0
 548 524 526 502 500 502 c 0
 474 502 452 524 452 550 c 0
52 450 m 0
 52 476 74 498 100 498 c 0
 126 498 148 476 148 450 c 0
 148 424 126 402 100 402 c 0
 74 402 52 424 52 450 c 0
452 450 m 0
 452 476 474 498 500 498 c 0
 526 498 548 476 548 450 c 0
 548 424 526 402 500 402 c 0
 474 402 452 424 452 450 c 0
52 350 m 0
 52 376 74 398 100 398 c 0
 126 398 148 376 148 350 c 0
 148 324 126 302 100 302 c 0
 74 302 52 324 52 350 c 0
452 350 m 0
 452 376 474 398 500 398 c 0
 526 398 548 376 548 350 c 0
 548 324 526 302 500 302 c 0
 474 302 452 324 452 350 c 0
52 250 m 0
 52 276 74 298 100 298 c 0
 126 298 148 276 148 250 c 0
 148 224 126 202 100 202 c 0
 74 202 52 224 52 250 c 0
452 250 m 0
 452 276 474 298 500 298 c 0
 526 298 548 276 548 250 c 0
 548 224 526 202 500 202 c 0
 474 202 452 224 452 250 c 0
52 150 m 0
 52 176 74 198 100 198 c 0
 126 198 148 176 148 150 c 0
 148 124 126 102 100 102 c 0
 74 102 52 124 52 150 c 0
452 150 m 0
 452 176 474 198 500 198 c 0
 526 198 548 176 548 150 c 0
 548 124 526 102 500 102 c 0
 474 102 452 124 452 150 c 0
152 50 m 0
 152 76 174 98 200 98 c 0
 226 98 248 76 248 50 c 0
 248 24 226 2 200 2 c 0
 174 2 152 24 152 50 c 0
252 50 m 0
 252 76 274 98 300 98 c 0
 326 98 348 76 348 50 c 0
 348 24 326 2 300 2 c 0
 274 2 252 24 252 50 c 0
352 50 m 0
 352 76 374 98 400 98 c 0
 426 98 448 76 448 50 c 0
 448 24 426 2 400 2 c 0
 374 2 352 24 352 50 c 0
EndSplineSet
EndChar

StartChar: P
Encoding: 80 80 48
Width: 600
Flags: HMW
AnchorPoint: "marks_below" 300 0 basechar 0
AnchorPoint: "marks_above" 300 800 basechar 0
LayerCount: 2
Fore
SplineSet
52 650 m 0
 52 676 74 698 100 698 c 0
 126 698 148 676 148 650 c 0
 148 624 126 602 100 602 c 0
 74 602 52 624 52 650 c 0
152 650 m 0
 152 676 174 698 200 698 c 0
 226 698 248 676 248 650 c 0
 248 624 226 602 200 602 c 0
 174 602 152 624 152 650 c 0
252 650 m 0
 252 676 274 698 300 698 c 0
 326 698 348 676 348 650 c 0
 348 624 326 602 300 602 c 0
 274 602 252 624 252 650 c 0
352 650 m 0
 352 676 374 698 400 698 c 0
 426 698 448 676 448 650 c 0
 448 624 426 602 400 602 c 0
 374 602 352 624 352 650 c 0
52 550 m 0
 52 576 74 598 100 598 c 0
 126 598 148 576 148 550 c 0
 148 524 126 502 100 502 c 0
 74 502 52 524 52 550 c 0
452 550 m 0
 452 576 474 598 500 598 c 0
 526 598 548 576 548 550 c 0
 548 524 526 502 500 502 c 0
 474 502 452 524 452 550 c 0
52 450 m 0
 52 476 74 498 100 498 c 0
 126 498 148 476 148 450 c 0
 148 424 126 402 100 402 c 0
 74 402 52 424 52 450 c 0
452 450 m 0
 452 476 474 498 500 498 c 0
 526 498 548 476 548 450 c 0
 548 424 526 402 500 402 c 0
 474 402 452 424 452 450 c 0
52 350 m 0
 52 376 74 398 100 398 c 0
 126 398 148 376 148 350 c 0
 148 324 126 302 100 302 c 0
 74 302 52 324 52 350 c 0
152 350 m 0
 152 376 174 398 200 398 c 0
 226 398 248 376 248 350 c 0
 248 324 226 302 200 302 c 0
 174 302 152 324 152 350 c 0
252 350 m 0
 252 376 274 398 300 398 c 0
 326 398 348 376 348 350 c 0
 348 324 326 302 300 302 c 0
 274 302 252 324 252 350 c 0
352 350 m 0
 352 376 374 398 400 398 c 0
 426 398 448 376 448 350 c 0
 448 324 426 302 400 302 c 0
 374 302 352 324 352 350 c 0
52 250 m 0
 52 276 74 298 100 298 c 0
 126 298 148 276 148 250 c 0
 148 224 126 202 100 202 c 0
 74 202 52 224 52 250 c 0
52 150 m 0
 52 176 74 198 100 198 c 0
 126 198 148 176 148 150 c 0
 148 124 126 102 100 102 c 0
 74 102 52 124 52 150 c 0
52 50 m 0
 52 76 74 98 100 98 c 0
 126 98 148 76 148 50 c 0
 148 24 126 2 100 2 c 0
 74 2 52 24 52 50 c 0
EndSplineSet
EndChar

StartChar: Q
Encoding: 81 81 49
Width: 600
Flags: HMW
AnchorPoint: "marks_below" 300 0 basechar 0
AnchorPoint: "marks_above" 300 800 basechar 0
LayerCount: 2
Fore
SplineSet
152 650 m 0
 152 676 174 698 200 698 c 0
 226 698 248 676 248 650 c 0
 248 624 226 602 200 602 c 0
 174 602 152 624 152 650 c 0
252 650 m 0
 252 676 274 698 300 698 c 0
 326 698 348 676 348 650 c 0
 348 624 326 602 300 602 c 0
 274 602 252 624 252 650 c 0
352 650 m 0
 352 676 374 698 400 698 c 0
 426 698 448 676 448 650 c 0
 448 624 426 602 400 602 c 0
 374 602 352 624 352 650 c 0
52 550 m 0
 52 576 74 598 100 598 c 0
 126 598 148 576 148 550 c 0
 148 524 126 502 100 502 c 0
 74 502 52 524 52 550 c 0
452 550 m 0
 452 576 474 598 500 598 c 0
 526 598 548 576 548 550 c 0
 548 524 526 502 500 502 c 0
 474 502 452 524 452 550 c 0
52 450 m 0
 52 476 74 498 100 498 c 0
 126 498 148 476 148 450 c 0
 148 424 126 402 100 402 c 0
 74 402 52 424 52 450 c 0
452 450 m 0
 452 476 474 498 500 498 c 0
 526 498 548 476 548 450 c 0
 548 424 526 402 500 402 c 0
 474 402 452 424 452 450 c 0
52 350 m 0
 52 376 74 398 100 398 c 0
 126 398 148 376 148 350 c 0
 148 324 126 302 100 302 c 0
 74 302 52 324 52 350 c 0
452 350 m 0
 452 376 474 398 500 398 c 0
 526 398 548 376 548 350 c 0
 548 324 526 302 500 302 c 0
 474 302 452 324 452 350 c 0
52 250 m 0
 52 276 74 298 100 298 c 0
 126 298 148 276 148 250 c 0
 148 224 126 202 100 202 c 0
 74 202 52 224 52 250 c 0
252 250 m 0
 252 276 274 298 300 298 c 0
 326 298 348 276 348 250 c 0
 348 224 326 202 300 202 c 0
 274 202 252 224 252 250 c 0
452 250 m 0
 452 276 474 298 500 298 c 0
 526 298 548 276 548 250 c 0
 548 224 526 202 500 202 c 0
 474 202 452 224 452 250 c 0
52 150 m 0
 52 176 74 198 100 198 c 0
 126 198 148 176 148 150 c 0
 148 124 126 102 100 102 c 0
 74 102 52 124 52 150 c 0
352 150 m 0
 352 176 374 198 400 198 c 0
 426 198 448 176 448 150 c 0
 448 124 426 102 400 102 c 0
 374 102 352 124 352 150 c 0
152 50 m 0
 152 76 174 98 200 98 c 0
 226 98 248 76 248 50 c 0
 248 24 226 2 200 2 c 0
 174 2 152 24 152 50 c 0
252 50 m 0
 252 76 274 98 300 98 c 0
 326 98 348 76 348 50 c 0
 348 24 326 2 300 2 c 0
 274 2 252 24 252 50 c 0
452 50 m 0
 452 76 474 98 500 98 c 0
 526 98 548 76 548 50 c 0
 548 24 526 2 500 2 c 0
 474 2 452 24 452 50 c 0
EndSplineSet
EndChar

StartChar: R
Encoding: 82 82 50
Width: 600
Flags: HMW
AnchorPoint: "marks_below" 300 0 basechar 0
AnchorPoint: "marks_above" 300 800 basechar 0
LayerCount: 2
Fore
SplineSet
52 650 m 0
 52 676 74 698 100 698 c 0
 126 698 148 676 148 650 c 0
 148 624 126 602 100 602 c 0
 74 602 52 624 52 650 c 0
152 650 m 0
 152 676 174 698 200 698 c 0
 226 698 248 676 248 650 c 0
 248 624 226 602 200 602 c 0
 174 602 152 624 152 650 c 0
252 650 m 0
 252 676 274 698 300 698 c 0
 326 698 348 676 348 650 c 0
 348 624 326 602 300 602 c 0
 274 602 252 624 252 650 c 0
352 650 m 0
 352 676 374 698 400 698 c 0
 426 698 448 676 448 650 c 0
 448 624 426 602 400 602 c 0
 374 602 352 624 352 650 c 0
52 550 m 0
 52 576 74 598 100 598 c 0
 126 598 148 576 148 550 c 0
 148 524 126 502 100 502 c 0
 74 502 52 524 52 550 c 0
452 550 m 0
 452 576 474 598 500 598 c 0
 526 598 548 576 548 550 c 0
 548 524 526 502 500 502 c 0
 474 502 452 524 452 550 c 0
52 450 m 0
 52 476 74 498 100 498 c 0
 126 498 148 476 148 450 c 0
 148 424 126 402 100 402 c 0
 74 402 52 424 52 450 c 0
452 450 m 0
 452 476 474 498 500 498 c 0
 526 498 548 476 548 450 c 0
 548 424 526 402 500 402 c 0
 474 402 452 424 452 450 c 0
52 350 m 0
 52 376 74 398 100 398 c 0
 126 398 148 376 148 350 c 0
 148 324 126 302 100 302 c 0
 74 302 52 324 52 350 c 0
152 350 m 0
 152 376 174 398 200 398 c 0
 226 398 248 376 248 350 c 0
 248 324 226 302 200 302 c 0
 174 302 152 324 152 350 c 0
252 350 m 0
 252 376 274 398 300 398 c 0
 326 398 348 376 348 350 c 0
 348 324 326 302 300 302 c 0
 274 302 252 324 252 350 c 0
352 350 m 0
 352 376 374 398 400 398 c 0
 426 398 448 376 448 350 c 0
 448 324 426 302 400 302 c 0
 374 302 352 324 352 350 c 0
52 250 m 0
 52 276 74 298 100 298 c 0
 126 298 148 276 148 250 c 0
 148 224 126 202 100 202 c 0
 74 202 52 224 52 250 c 0
252 250 m 0
 252 276 274 298 300 298 c 0
 326 298 348 276 348 250 c 0
 348 224 326 202 300 202 c 0
 274 202 252 224 252 250 c 0
52 150 m 0
 52 176 74 198 100 198 c 0
 126 198 148 176 148 150 c 0
 148 124 126 102 100 102 c 0
 74 102 52 124 52 150 c 0
352 150 m 0
 352 176 374 198 400 198 c 0
 426 198 448 176 448 150 c 0
 448 124 426 102 400 102 c 0
 374 102 352 124 352 150 c 0
52 50 m 0
 52 76 74 98 100 98 c 0
 126 98 148 76 148 50 c 0
 148 24 126 2 100 2 c 0
 74 2 52 24 52 50 c 0
452 50 m 0
 452 76 474 98 500 98 c 0
 526 98 548 76 548 50 c 0
 548 24 526 2 500 2 c 0
 474 2 452 24 452 50 c 0
EndSplineSet
EndChar

StartChar: S
Encoding: 83 83 51
Width: 600
Flags: HMW
AnchorPoint: "marks_below" 300 0 basechar 0
AnchorPoint: "marks_above" 300 800 basechar 0
LayerCount: 2
Fore
SplineSet
152 650 m 0
 152 676 174 698 200 698 c 0
 226 698 248 676 248 650 c 0
 248 624 226 602 200 602 c 0
 174 602 152 624 152 650 c 0
252 650 m 0
 252 676 274 698 300 698 c 0
 326 698 348 676 348 650 c 0
 348 624 326 602 300 602 c 0
 274 602 252 624 252 650 c 0
352 650 m 0
 352 676 374 698 400 698 c 0
 426 698 448 676 448 650 c 0
 448 624 426 602 400 602 c 0
 374 602 352 624 352 650 c 0
52 550 m 0
 52 576 74 598 100 598 c 0
 126 598 148 576 148 550 c 0
 148 524 126 502 100 502 c 0
 74 502 52 524 52 550 c 0
452 550 m 0
 452 576 474 598 500 598 c 0
 526 598 548 576 548 550 c 0
 548 524 526 502 500 502 c 0
 474 502 452 524 452 550 c 0
52 450 m 0
 52 476 74 498 100 498 c 0
 126 498 148 476 148 450 c 0
 148 424 126 402 100 402 c 0
 74 402 52 424 52 450 c 0
152 350 m 0
 152 376 174 398 200 398 c 0
 226 398 248 376 248 350 c 0
 248 324 226 302 200 302 c 0
 174 302 152 324 152 350 c 0
252 350 m 0
 252 376 274 398 300 398 c 0
 326 398 348 376 348 350 c 0
 348 324 326 302 300 302 c 0
 274 302 252 324 252 350 c 0
352 350 m 0
 352 376 374 398 400 398 c 0
 426 398 448 376 448 350 c 0
 448 324 426 302 400 302 c 0
 374 302 352 324 352 350 c 0
452 250 m 0
 452 276 474 298 500 298 c 0
 526 298 548 276 548 250 c 0
 548 224 526 202 500 202 c 0
 474 202 452 224 452 250 c 0
52 150 m 0
 52 176 74 198 100 198 c 0
 126 198 148 176 148 150 c 0
 148 124 126 102 100 102 c 0
 74 102 52 124 52 150 c 0
452 150 m 0
 452 176 474 198 500 198 c 0
 526 198 548 176 548 150 c 0
 548 124 526 102 500 102 c 0
 474 102 452 124 452 150 c 0
152 50 m 0
 152 76 174 98 200 98 c 0
 226 98 248 76 248 50 c 0
 248 24 226 2 200 2 c 0
 174 2 152 24 152 50 c 0
252 50 m 0
 252 76 274 98 300 98 c 0
 326 98 348 76 348 50 c 0
 348 24 326 2 300 2 c 0
 274 2 252 24 252 50 c 0
352 50 m 0
 352 76 374 98 400 98 c 0
 426 98 448 76 448 50 c 0
 448 24 426 2 400 2 c 0
 374 2 352 24 352 50 c 0
EndSplineSet
EndChar

StartChar: T
Encoding: 84 84 52
Width: 600
Flags: HMW
AnchorPoint: "marks_below" 300 0 basechar 0
AnchorPoint: "marks_above" 300 800 basechar 0
LayerCount: 2
Fore
SplineSet
52 650 m 0
 52 676 74 698 100 698 c 0
 126 698 148 676 148 650 c 0
 148 624 126 602 100 602 c 0
 74 602 52 624 52 650 c 0
152 650 m 0
 152 676 174 698 200 698 c 0
 226 698 248 676 248 650 c 0
 248 624 226 602 200 602 c 0
 174 602 152 624 152 650 c 0
252 650 m 0
 252 676 274 698 300 698 c 0
 326 698 348 676 348 650 c 0
 348 624 326 602 300 602 c 0
 274 602 252 624 252 650 c 0
352 650 m 0
 352 676 374 698 400 698 c 0
 426 698 448 676 448 650 c 0
 448 624 426 602 400 602 c 0
 374 602 352 624 352 650 c 0
452 650 m 0
 452 676 474 698 500 698 c 0
 526 698 548 676 548 650 c 0
 548 624 526 602 500 602 c 0
 474 602 452 624 452 650 c 0
252 550 m 0
 252 576 274 598 300 598 c 0
 326 598 348 576 348 550 c 0
 348 524 326 502 300 502 c 0
 274 502 252 524 252 550 c 0
252 450 m 0
 252 476 274 498 300 498 c 0
 326 498 348 476 348 450 c 0
 348 424 326 402 300 402 c 0
 274 402 252 424 252 450 c 0
252 350 m 0
 252 376 274 398 300 398 c 0
 326 398 348 376 348 350 c 0
 348 324 326 302 300 302 c 0
 274 302 252 324 252 350 c 0
252 250 m 0
 252 276 274 298 300 298 c 0
 326 298 348 276 348 250 c 0
 348 224 326 202 300 202 c 0
 274 202 252 224 252 250 c 0
252 150 m 0
 252 176 274 198 300 198 c 0
 326 198 348 176 348 150 c 0
 348 124 326 102 300 102 c 0
 274 102 252 124 252 150 c 0
252 50 m 0
 252 76 274 98 300 98 c 0
 326 98 348 76 348 50 c 0
 348 24 326 2 300 2 c 0
 274 2 252 24 252 50 c 0
EndSplineSet
EndChar

StartChar: U
Encoding: 85 85 53
Width: 600
Flags: HMW
AnchorPoint: "ogonek" 300 0 basechar 0
AnchorPoint: "marks_below" 300 0 basechar 0
AnchorPoint: "marks_above" 300 800 basechar 0
LayerCount: 2
Fore
SplineSet
52 650 m 0
 52 676 74 698 100 698 c 0
 126 698 148 676 148 650 c 0
 148 624 126 602 100 602 c 0
 74 602 52 624 52 650 c 0
452 650 m 0
 452 676 474 698 500 698 c 0
 526 698 548 676 548 650 c 0
 548 624 526 602 500 602 c 0
 474 602 452 624 452 650 c 0
52 550 m 0
 52 576 74 598 100 598 c 0
 126 598 148 576 148 550 c 0
 148 524 126 502 100 502 c 0
 74 502 52 524 52 550 c 0
452 550 m 0
 452 576 474 598 500 598 c 0
 526 598 548 576 548 550 c 0
 548 524 526 502 500 502 c 0
 474 502 452 524 452 550 c 0
52 450 m 0
 52 476 74 498 100 498 c 0
 126 498 148 476 148 450 c 0
 148 424 126 402 100 402 c 0
 74 402 52 424 52 450 c 0
452 450 m 0
 452 476 474 498 500 498 c 0
 526 498 548 476 548 450 c 0
 548 424 526 402 500 402 c 0
 474 402 452 424 452 450 c 0
52 350 m 0
 52 376 74 398 100 398 c 0
 126 398 148 376 148 350 c 0
 148 324 126 302 100 302 c 0
 74 302 52 324 52 350 c 0
452 350 m 0
 452 376 474 398 500 398 c 0
 526 398 548 376 548 350 c 0
 548 324 526 302 500 302 c 0
 474 302 452 324 452 350 c 0
52 250 m 0
 52 276 74 298 100 298 c 0
 126 298 148 276 148 250 c 0
 148 224 126 202 100 202 c 0
 74 202 52 224 52 250 c 0
452 250 m 0
 452 276 474 298 500 298 c 0
 526 298 548 276 548 250 c 0
 548 224 526 202 500 202 c 0
 474 202 452 224 452 250 c 0
52 150 m 0
 52 176 74 198 100 198 c 0
 126 198 148 176 148 150 c 0
 148 124 126 102 100 102 c 0
 74 102 52 124 52 150 c 0
452 150 m 0
 452 176 474 198 500 198 c 0
 526 198 548 176 548 150 c 0
 548 124 526 102 500 102 c 0
 474 102 452 124 452 150 c 0
152 50 m 0
 152 76 174 98 200 98 c 0
 226 98 248 76 248 50 c 0
 248 24 226 2 200 2 c 0
 174 2 152 24 152 50 c 0
252 50 m 0
 252 76 274 98 300 98 c 0
 326 98 348 76 348 50 c 0
 348 24 326 2 300 2 c 0
 274 2 252 24 252 50 c 0
352 50 m 0
 352 76 374 98 400 98 c 0
 426 98 448 76 448 50 c 0
 448 24 426 2 400 2 c 0
 374 2 352 24 352 50 c 0
EndSplineSet
EndChar

StartChar: V
Encoding: 86 86 54
Width: 600
Flags: HMW
AnchorPoint: "marks_below" 300 0 basechar 0
AnchorPoint: "marks_above" 300 800 basechar 0
LayerCount: 2
Fore
SplineSet
52 650 m 0
 52 676 74 698 100 698 c 0
 126 698 148 676 148 650 c 0
 148 624 126 602 100 602 c 0
 74 602 52 624 52 650 c 0
452 650 m 0
 452 676 474 698 500 698 c 0
 526 698 548 676 548 650 c 0
 548 624 526 602 500 602 c 0
 474 602 452 624 452 650 c 0
52 550 m 0
 52 576 74 598 100 598 c 0
 126 598 148 576 148 550 c 0
 148 524 126 502 100 502 c 0
 74 502 52 524 52 550 c 0
452 550 m 0
 452 576 474 598 500 598 c 0
 526 598 548 576 548 550 c 0
 548 524 526 502 500 502 c 0
 474 502 452 524 452 550 c 0
52 450 m 0
 52 476 74 498 100 498 c 0
 126 498 148 476 148 450 c 0
 148 424 126 402 100 402 c 0
 74 402 52 424 52 450 c 0
452 450 m 0
 452 476 474 498 500 498 c 0
 526 498 548 476 548 450 c 0
 548 424 526 402 500 402 c 0
 474 402 452 424 452 450 c 0
52 350 m 0
 52 376 74 398 100 398 c 0
 126 398 148 376 148 350 c 0
 148 324 126 302 100 302 c 0
 74 302 52 324 52 350 c 0
452 350 m 0
 452 376 474 398 500 398 c 0
 526 398 548 376 548 350 c 0
 548 324 526 302 500 302 c 0
 474 302 452 324 452 350 c 0
52 250 m 0
 52 276 74 298 100 298 c 0
 126 298 148 276 148 250 c 0
 148 224 126 202 100 202 c 0
 74 202 52 224 52 250 c 0
452 250 m 0
 452 276 474 298 500 298 c 0
 526 298 548 276 548 250 c 0
 548 224 526 202 500 202 c 0
 474 202 452 224 452 250 c 0
152 150 m 0
 152 176 174 198 200 198 c 0
 226 198 248 176 248 150 c 0
 248 124 226 102 200 102 c 0
 174 102 152 124 152 150 c 0
352 150 m 0
 352 176 374 198 400 198 c 0
 426 198 448 176 448 150 c 0
 448 124 426 102 400 102 c 0
 374 102 352 124 352 150 c 0
252 50 m 0
 252 76 274 98 300 98 c 0
 326 98 348 76 348 50 c 0
 348 24 326 2 300 2 c 0
 274 2 252 24 252 50 c 0
EndSplineSet
EndChar

StartChar: W
Encoding: 87 87 55
Width: 600
Flags: HMW
AnchorPoint: "marks_below" 300 0 basechar 0
AnchorPoint: "marks_above" 300 800 basechar 0
LayerCount: 2
Fore
SplineSet
52 650 m 0
 52 676 74 698 100 698 c 0
 126 698 148 676 148 650 c 0
 148 624 126 602 100 602 c 0
 74 602 52 624 52 650 c 0
452 650 m 0
 452 676 474 698 500 698 c 0
 526 698 548 676 548 650 c 0
 548 624 526 602 500 602 c 0
 474 602 452 624 452 650 c 0
52 550 m 0
 52 576 74 598 100 598 c 0
 126 598 148 576 148 550 c 0
 148 524 126 502 100 502 c 0
 74 502 52 524 52 550 c 0
452 550 m 0
 452 576 474 598 500 598 c 0
 526 598 548 576 548 550 c 0
 548 524 526 502 500 502 c 0
 474 502 452 524 452 550 c 0
52 450 m 0
 52 476 74 498 100 498 c 0
 126 498 148 476 148 450 c 0
 148 424 126 402 100 402 c 0
 74 402 52 424 52 450 c 0
452 450 m 0
 452 476 474 498 500 498 c 0
 526 498 548 476 548 450 c 0
 548 424 526 402 500 402 c 0
 474 402 452 424 452 450 c 0
52 350 m 0
 52 376 74 398 100 398 c 0
 126 398 148 376 148 350 c 0
 148 324 126 302 100 302 c 0
 74 302 52 324 52 350 c 0
252 350 m 0
 252 376 274 398 300 398 c 0
 326 398 348 376 348 350 c 0
 348 324 326 302 300 302 c 0
 274 302 252 324 252 350 c 0
452 350 m 0
 452 376 474 398 500 398 c 0
 526 398 548 376 548 350 c 0
 548 324 526 302 500 302 c 0
 474 302 452 324 452 350 c 0
52 250 m 0
 52 276 74 298 100 298 c 0
 126 298 148 276 148 250 c 0
 148 224 126 202 100 202 c 0
 74 202 52 224 52 250 c 0
252 250 m 0
 252 276 274 298 300 298 c 0
 326 298 348 276 348 250 c 0
 348 224 326 202 300 202 c 0
 274 202 252 224 252 250 c 0
452 250 m 0
 452 276 474 298 500 298 c 0
 526 298 548 276 548 250 c 0
 548 224 526 202 500 202 c 0
 474 202 452 224 452 250 c 0
52 150 m 0
 52 176 74 198 100 198 c 0
 126 198 148 176 148 150 c 0
 148 124 126 102 100 102 c 0
 74 102 52 124 52 150 c 0
252 150 m 0
 252 176 274 198 300 198 c 0
 326 198 348 176 348 150 c 0
 348 124 326 102 300 102 c 0
 274 102 252 124 252 150 c 0
452 150 m 0
 452 176 474 198 500 198 c 0
 526 198 548 176 548 150 c 0
 548 124 526 102 500 102 c 0
 474 102 452 124 452 150 c 0
152 50 m 0
 152 76 174 98 200 98 c 0
 226 98 248 76 248 50 c 0
 248 24 226 2 200 2 c 0
 174 2 152 24 152 50 c 0
352 50 m 0
 352 76 374 98 400 98 c 0
 426 98 448 76 448 50 c 0
 448 24 426 2 400 2 c 0
 374 2 352 24 352 50 c 0
EndSplineSet
EndChar

StartChar: X
Encoding: 88 88 56
Width: 600
Flags: HMW
AnchorPoint: "marks_below" 300 0 basechar 0
AnchorPoint: "marks_above" 300 800 basechar 0
LayerCount: 2
Fore
SplineSet
52 650 m 0
 52 676 74 698 100 698 c 0
 126 698 148 676 148 650 c 0
 148 624 126 602 100 602 c 0
 74 602 52 624 52 650 c 0
452 650 m 0
 452 676 474 698 500 698 c 0
 526 698 548 676 548 650 c 0
 548 624 526 602 500 602 c 0
 474 602 452 624 452 650 c 0
52 550 m 0
 52 576 74 598 100 598 c 0
 126 598 148 576 148 550 c 0
 148 524 126 502 100 502 c 0
 74 502 52 524 52 550 c 0
452 550 m 0
 452 576 474 598 500 598 c 0
 526 598 548 576 548 550 c 0
 548 524 526 502 500 502 c 0
 474 502 452 524 452 550 c 0
152 450 m 0
 152 476 174 498 200 498 c 0
 226 498 248 476 248 450 c 0
 248 424 226 402 200 402 c 0
 174 402 152 424 152 450 c 0
352 450 m 0
 352 476 374 498 400 498 c 0
 426 498 448 476 448 450 c 0
 448 424 426 402 400 402 c 0
 374 402 352 424 352 450 c 0
252 350 m 0
 252 376 274 398 300 398 c 0
 326 398 348 376 348 350 c 0
 348 324 326 302 300 302 c 0
 274 302 252 324 252 350 c 0
152 250 m 0
 152 276 174 298 200 298 c 0
 226 298 248 276 248 250 c 0
 248 224 226 202 200 202 c 0
 174 202 152 224 152 250 c 0
352 250 m 0
 352 276 374 298 400 298 c 0
 426 298 448 276 448 250 c 0
 448 224 426 202 400 202 c 0
 374 202 352 224 352 250 c 0
52 150 m 0
 52 176 74 198 100 198 c 0
 126 198 148 176 148 150 c 0
 148 124 126 102 100 102 c 0
 74 102 52 124 52 150 c 0
452 150 m 0
 452 176 474 198 500 198 c 0
 526 198 548 176 548 150 c 0
 548 124 526 102 500 102 c 0
 474 102 452 124 452 150 c 0
52 50 m 0
 52 76 74 98 100 98 c 0
 126 98 148 76 148 50 c 0
 148 24 126 2 100 2 c 0
 74 2 52 24 52 50 c 0
452 50 m 0
 452 76 474 98 500 98 c 0
 526 98 548 76 548 50 c 0
 548 24 526 2 500 2 c 0
 474 2 452 24 452 50 c 0
EndSplineSet
EndChar

StartChar: Y
Encoding: 89 89 57
Width: 600
Flags: HMW
AnchorPoint: "marks_below" 300 0 basechar 0
AnchorPoint: "marks_above" 300 800 basechar 0
LayerCount: 2
Fore
SplineSet
52 650 m 0
 52 676 74 698 100 698 c 0
 126 698 148 676 148 650 c 0
 148 624 126 602 100 602 c 0
 74 602 52 624 52 650 c 0
452 650 m 0
 452 676 474 698 500 698 c 0
 526 698 548 676 548 650 c 0
 548 624 526 602 500 602 c 0
 474 602 452 624 452 650 c 0
52 550 m 0
 52 576 74 598 100 598 c 0
 126 598 148 576 148 550 c 0
 148 524 126 502 100 502 c 0
 74 502 52 524 52 550 c 0
452 550 m 0
 452 576 474 598 500 598 c 0
 526 598 548 576 548 550 c 0
 548 524 526 502 500 502 c 0
 474 502 452 524 452 550 c 0
152 450 m 0
 152 476 174 498 200 498 c 0
 226 498 248 476 248 450 c 0
 248 424 226 402 200 402 c 0
 174 402 152 424 152 450 c 0
352 450 m 0
 352 476 374 498 400 498 c 0
 426 498 448 476 448 450 c 0
 448 424 426 402 400 402 c 0
 374 402 352 424 352 450 c 0
252 350 m 0
 252 376 274 398 300 398 c 0
 326 398 348 376 348 350 c 0
 348 324 326 302 300 302 c 0
 274 302 252 324 252 350 c 0
252 250 m 0
 252 276 274 298 300 298 c 0
 326 298 348 276 348 250 c 0
 348 224 326 202 300 202 c 0
 274 202 252 224 252 250 c 0
252 150 m 0
 252 176 274 198 300 198 c 0
 326 198 348 176 348 150 c 0
 348 124 326 102 300 102 c 0
 274 102 252 124 252 150 c 0
252 50 m 0
 252 76 274 98 300 98 c 0
 326 98 348 76 348 50 c 0
 348 24 326 2 300 2 c 0
 274 2 252 24 252 50 c 0
EndSplineSet
EndChar

StartChar: Z
Encoding: 90 90 58
Width: 600
Flags: HMW
AnchorPoint: "marks_below" 300 0 basechar 0
AnchorPoint: "marks_above" 300 800 basechar 0
LayerCount: 2
Fore
SplineSet
52 650 m 0
 52 676 74 698 100 698 c 0
 126 698 148 676 148 650 c 0
 148 624 126 602 100 602 c 0
 74 602 52 624 52 650 c 0
152 650 m 0
 152 676 174 698 200 698 c 0
 226 698 248 676 248 650 c 0
 248 624 226 602 200 602 c 0
 174 602 152 624 152 650 c 0
252 650 m 0
 252 676 274 698 300 698 c 0
 326 698 348 676 348 650 c 0
 348 624 326 602 300 602 c 0
 274 602 252 624 252 650 c 0
352 650 m 0
 352 676 374 698 400 698 c 0
 426 698 448 676 448 650 c 0
 448 624 426 602 400 602 c 0
 374 602 352 624 352 650 c 0
452 650 m 0
 452 676 474 698 500 698 c 0
 526 698 548 676 548 650 c 0
 548 624 526 602 500 602 c 0
 474 602 452 624 452 650 c 0
452 550 m 0
 452 576 474 598 500 598 c 0
 526 598 548 576 548 550 c 0
 548 524 526 502 500 502 c 0
 474 502 452 524 452 550 c 0
352 450 m 0
 352 476 374 498 400 498 c 0
 426 498 448 476 448 450 c 0
 448 424 426 402 400 402 c 0
 374 402 352 424 352 450 c 0
252 350 m 0
 252 376 274 398 300 398 c 0
 326 398 348 376 348 350 c 0
 348 324 326 302 300 302 c 0
 274 302 252 324 252 350 c 0
152 250 m 0
 152 276 174 298 200 298 c 0
 226 298 248 276 248 250 c 0
 248 224 226 202 200 202 c 0
 174 202 152 224 152 250 c 0
52 150 m 0
 52 176 74 198 100 198 c 0
 126 198 148 176 148 150 c 0
 148 124 126 102 100 102 c 0
 74 102 52 124 52 150 c 0
52 50 m 0
 52 76 74 98 100 98 c 0
 126 98 148 76 148 50 c 0
 148 24 126 2 100 2 c 0
 74 2 52 24 52 50 c 0
152 50 m 0
 152 76 174 98 200 98 c 0
 226 98 248 76 248 50 c 0
 248 24 226 2 200 2 c 0
 174 2 152 24 152 50 c 0
252 50 m 0
 252 76 274 98 300 98 c 0
 326 98 348 76 348 50 c 0
 348 24 326 2 300 2 c 0
 274 2 252 24 252 50 c 0
352 50 m 0
 352 76 374 98 400 98 c 0
 426 98 448 76 448 50 c 0
 448 24 426 2 400 2 c 0
 374 2 352 24 352 50 c 0
452 50 m 0
 452 76 474 98 500 98 c 0
 526 98 548 76 548 50 c 0
 548 24 526 2 500 2 c 0
 474 2 452 24 452 50 c 0
EndSplineSet
EndChar

StartChar: bracketleft
Encoding: 91 91 59
Width: 400
Flags: HMW
LayerCount: 2
Fore
SplineSet
52 650 m 0
 52 676 74 698 100 698 c 0
 126 698 148 676 148 650 c 0
 148 624 126 602 100 602 c 0
 74 602 52 624 52 650 c 0
152 650 m 0
 152 676 174 698 200 698 c 0
 226 698 248 676 248 650 c 0
 248 624 226 602 200 602 c 0
 174 602 152 624 152 650 c 0
252 650 m 0
 252 676 274 698 300 698 c 0
 326 698 348 676 348 650 c 0
 348 624 326 602 300 602 c 0
 274 602 252 624 252 650 c 0
52 550 m 0
 52 576 74 598 100 598 c 0
 126 598 148 576 148 550 c 0
 148 524 126 502 100 502 c 0
 74 502 52 524 52 550 c 0
52 450 m 0
 52 476 74 498 100 498 c 0
 126 498 148 476 148 450 c 0
 148 424 126 402 100 402 c 0
 74 402 52 424 52 450 c 0
52 350 m 0
 52 376 74 398 100 398 c 0
 126 398 148 376 148 350 c 0
 148 324 126 302 100 302 c 0
 74 302 52 324 52 350 c 0
52 250 m 0
 52 276 74 298 100 298 c 0
 126 298 148 276 148 250 c 0
 148 224 126 202 100 202 c 0
 74 202 52 224 52 250 c 0
52 150 m 0
 52 176 74 198 100 198 c 0
 126 198 148 176 148 150 c 0
 148 124 126 102 100 102 c 0
 74 102 52 124 52 150 c 0
52 50 m 0
 52 76 74 98 100 98 c 0
 126 98 148 76 148 50 c 0
 148 24 126 2 100 2 c 0
 74 2 52 24 52 50 c 0
152 50 m 0
 152 76 174 98 200 98 c 0
 226 98 248 76 248 50 c 0
 248 24 226 2 200 2 c 0
 174 2 152 24 152 50 c 0
252 50 m 0
 252 76 274 98 300 98 c 0
 326 98 348 76 348 50 c 0
 348 24 326 2 300 2 c 0
 274 2 252 24 252 50 c 0
EndSplineSet
EndChar

StartChar: backslash
Encoding: 92 92 60
Width: 600
Flags: HMW
LayerCount: 2
Fore
SplineSet
52 550 m 0
 52 576 74 598 100 598 c 0
 126 598 148 576 148 550 c 0
 148 524 126 502 100 502 c 0
 74 502 52 524 52 550 c 0
152 450 m 0
 152 476 174 498 200 498 c 0
 226 498 248 476 248 450 c 0
 248 424 226 402 200 402 c 0
 174 402 152 424 152 450 c 0
252 350 m 0
 252 376 274 398 300 398 c 0
 326 398 348 376 348 350 c 0
 348 324 326 302 300 302 c 0
 274 302 252 324 252 350 c 0
352 250 m 0
 352 276 374 298 400 298 c 0
 426 298 448 276 448 250 c 0
 448 224 426 202 400 202 c 0
 374 202 352 224 352 250 c 0
452 150 m 0
 452 176 474 198 500 198 c 0
 526 198 548 176 548 150 c 0
 548 124 526 102 500 102 c 0
 474 102 452 124 452 150 c 0
EndSplineSet
EndChar

StartChar: bracketright
Encoding: 93 93 61
Width: 400
Flags: HMW
LayerCount: 2
Fore
SplineSet
52 650 m 0
 52 676 74 698 100 698 c 0
 126 698 148 676 148 650 c 0
 148 624 126 602 100 602 c 0
 74 602 52 624 52 650 c 0
152 650 m 0
 152 676 174 698 200 698 c 0
 226 698 248 676 248 650 c 0
 248 624 226 602 200 602 c 0
 174 602 152 624 152 650 c 0
252 650 m 0
 252 676 274 698 300 698 c 0
 326 698 348 676 348 650 c 0
 348 624 326 602 300 602 c 0
 274 602 252 624 252 650 c 0
252 550 m 0
 252 576 274 598 300 598 c 0
 326 598 348 576 348 550 c 0
 348 524 326 502 300 502 c 0
 274 502 252 524 252 550 c 0
252 450 m 0
 252 476 274 498 300 498 c 0
 326 498 348 476 348 450 c 0
 348 424 326 402 300 402 c 0
 274 402 252 424 252 450 c 0
252 350 m 0
 252 376 274 398 300 398 c 0
 326 398 348 376 348 350 c 0
 348 324 326 302 300 302 c 0
 274 302 252 324 252 350 c 0
252 250 m 0
 252 276 274 298 300 298 c 0
 326 298 348 276 348 250 c 0
 348 224 326 202 300 202 c 0
 274 202 252 224 252 250 c 0
252 150 m 0
 252 176 274 198 300 198 c 0
 326 198 348 176 348 150 c 0
 348 124 326 102 300 102 c 0
 274 102 252 124 252 150 c 0
52 50 m 0
 52 76 74 98 100 98 c 0
 126 98 148 76 148 50 c 0
 148 24 126 2 100 2 c 0
 74 2 52 24 52 50 c 0
152 50 m 0
 152 76 174 98 200 98 c 0
 226 98 248 76 248 50 c 0
 248 24 226 2 200 2 c 0
 174 2 152 24 152 50 c 0
252 50 m 0
 252 76 274 98 300 98 c 0
 326 98 348 76 348 50 c 0
 348 24 326 2 300 2 c 0
 274 2 252 24 252 50 c 0
EndSplineSet
EndChar

StartChar: asciicircum
Encoding: 94 94 62
Width: 600
Flags: HMW
LayerCount: 2
Fore
SplineSet
252 650 m 0
 252 676 274 698 300 698 c 0
 326 698 348 676 348 650 c 0
 348 624 326 602 300 602 c 0
 274 602 252 624 252 650 c 0
152 550 m 0
 152 576 174 598 200 598 c 0
 226 598 248 576 248 550 c 0
 248 524 226 502 200 502 c 0
 174 502 152 524 152 550 c 0
352 550 m 0
 352 576 374 598 400 598 c 0
 426 598 448 576 448 550 c 0
 448 524 426 502 400 502 c 0
 374 502 352 524 352 550 c 0
52 450 m 0
 52 476 74 498 100 498 c 0
 126 498 148 476 148 450 c 0
 148 424 126 402 100 402 c 0
 74 402 52 424 52 450 c 0
452 450 m 0
 452 476 474 498 500 498 c 0
 526 498 548 476 548 450 c 0
 548 424 526 402 500 402 c 0
 474 402 452 424 452 450 c 0
EndSplineSet
EndChar

StartChar: underscore
Encoding: 95 95 63
Width: 600
Flags: HMW
LayerCount: 2
Fore
SplineSet
2 -50 m 0
 2 -24 24 -2 50 -2 c 0
 76 -2 98 -24 98 -50 c 0
 98 -76 76 -98 50 -98 c 0
 24 -98 2 -76 2 -50 c 0
102 -50 m 0
 102 -24 124 -2 150 -2 c 0
 176 -2 198 -24 198 -50 c 0
 198 -76 176 -98 150 -98 c 0
 124 -98 102 -76 102 -50 c 0
202 -50 m 0
 202 -24 224 -2 250 -2 c 0
 276 -2 298 -24 298 -50 c 0
 298 -76 276 -98 250 -98 c 0
 224 -98 202 -76 202 -50 c 0
302 -50 m 0
 302 -24 324 -2 350 -2 c 0
 376 -2 398 -24 398 -50 c 0
 398 -76 376 -98 350 -98 c 0
 324 -98 302 -76 302 -50 c 0
402 -50 m 0
 402 -24 424 -2 450 -2 c 0
 476 -2 498 -24 498 -50 c 0
 498 -76 476 -98 450 -98 c 0
 424 -98 402 -76 402 -50 c 0
502 -50 m 0
 502 -24 524 -2 550 -2 c 0
 576 -2 598 -24 598 -50 c 0
 598 -76 576 -98 550 -98 c 0
 524 -98 502 -76 502 -50 c 0
EndSplineSet
EndChar

StartChar: grave
Encoding: 96 96 64
Width: 300
Flags: HMW
LayerCount: 2
Fore
SplineSet
52 650 m 0
 52 676 74 698 100 698 c 0
 126 698 148 676 148 650 c 0
 148 624 126 602 100 602 c 0
 74 602 52 624 52 650 c 0
152 550 m 0
 152 576 174 598 200 598 c 0
 226 598 248 576 248 550 c 0
 248 524 226 502 200 502 c 0
 174 502 152 524 152 550 c 0
EndSplineSet
EndChar

StartChar: a
Encoding: 97 97 65
Width: 600
Flags: HMW
AnchorPoint: "ogonek" 400 0 basechar 0
AnchorPoint: "marks_below" 300 0 basechar 0
AnchorPoint: "marks_above" 300 600 basechar 0
LayerCount: 2
Fore
SplineSet
152 450 m 0
 152 476 174 498 200 498 c 0
 226 498 248 476 248 450 c 0
 248 424 226 402 200 402 c 0
 174 402 152 424 152 450 c 0
252 450 m 0
 252 476 274 498 300 498 c 0
 326 498 348 476 348 450 c 0
 348 424 326 402 300 402 c 0
 274 402 252 424 252 450 c 0
352 450 m 0
 352 476 374 498 400 498 c 0
 426 498 448 476 448 450 c 0
 448 424 426 402 400 402 c 0
 374 402 352 424 352 450 c 0
452 350 m 0
 452 376 474 398 500 398 c 0
 526 398 548 376 548 350 c 0
 548 324 526 302 500 302 c 0
 474 302 452 324 452 350 c 0
152 250 m 0
 152 276 174 298 200 298 c 0
 226 298 248 276 248 250 c 0
 248 224 226 202 200 202 c 0
 174 202 152 224 152 250 c 0
252 250 m 0
 252 276 274 298 300 298 c 0
 326 298 348 276 348 250 c 0
 348 224 326 202 300 202 c 0
 274 202 252 224 252 250 c 0
352 250 m 0
 352 276 374 298 400 298 c 0
 426 298 448 276 448 250 c 0
 448 224 426 202 400 202 c 0
 374 202 352 224 352 250 c 0
452 250 m 0
 452 276 474 298 500 298 c 0
 526 298 548 276 548 250 c 0
 548 224 526 202 500 202 c 0
 474 202 452 224 452 250 c 0
52 150 m 0
 52 176 74 198 100 198 c 0
 126 198 148 176 148 150 c 0
 148 124 126 102 100 102 c 0
 74 102 52 124 52 150 c 0
452 150 m 0
 452 176 474 198 500 198 c 0
 526 198 548 176 548 150 c 0
 548 124 526 102 500 102 c 0
 474 102 452 124 452 150 c 0
152 50 m 0
 152 76 174 98 200 98 c 0
 226 98 248 76 248 50 c 0
 248 24 226 2 200 2 c 0
 174 2 152 24 152 50 c 0
252 50 m 0
 252 76 274 98 300 98 c 0
 326 98 348 76 348 50 c 0
 348 24 326 2 300 2 c 0
 274 2 252 24 252 50 c 0
352 50 m 0
 352 76 374 98 400 98 c 0
 426 98 448 76 448 50 c 0
 448 24 426 2 400 2 c 0
 374 2 352 24 352 50 c 0
452 50 m 0
 452 76 474 98 500 98 c 0
 526 98 548 76 548 50 c 0
 548 24 526 2 500 2 c 0
 474 2 452 24 452 50 c 0
EndSplineSet
EndChar

StartChar: b
Encoding: 98 98 66
Width: 600
Flags: HMW
AnchorPoint: "marks_below" 300 0 basechar 0
AnchorPoint: "marks_above" 300 800 basechar 0
LayerCount: 2
Fore
SplineSet
52 650 m 0
 52 676 74 698 100 698 c 0
 126 698 148 676 148 650 c 0
 148 624 126 602 100 602 c 0
 74 602 52 624 52 650 c 0
52 550 m 0
 52 576 74 598 100 598 c 0
 126 598 148 576 148 550 c 0
 148 524 126 502 100 502 c 0
 74 502 52 524 52 550 c 0
52 450 m 0
 52 476 74 498 100 498 c 0
 126 498 148 476 148 450 c 0
 148 424 126 402 100 402 c 0
 74 402 52 424 52 450 c 0
252 450 m 0
 252 476 274 498 300 498 c 0
 326 498 348 476 348 450 c 0
 348 424 326 402 300 402 c 0
 274 402 252 424 252 450 c 0
352 450 m 0
 352 476 374 498 400 498 c 0
 426 498 448 476 448 450 c 0
 448 424 426 402 400 402 c 0
 374 402 352 424 352 450 c 0
52 350 m 0
 52 376 74 398 100 398 c 0
 126 398 148 376 148 350 c 0
 148 324 126 302 100 302 c 0
 74 302 52 324 52 350 c 0
152 350 m 0
 152 376 174 398 200 398 c 0
 226 398 248 376 248 350 c 0
 248 324 226 302 200 302 c 0
 174 302 152 324 152 350 c 0
452 350 m 0
 452 376 474 398 500 398 c 0
 526 398 548 376 548 350 c 0
 548 324 526 302 500 302 c 0
 474 302 452 324 452 350 c 0
52 250 m 0
 52 276 74 298 100 298 c 0
 126 298 148 276 148 250 c 0
 148 224 126 202 100 202 c 0
 74 202 52 224 52 250 c 0
452 250 m 0
 452 276 474 298 500 298 c 0
 526 298 548 276 548 250 c 0
 548 224 526 202 500 202 c 0
 474 202 452 224 452 250 c 0
52 150 m 0
 52 176 74 198 100 198 c 0
 126 198 148 176 148 150 c 0
 148 124 126 102 100 102 c 0
 74 102 52 124 52 150 c 0
152 150 m 0
 152 176 174 198 200 198 c 0
 226 198 248 176 248 150 c 0
 248 124 226 102 200 102 c 0
 174 102 152 124 152 150 c 0
452 150 m 0
 452 176 474 198 500 198 c 0
 526 198 548 176 548 150 c 0
 548 124 526 102 500 102 c 0
 474 102 452 124 452 150 c 0
52 50 m 0
 52 76 74 98 100 98 c 0
 126 98 148 76 148 50 c 0
 148 24 126 2 100 2 c 0
 74 2 52 24 52 50 c 0
252 50 m 0
 252 76 274 98 300 98 c 0
 326 98 348 76 348 50 c 0
 348 24 326 2 300 2 c 0
 274 2 252 24 252 50 c 0
352 50 m 0
 352 76 374 98 400 98 c 0
 426 98 448 76 448 50 c 0
 448 24 426 2 400 2 c 0
 374 2 352 24 352 50 c 0
EndSplineSet
EndChar

StartChar: c
Encoding: 99 99 67
Width: 600
Flags: HMW
AnchorPoint: "marks_below" 300 0 basechar 0
AnchorPoint: "marks_above" 300 600 basechar 0
LayerCount: 2
Fore
SplineSet
152 450 m 0
 152 476 174 498 200 498 c 0
 226 498 248 476 248 450 c 0
 248 424 226 402 200 402 c 0
 174 402 152 424 152 450 c 0
252 450 m 0
 252 476 274 498 300 498 c 0
 326 498 348 476 348 450 c 0
 348 424 326 402 300 402 c 0
 274 402 252 424 252 450 c 0
352 450 m 0
 352 476 374 498 400 498 c 0
 426 498 448 476 448 450 c 0
 448 424 426 402 400 402 c 0
 374 402 352 424 352 450 c 0
52 350 m 0
 52 376 74 398 100 398 c 0
 126 398 148 376 148 350 c 0
 148 324 126 302 100 302 c 0
 74 302 52 324 52 350 c 0
452 350 m 0
 452 376 474 398 500 398 c 0
 526 398 548 376 548 350 c 0
 548 324 526 302 500 302 c 0
 474 302 452 324 452 350 c 0
52 250 m 0
 52 276 74 298 100 298 c 0
 126 298 148 276 148 250 c 0
 148 224 126 202 100 202 c 0
 74 202 52 224 52 250 c 0
52 150 m 0
 52 176 74 198 100 198 c 0
 126 198 148 176 148 150 c 0
 148 124 126 102 100 102 c 0
 74 102 52 124 52 150 c 0
452 150 m 0
 452 176 474 198 500 198 c 0
 526 198 548 176 548 150 c 0
 548 124 526 102 500 102 c 0
 474 102 452 124 452 150 c 0
152 50 m 0
 152 76 174 98 200 98 c 0
 226 98 248 76 248 50 c 0
 248 24 226 2 200 2 c 0
 174 2 152 24 152 50 c 0
252 50 m 0
 252 76 274 98 300 98 c 0
 326 98 348 76 348 50 c 0
 348 24 326 2 300 2 c 0
 274 2 252 24 252 50 c 0
352 50 m 0
 352 76 374 98 400 98 c 0
 426 98 448 76 448 50 c 0
 448 24 426 2 400 2 c 0
 374 2 352 24 352 50 c 0
EndSplineSet
EndChar

StartChar: d
Encoding: 100 100 68
Width: 600
Flags: HMW
AnchorPoint: "marks_aboveright" 650 500 basechar 0
AnchorPoint: "marks_below" 300 0 basechar 0
AnchorPoint: "marks_above" 300 800 basechar 0
LayerCount: 2
Fore
SplineSet
452 650 m 0
 452 676 474 698 500 698 c 0
 526 698 548 676 548 650 c 0
 548 624 526 602 500 602 c 0
 474 602 452 624 452 650 c 0
452 550 m 0
 452 576 474 598 500 598 c 0
 526 598 548 576 548 550 c 0
 548 524 526 502 500 502 c 0
 474 502 452 524 452 550 c 0
152 450 m 0
 152 476 174 498 200 498 c 0
 226 498 248 476 248 450 c 0
 248 424 226 402 200 402 c 0
 174 402 152 424 152 450 c 0
252 450 m 0
 252 476 274 498 300 498 c 0
 326 498 348 476 348 450 c 0
 348 424 326 402 300 402 c 0
 274 402 252 424 252 450 c 0
452 450 m 0
 452 476 474 498 500 498 c 0
 526 498 548 476 548 450 c 0
 548 424 526 402 500 402 c 0
 474 402 452 424 452 450 c 0
52 350 m 0
 52 376 74 398 100 398 c 0
 126 398 148 376 148 350 c 0
 148 324 126 302 100 302 c 0
 74 302 52 324 52 350 c 0
352 350 m 0
 352 376 374 398 400 398 c 0
 426 398 448 376 448 350 c 0
 448 324 426 302 400 302 c 0
 374 302 352 324 352 350 c 0
452 350 m 0
 452 376 474 398 500 398 c 0
 526 398 548 376 548 350 c 0
 548 324 526 302 500 302 c 0
 474 302 452 324 452 350 c 0
52 250 m 0
 52 276 74 298 100 298 c 0
 126 298 148 276 148 250 c 0
 148 224 126 202 100 202 c 0
 74 202 52 224 52 250 c 0
452 250 m 0
 452 276 474 298 500 298 c 0
 526 298 548 276 548 250 c 0
 548 224 526 202 500 202 c 0
 474 202 452 224 452 250 c 0
52 150 m 0
 52 176 74 198 100 198 c 0
 126 198 148 176 148 150 c 0
 148 124 126 102 100 102 c 0
 74 102 52 124 52 150 c 0
352 150 m 0
 352 176 374 198 400 198 c 0
 426 198 448 176 448 150 c 0
 448 124 426 102 400 102 c 0
 374 102 352 124 352 150 c 0
452 150 m 0
 452 176 474 198 500 198 c 0
 526 198 548 176 548 150 c 0
 548 124 526 102 500 102 c 0
 474 102 452 124 452 150 c 0
152 50 m 0
 152 76 174 98 200 98 c 0
 226 98 248 76 248 50 c 0
 248 24 226 2 200 2 c 0
 174 2 152 24 152 50 c 0
252 50 m 0
 252 76 274 98 300 98 c 0
 326 98 348 76 348 50 c 0
 348 24 326 2 300 2 c 0
 274 2 252 24 252 50 c 0
452 50 m 0
 452 76 474 98 500 98 c 0
 526 98 548 76 548 50 c 0
 548 24 526 2 500 2 c 0
 474 2 452 24 452 50 c 0
EndSplineSet
EndChar

StartChar: e
Encoding: 101 101 69
Width: 600
Flags: HMW
AnchorPoint: "ogonek" 400 0 basechar 0
AnchorPoint: "marks_below" 300 0 basechar 0
AnchorPoint: "marks_above" 300 600 basechar 0
LayerCount: 2
Fore
SplineSet
152 450 m 0
 152 476 174 498 200 498 c 0
 226 498 248 476 248 450 c 0
 248 424 226 402 200 402 c 0
 174 402 152 424 152 450 c 0
252 450 m 0
 252 476 274 498 300 498 c 0
 326 498 348 476 348 450 c 0
 348 424 326 402 300 402 c 0
 274 402 252 424 252 450 c 0
352 450 m 0
 352 476 374 498 400 498 c 0
 426 498 448 476 448 450 c 0
 448 424 426 402 400 402 c 0
 374 402 352 424 352 450 c 0
52 350 m 0
 52 376 74 398 100 398 c 0
 126 398 148 376 148 350 c 0
 148 324 126 302 100 302 c 0
 74 302 52 324 52 350 c 0
452 350 m 0
 452 376 474 398 500 398 c 0
 526 398 548 376 548 350 c 0
 548 324 526 302 500 302 c 0
 474 302 452 324 452 350 c 0
52 250 m 0
 52 276 74 298 100 298 c 0
 126 298 148 276 148 250 c 0
 148 224 126 202 100 202 c 0
 74 202 52 224 52 250 c 0
152 250 m 0
 152 276 174 298 200 298 c 0
 226 298 248 276 248 250 c 0
 248 224 226 202 200 202 c 0
 174 202 152 224 152 250 c 0
252 250 m 0
 252 276 274 298 300 298 c 0
 326 298 348 276 348 250 c 0
 348 224 326 202 300 202 c 0
 274 202 252 224 252 250 c 0
352 250 m 0
 352 276 374 298 400 298 c 0
 426 298 448 276 448 250 c 0
 448 224 426 202 400 202 c 0
 374 202 352 224 352 250 c 0
452 250 m 0
 452 276 474 298 500 298 c 0
 526 298 548 276 548 250 c 0
 548 224 526 202 500 202 c 0
 474 202 452 224 452 250 c 0
52 150 m 0
 52 176 74 198 100 198 c 0
 126 198 148 176 148 150 c 0
 148 124 126 102 100 102 c 0
 74 102 52 124 52 150 c 0
152 50 m 0
 152 76 174 98 200 98 c 0
 226 98 248 76 248 50 c 0
 248 24 226 2 200 2 c 0
 174 2 152 24 152 50 c 0
252 50 m 0
 252 76 274 98 300 98 c 0
 326 98 348 76 348 50 c 0
 348 24 326 2 300 2 c 0
 274 2 252 24 252 50 c 0
352 50 m 0
 352 76 374 98 400 98 c 0
 426 98 448 76 448 50 c 0
 448 24 426 2 400 2 c 0
 374 2 352 24 352 50 c 0
EndSplineSet
EndChar

StartChar: f
Encoding: 102 102 70
Width: 600
Flags: HMW
AnchorPoint: "marks_below" 300 0 basechar 0
AnchorPoint: "marks_above" 300 800 basechar 0
LayerCount: 2
Fore
SplineSet
252 650 m 0
 252 676 274 698 300 698 c 0
 326 698 348 676 348 650 c 0
 348 624 326 602 300 602 c 0
 274 602 252 624 252 650 c 0
352 650 m 0
 352 676 374 698 400 698 c 0
 426 698 448 676 448 650 c 0
 448 624 426 602 400 602 c 0
 374 602 352 624 352 650 c 0
152 550 m 0
 152 576 174 598 200 598 c 0
 226 598 248 576 248 550 c 0
 248 524 226 502 200 502 c 0
 174 502 152 524 152 550 c 0
452 550 m 0
 452 576 474 598 500 598 c 0
 526 598 548 576 548 550 c 0
 548 524 526 502 500 502 c 0
 474 502 452 524 452 550 c 0
152 450 m 0
 152 476 174 498 200 498 c 0
 226 498 248 476 248 450 c 0
 248 424 226 402 200 402 c 0
 174 402 152 424 152 450 c 0
52 350 m 0
 52 376 74 398 100 398 c 0
 126 398 148 376 148 350 c 0
 148 324 126 302 100 302 c 0
 74 302 52 324 52 350 c 0
152 350 m 0
 152 376 174 398 200 398 c 0
 226 398 248 376 248 350 c 0
 248 324 226 302 200 302 c 0
 174 302 152 324 152 350 c 0
252 350 m 0
 252 376 274 398 300 398 c 0
 326 398 348 376 348 350 c 0
 348 324 326 302 300 302 c 0
 274 302 252 324 252 350 c 0
352 350 m 0
 352 376 374 398 400 398 c 0
 426 398 448 376 448 350 c 0
 448 324 426 302 400 302 c 0
 374 302 352 324 352 350 c 0
152 250 m 0
 152 276 174 298 200 298 c 0
 226 298 248 276 248 250 c 0
 248 224 226 202 200 202 c 0
 174 202 152 224 152 250 c 0
152 150 m 0
 152 176 174 198 200 198 c 0
 226 198 248 176 248 150 c 0
 248 124 226 102 200 102 c 0
 174 102 152 124 152 150 c 0
152 50 m 0
 152 76 174 98 200 98 c 0
 226 98 248 76 248 50 c 0
 248 24 226 2 200 2 c 0
 174 2 152 24 152 50 c 0
EndSplineSet
EndChar

StartChar: g
Encoding: 103 103 71
Width: 600
Flags: HMW
AnchorPoint: "marks_above" 300 600 basechar 0
LayerCount: 2
Fore
SplineSet
152 450 m 0
 152 476 174 498 200 498 c 0
 226 498 248 476 248 450 c 0
 248 424 226 402 200 402 c 0
 174 402 152 424 152 450 c 0
252 450 m 0
 252 476 274 498 300 498 c 0
 326 498 348 476 348 450 c 0
 348 424 326 402 300 402 c 0
 274 402 252 424 252 450 c 0
452 450 m 0
 452 476 474 498 500 498 c 0
 526 498 548 476 548 450 c 0
 548 424 526 402 500 402 c 0
 474 402 452 424 452 450 c 0
52 350 m 0
 52 376 74 398 100 398 c 0
 126 398 148 376 148 350 c 0
 148 324 126 302 100 302 c 0
 74 302 52 324 52 350 c 0
352 350 m 0
 352 376 374 398 400 398 c 0
 426 398 448 376 448 350 c 0
 448 324 426 302 400 302 c 0
 374 302 352 324 352 350 c 0
452 350 m 0
 452 376 474 398 500 398 c 0
 526 398 548 376 548 350 c 0
 548 324 526 302 500 302 c 0
 474 302 452 324 452 350 c 0
52 250 m 0
 52 276 74 298 100 298 c 0
 126 298 148 276 148 250 c 0
 148 224 126 202 100 202 c 0
 74 202 52 224 52 250 c 0
452 250 m 0
 452 276 474 298 500 298 c 0
 526 298 548 276 548 250 c 0
 548 224 526 202 500 202 c 0
 474 202 452 224 452 250 c 0
52 150 m 0
 52 176 74 198 100 198 c 0
 126 198 148 176 148 150 c 0
 148 124 126 102 100 102 c 0
 74 102 52 124 52 150 c 0
352 150 m 0
 352 176 374 198 400 198 c 0
 426 198 448 176 448 150 c 0
 448 124 426 102 400 102 c 0
 374 102 352 124 352 150 c 0
452 150 m 0
 452 176 474 198 500 198 c 0
 526 198 548 176 548 150 c 0
 548 124 526 102 500 102 c 0
 474 102 452 124 452 150 c 0
152 50 m 0
 152 76 174 98 200 98 c 0
 226 98 248 76 248 50 c 0
 248 24 226 2 200 2 c 0
 174 2 152 24 152 50 c 0
252 50 m 0
 252 76 274 98 300 98 c 0
 326 98 348 76 348 50 c 0
 348 24 326 2 300 2 c 0
 274 2 252 24 252 50 c 0
452 50 m 0
 452 76 474 98 500 98 c 0
 526 98 548 76 548 50 c 0
 548 24 526 2 500 2 c 0
 474 2 452 24 452 50 c 0
452 -50 m 0
 452 -24 474 -2 500 -2 c 0
 526 -2 548 -24 548 -50 c 0
 548 -76 526 -98 500 -98 c 0
 474 -98 452 -76 452 -50 c 0
152 -150 m 0
 152 -124 174 -102 200 -102 c 0
 226 -102 248 -124 248 -150 c 0
 248 -176 226 -198 200 -198 c 0
 174 -198 152 -176 152 -150 c 0
252 -150 m 0
 252 -124 274 -102 300 -102 c 0
 326 -102 348 -124 348 -150 c 0
 348 -176 326 -198 300 -198 c 0
 274 -198 252 -176 252 -150 c 0
352 -150 m 0
 352 -124 374 -102 400 -102 c 0
 426 -102 448 -124 448 -150 c 0
 448 -176 426 -198 400 -198 c 0
 374 -198 352 -176 352 -150 c 0
EndSplineSet
EndChar

StartChar: h
Encoding: 104 104 72
Width: 600
Flags: HMW
AnchorPoint: "marks_below" 300 0 basechar 0
AnchorPoint: "marks_above" 300 800 basechar 0
LayerCount: 2
Fore
SplineSet
52 650 m 0
 52 676 74 698 100 698 c 0
 126 698 148 676 148 650 c 0
 148 624 126 602 100 602 c 0
 74 602 52 624 52 650 c 0
52 550 m 0
 52 576 74 598 100 598 c 0
 126 598 148 576 148 550 c 0
 148 524 126 502 100 502 c 0
 74 502 52 524 52 550 c 0
52 450 m 0
 52 476 74 498 100 498 c 0
 126 498 148 476 148 450 c 0
 148 424 126 402 100 402 c 0
 74 402 52 424 52 450 c 0
252 450 m 0
 252 476 274 498 300 498 c 0
 326 498 348 476 348 450 c 0
 348 424 326 402 300 402 c 0
 274 402 252 424 252 450 c 0
352 450 m 0
 352 476 374 498 400 498 c 0
 426 498 448 476 448 450 c 0
 448 424 426 402 400 402 c 0
 374 402 352 424 352 450 c 0
52 350 m 0
 52 376 74 398 100 398 c 0
 126 398 148 376 148 350 c 0
 148 324 126 302 100 302 c 0
 74 302 52 324 52 350 c 0
152 350 m 0
 152 376 174 398 200 398 c 0
 226 398 248 376 248 350 c 0
 248 324 226 302 200 302 c 0
 174 302 152 324 152 350 c 0
452 350 m 0
 452 376 474 398 500 398 c 0
 526 398 548 376 548 350 c 0
 548 324 526 302 500 302 c 0
 474 302 452 324 452 350 c 0
52 250 m 0
 52 276 74 298 100 298 c 0
 126 298 148 276 148 250 c 0
 148 224 126 202 100 202 c 0
 74 202 52 224 52 250 c 0
452 250 m 0
 452 276 474 298 500 298 c 0
 526 298 548 276 548 250 c 0
 548 224 526 202 500 202 c 0
 474 202 452 224 452 250 c 0
52 150 m 0
 52 176 74 198 100 198 c 0
 126 198 148 176 148 150 c 0
 148 124 126 102 100 102 c 0
 74 102 52 124 52 150 c 0
452 150 m 0
 452 176 474 198 500 198 c 0
 526 198 548 176 548 150 c 0
 548 124 526 102 500 102 c 0
 474 102 452 124 452 150 c 0
52 50 m 0
 52 76 74 98 100 98 c 0
 126 98 148 76 148 50 c 0
 148 24 126 2 100 2 c 0
 74 2 52 24 52 50 c 0
452 50 m 0
 452 76 474 98 500 98 c 0
 526 98 548 76 548 50 c 0
 548 24 526 2 500 2 c 0
 474 2 452 24 452 50 c 0
EndSplineSet
EndChar

StartChar: i
Encoding: 105 105 73
Width: 400
Flags: HMW
AnchorPoint: "marks_below" 200 0 basechar 0
AnchorPoint: "ogonek" 200 0 basechar 0
AnchorPoint: "marks_above" 200 800 basechar 0
LayerCount: 2
Fore
SplineSet
152 650 m 0
 152 676 174 698 200 698 c 0
 226 698 248 676 248 650 c 0
 248 624 226 602 200 602 c 0
 174 602 152 624 152 650 c 0
52 450 m 0
 52 476 74 498 100 498 c 0
 126 498 148 476 148 450 c 0
 148 424 126 402 100 402 c 0
 74 402 52 424 52 450 c 0
152 450 m 0
 152 476 174 498 200 498 c 0
 226 498 248 476 248 450 c 0
 248 424 226 402 200 402 c 0
 174 402 152 424 152 450 c 0
152 350 m 0
 152 376 174 398 200 398 c 0
 226 398 248 376 248 350 c 0
 248 324 226 302 200 302 c 0
 174 302 152 324 152 350 c 0
152 250 m 0
 152 276 174 298 200 298 c 0
 226 298 248 276 248 250 c 0
 248 224 226 202 200 202 c 0
 174 202 152 224 152 250 c 0
152 150 m 0
 152 176 174 198 200 198 c 0
 226 198 248 176 248 150 c 0
 248 124 226 102 200 102 c 0
 174 102 152 124 152 150 c 0
52 50 m 0
 52 76 74 98 100 98 c 0
 126 98 148 76 148 50 c 0
 148 24 126 2 100 2 c 0
 74 2 52 24 52 50 c 0
152 50 m 0
 152 76 174 98 200 98 c 0
 226 98 248 76 248 50 c 0
 248 24 226 2 200 2 c 0
 174 2 152 24 152 50 c 0
252 50 m 0
 252 76 274 98 300 98 c 0
 326 98 348 76 348 50 c 0
 348 24 326 2 300 2 c 0
 274 2 252 24 252 50 c 0
EndSplineSet
EndChar

StartChar: j
Encoding: 106 106 74
Width: 500
Flags: HMW
LayerCount: 2
Fore
SplineSet
352 650 m 0
 352 676 374 698 400 698 c 0
 426 698 448 676 448 650 c 0
 448 624 426 602 400 602 c 0
 374 602 352 624 352 650 c 0
252 450 m 0
 252 476 274 498 300 498 c 0
 326 498 348 476 348 450 c 0
 348 424 326 402 300 402 c 0
 274 402 252 424 252 450 c 0
352 450 m 0
 352 476 374 498 400 498 c 0
 426 498 448 476 448 450 c 0
 448 424 426 402 400 402 c 0
 374 402 352 424 352 450 c 0
352 350 m 0
 352 376 374 398 400 398 c 0
 426 398 448 376 448 350 c 0
 448 324 426 302 400 302 c 0
 374 302 352 324 352 350 c 0
352 250 m 0
 352 276 374 298 400 298 c 0
 426 298 448 276 448 250 c 0
 448 224 426 202 400 202 c 0
 374 202 352 224 352 250 c 0
352 150 m 0
 352 176 374 198 400 198 c 0
 426 198 448 176 448 150 c 0
 448 124 426 102 400 102 c 0
 374 102 352 124 352 150 c 0
352 50 m 0
 352 76 374 98 400 98 c 0
 426 98 448 76 448 50 c 0
 448 24 426 2 400 2 c 0
 374 2 352 24 352 50 c 0
52 -50 m 0
 52 -24 74 -2 100 -2 c 0
 126 -2 148 -24 148 -50 c 0
 148 -76 126 -98 100 -98 c 0
 74 -98 52 -76 52 -50 c 0
352 -50 m 0
 352 -24 374 -2 400 -2 c 0
 426 -2 448 -24 448 -50 c 0
 448 -76 426 -98 400 -98 c 0
 374 -98 352 -76 352 -50 c 0
152 -150 m 0
 152 -124 174 -102 200 -102 c 0
 226 -102 248 -124 248 -150 c 0
 248 -176 226 -198 200 -198 c 0
 174 -198 152 -176 152 -150 c 0
252 -150 m 0
 252 -124 274 -102 300 -102 c 0
 326 -102 348 -124 348 -150 c 0
 348 -176 326 -198 300 -198 c 0
 274 -198 252 -176 252 -150 c 0
EndSplineSet
EndChar

StartChar: k
Encoding: 107 107 75
Width: 600
Flags: HMW
AnchorPoint: "marks_below" 300 0 basechar 0
AnchorPoint: "marks_above" 300 800 basechar 0
LayerCount: 2
Fore
SplineSet
52 650 m 0
 52 676 74 698 100 698 c 0
 126 698 148 676 148 650 c 0
 148 624 126 602 100 602 c 0
 74 602 52 624 52 650 c 0
52 550 m 0
 52 576 74 598 100 598 c 0
 126 598 148 576 148 550 c 0
 148 524 126 502 100 502 c 0
 74 502 52 524 52 550 c 0
52 450 m 0
 52 476 74 498 100 498 c 0
 126 498 148 476 148 450 c 0
 148 424 126 402 100 402 c 0
 74 402 52 424 52 450 c 0
452 450 m 0
 452 476 474 498 500 498 c 0
 526 498 548 476 548 450 c 0
 548 424 526 402 500 402 c 0
 474 402 452 424 452 450 c 0
52 350 m 0
 52 376 74 398 100 398 c 0
 126 398 148 376 148 350 c 0
 148 324 126 302 100 302 c 0
 74 302 52 324 52 350 c 0
352 350 m 0
 352 376 374 398 400 398 c 0
 426 398 448 376 448 350 c 0
 448 324 426 302 400 302 c 0
 374 302 352 324 352 350 c 0
52 250 m 0
 52 276 74 298 100 298 c 0
 126 298 148 276 148 250 c 0
 148 224 126 202 100 202 c 0
 74 202 52 224 52 250 c 0
152 250 m 0
 152 276 174 298 200 298 c 0
 226 298 248 276 248 250 c 0
 248 224 226 202 200 202 c 0
 174 202 152 224 152 250 c 0
252 250 m 0
 252 276 274 298 300 298 c 0
 326 298 348 276 348 250 c 0
 348 224 326 202 300 202 c 0
 274 202 252 224 252 250 c 0
52 150 m 0
 52 176 74 198 100 198 c 0
 126 198 148 176 148 150 c 0
 148 124 126 102 100 102 c 0
 74 102 52 124 52 150 c 0
352 150 m 0
 352 176 374 198 400 198 c 0
 426 198 448 176 448 150 c 0
 448 124 426 102 400 102 c 0
 374 102 352 124 352 150 c 0
52 50 m 0
 52 76 74 98 100 98 c 0
 126 98 148 76 148 50 c 0
 148 24 126 2 100 2 c 0
 74 2 52 24 52 50 c 0
452 50 m 0
 452 76 474 98 500 98 c 0
 526 98 548 76 548 50 c 0
 548 24 526 2 500 2 c 0
 474 2 452 24 452 50 c 0
EndSplineSet
EndChar

StartChar: l
Encoding: 108 108 76
Width: 400
Flags: HMW
AnchorPoint: "marks_aboveright" 350 500 basechar 0
AnchorPoint: "marks_below" 200 0 basechar 0
AnchorPoint: "ogonek" 200 0 basechar 0
AnchorPoint: "marks_above" 200 800 basechar 0
LayerCount: 2
Fore
SplineSet
52 650 m 0
 52 676 74 698 100 698 c 0
 126 698 148 676 148 650 c 0
 148 624 126 602 100 602 c 0
 74 602 52 624 52 650 c 0
152 650 m 0
 152 676 174 698 200 698 c 0
 226 698 248 676 248 650 c 0
 248 624 226 602 200 602 c 0
 174 602 152 624 152 650 c 0
152 550 m 0
 152 576 174 598 200 598 c 0
 226 598 248 576 248 550 c 0
 248 524 226 502 200 502 c 0
 174 502 152 524 152 550 c 0
152 450 m 0
 152 476 174 498 200 498 c 0
 226 498 248 476 248 450 c 0
 248 424 226 402 200 402 c 0
 174 402 152 424 152 450 c 0
152 350 m 0
 152 376 174 398 200 398 c 0
 226 398 248 376 248 350 c 0
 248 324 226 302 200 302 c 0
 174 302 152 324 152 350 c 0
152 250 m 0
 152 276 174 298 200 298 c 0
 226 298 248 276 248 250 c 0
 248 224 226 202 200 202 c 0
 174 202 152 224 152 250 c 0
152 150 m 0
 152 176 174 198 200 198 c 0
 226 198 248 176 248 150 c 0
 248 124 226 102 200 102 c 0
 174 102 152 124 152 150 c 0
52 50 m 0
 52 76 74 98 100 98 c 0
 126 98 148 76 148 50 c 0
 148 24 126 2 100 2 c 0
 74 2 52 24 52 50 c 0
152 50 m 0
 152 76 174 98 200 98 c 0
 226 98 248 76 248 50 c 0
 248 24 226 2 200 2 c 0
 174 2 152 24 152 50 c 0
252 50 m 0
 252 76 274 98 300 98 c 0
 326 98 348 76 348 50 c 0
 348 24 326 2 300 2 c 0
 274 2 252 24 252 50 c 0
EndSplineSet
EndChar

StartChar: m
Encoding: 109 109 77
Width: 600
Flags: HMW
AnchorPoint: "marks_below" 300 0 basechar 0
AnchorPoint: "marks_above" 300 600 basechar 0
LayerCount: 2
Fore
SplineSet
52 450 m 0
 52 476 74 498 100 498 c 0
 126 498 148 476 148 450 c 0
 148 424 126 402 100 402 c 0
 74 402 52 424 52 450 c 0
152 450 m 0
 152 476 174 498 200 498 c 0
 226 498 248 476 248 450 c 0
 248 424 226 402 200 402 c 0
 174 402 152 424 152 450 c 0
352 450 m 0
 352 476 374 498 400 498 c 0
 426 498 448 476 448 450 c 0
 448 424 426 402 400 402 c 0
 374 402 352 424 352 450 c 0
52 350 m 0
 52 376 74 398 100 398 c 0
 126 398 148 376 148 350 c 0
 148 324 126 302 100 302 c 0
 74 302 52 324 52 350 c 0
252 350 m 0
 252 376 274 398 300 398 c 0
 326 398 348 376 348 350 c 0
 348 324 326 302 300 302 c 0
 274 302 252 324 252 350 c 0
452 350 m 0
 452 376 474 398 500 398 c 0
 526 398 548 376 548 350 c 0
 548 324 526 302 500 302 c 0
 474 302 452 324 452 350 c 0
52 250 m 0
 52 276 74 298 100 298 c 0
 126 298 148 276 148 250 c 0
 148 224 126 202 100 202 c 0
 74 202 52 224 52 250 c 0
252 250 m 0
 252 276 274 298 300 298 c 0
 326 298 348 276 348 250 c 0
 348 224 326 202 300 202 c 0
 274 202 252 224 252 250 c 0
452 250 m 0
 452 276 474 298 500 298 c 0
 526 298 548 276 548 250 c 0
 548 224 526 202 500 202 c 0
 474 202 452 224 452 250 c 0
52 150 m 0
 52 176 74 198 100 198 c 0
 126 198 148 176 148 150 c 0
 148 124 126 102 100 102 c 0
 74 102 52 124 52 150 c 0
252 150 m 0
 252 176 274 198 300 198 c 0
 326 198 348 176 348 150 c 0
 348 124 326 102 300 102 c 0
 274 102 252 124 252 150 c 0
452 150 m 0
 452 176 474 198 500 198 c 0
 526 198 548 176 548 150 c 0
 548 124 526 102 500 102 c 0
 474 102 452 124 452 150 c 0
52 50 m 0
 52 76 74 98 100 98 c 0
 126 98 148 76 148 50 c 0
 148 24 126 2 100 2 c 0
 74 2 52 24 52 50 c 0
452 50 m 0
 452 76 474 98 500 98 c 0
 526 98 548 76 548 50 c 0
 548 24 526 2 500 2 c 0
 474 2 452 24 452 50 c 0
EndSplineSet
EndChar

StartChar: n
Encoding: 110 110 78
Width: 600
Flags: HMW
AnchorPoint: "marks_below" 300 0 basechar 0
AnchorPoint: "marks_above" 300 600 basechar 0
LayerCount: 2
Fore
SplineSet
52 450 m 0
 52 476 74 498 100 498 c 0
 126 498 148 476 148 450 c 0
 148 424 126 402 100 402 c 0
 74 402 52 424 52 450 c 0
252 450 m 0
 252 476 274 498 300 498 c 0
 326 498 348 476 348 450 c 0
 348 424 326 402 300 402 c 0
 274 402 252 424 252 450 c 0
352 450 m 0
 352 476 374 498 400 498 c 0
 426 498 448 476 448 450 c 0
 448 424 426 402 400 402 c 0
 374 402 352 424 352 450 c 0
52 350 m 0
 52 376 74 398 100 398 c 0
 126 398 148 376 148 350 c 0
 148 324 126 302 100 302 c 0
 74 302 52 324 52 350 c 0
152 350 m 0
 152 376 174 398 200 398 c 0
 226 398 248 376 248 350 c 0
 248 324 226 302 200 302 c 0
 174 302 152 324 152 350 c 0
452 350 m 0
 452 376 474 398 500 398 c 0
 526 398 548 376 548 350 c 0
 548 324 526 302 500 302 c 0
 474 302 452 324 452 350 c 0
52 250 m 0
 52 276 74 298 100 298 c 0
 126 298 148 276 148 250 c 0
 148 224 126 202 100 202 c 0
 74 202 52 224 52 250 c 0
452 250 m 0
 452 276 474 298 500 298 c 0
 526 298 548 276 548 250 c 0
 548 224 526 202 500 202 c 0
 474 202 452 224 452 250 c 0
52 150 m 0
 52 176 74 198 100 198 c 0
 126 198 148 176 148 150 c 0
 148 124 126 102 100 102 c 0
 74 102 52 124 52 150 c 0
452 150 m 0
 452 176 474 198 500 198 c 0
 526 198 548 176 548 150 c 0
 548 124 526 102 500 102 c 0
 474 102 452 124 452 150 c 0
52 50 m 0
 52 76 74 98 100 98 c 0
 126 98 148 76 148 50 c 0
 148 24 126 2 100 2 c 0
 74 2 52 24 52 50 c 0
452 50 m 0
 452 76 474 98 500 98 c 0
 526 98 548 76 548 50 c 0
 548 24 526 2 500 2 c 0
 474 2 452 24 452 50 c 0
EndSplineSet
EndChar

StartChar: o
Encoding: 111 111 79
Width: 600
Flags: HMW
AnchorPoint: "marks_below" 300 0 basechar 0
AnchorPoint: "marks_above" 300 600 basechar 0
LayerCount: 2
Fore
SplineSet
152 450 m 0
 152 476 174 498 200 498 c 0
 226 498 248 476 248 450 c 0
 248 424 226 402 200 402 c 0
 174 402 152 424 152 450 c 0
252 450 m 0
 252 476 274 498 300 498 c 0
 326 498 348 476 348 450 c 0
 348 424 326 402 300 402 c 0
 274 402 252 424 252 450 c 0
352 450 m 0
 352 476 374 498 400 498 c 0
 426 498 448 476 448 450 c 0
 448 424 426 402 400 402 c 0
 374 402 352 424 352 450 c 0
52 350 m 0
 52 376 74 398 100 398 c 0
 126 398 148 376 148 350 c 0
 148 324 126 302 100 302 c 0
 74 302 52 324 52 350 c 0
452 350 m 0
 452 376 474 398 500 398 c 0
 526 398 548 376 548 350 c 0
 548 324 526 302 500 302 c 0
 474 302 452 324 452 350 c 0
52 250 m 0
 52 276 74 298 100 298 c 0
 126 298 148 276 148 250 c 0
 148 224 126 202 100 202 c 0
 74 202 52 224 52 250 c 0
452 250 m 0
 452 276 474 298 500 298 c 0
 526 298 548 276 548 250 c 0
 548 224 526 202 500 202 c 0
 474 202 452 224 452 250 c 0
52 150 m 0
 52 176 74 198 100 198 c 0
 126 198 148 176 148 150 c 0
 148 124 126 102 100 102 c 0
 74 102 52 124 52 150 c 0
452 150 m 0
 452 176 474 198 500 198 c 0
 526 198 548 176 548 150 c 0
 548 124 526 102 500 102 c 0
 474 102 452 124 452 150 c 0
152 50 m 0
 152 76 174 98 200 98 c 0
 226 98 248 76 248 50 c 0
 248 24 226 2 200 2 c 0
 174 2 152 24 152 50 c 0
252 50 m 0
 252 76 274 98 300 98 c 0
 326 98 348 76 348 50 c 0
 348 24 326 2 300 2 c 0
 274 2 252 24 252 50 c 0
352 50 m 0
 352 76 374 98 400 98 c 0
 426 98 448 76 448 50 c 0
 448 24 426 2 400 2 c 0
 374 2 352 24 352 50 c 0
EndSplineSet
EndChar

StartChar: p
Encoding: 112 112 80
Width: 600
Flags: HMW
AnchorPoint: "marks_above" 300 600 basechar 0
LayerCount: 2
Fore
SplineSet
52 450 m 0
 52 476 74 498 100 498 c 0
 126 498 148 476 148 450 c 0
 148 424 126 402 100 402 c 0
 74 402 52 424 52 450 c 0
252 450 m 0
 252 476 274 498 300 498 c 0
 326 498 348 476 348 450 c 0
 348 424 326 402 300 402 c 0
 274 402 252 424 252 450 c 0
352 450 m 0
 352 476 374 498 400 498 c 0
 426 498 448 476 448 450 c 0
 448 424 426 402 400 402 c 0
 374 402 352 424 352 450 c 0
52 350 m 0
 52 376 74 398 100 398 c 0
 126 398 148 376 148 350 c 0
 148 324 126 302 100 302 c 0
 74 302 52 324 52 350 c 0
152 350 m 0
 152 376 174 398 200 398 c 0
 226 398 248 376 248 350 c 0
 248 324 226 302 200 302 c 0
 174 302 152 324 152 350 c 0
452 350 m 0
 452 376 474 398 500 398 c 0
 526 398 548 376 548 350 c 0
 548 324 526 302 500 302 c 0
 474 302 452 324 452 350 c 0
52 250 m 0
 52 276 74 298 100 298 c 0
 126 298 148 276 148 250 c 0
 148 224 126 202 100 202 c 0
 74 202 52 224 52 250 c 0
452 250 m 0
 452 276 474 298 500 298 c 0
 526 298 548 276 548 250 c 0
 548 224 526 202 500 202 c 0
 474 202 452 224 452 250 c 0
52 150 m 0
 52 176 74 198 100 198 c 0
 126 198 148 176 148 150 c 0
 148 124 126 102 100 102 c 0
 74 102 52 124 52 150 c 0
152 150 m 0
 152 176 174 198 200 198 c 0
 226 198 248 176 248 150 c 0
 248 124 226 102 200 102 c 0
 174 102 152 124 152 150 c 0
452 150 m 0
 452 176 474 198 500 198 c 0
 526 198 548 176 548 150 c 0
 548 124 526 102 500 102 c 0
 474 102 452 124 452 150 c 0
52 50 m 0
 52 76 74 98 100 98 c 0
 126 98 148 76 148 50 c 0
 148 24 126 2 100 2 c 0
 74 2 52 24 52 50 c 0
252 50 m 0
 252 76 274 98 300 98 c 0
 326 98 348 76 348 50 c 0
 348 24 326 2 300 2 c 0
 274 2 252 24 252 50 c 0
352 50 m 0
 352 76 374 98 400 98 c 0
 426 98 448 76 448 50 c 0
 448 24 426 2 400 2 c 0
 374 2 352 24 352 50 c 0
52 -50 m 0
 52 -24 74 -2 100 -2 c 0
 126 -2 148 -24 148 -50 c 0
 148 -76 126 -98 100 -98 c 0
 74 -98 52 -76 52 -50 c 0
52 -150 m 0
 52 -124 74 -102 100 -102 c 0
 126 -102 148 -124 148 -150 c 0
 148 -176 126 -198 100 -198 c 0
 74 -198 52 -176 52 -150 c 0
EndSplineSet
EndChar

StartChar: q
Encoding: 113 113 81
Width: 600
Flags: HMW
AnchorPoint: "marks_above" 300 600 basechar 0
LayerCount: 2
Fore
SplineSet
152 450 m 0
 152 476 174 498 200 498 c 0
 226 498 248 476 248 450 c 0
 248 424 226 402 200 402 c 0
 174 402 152 424 152 450 c 0
252 450 m 0
 252 476 274 498 300 498 c 0
 326 498 348 476 348 450 c 0
 348 424 326 402 300 402 c 0
 274 402 252 424 252 450 c 0
452 450 m 0
 452 476 474 498 500 498 c 0
 526 498 548 476 548 450 c 0
 548 424 526 402 500 402 c 0
 474 402 452 424 452 450 c 0
52 350 m 0
 52 376 74 398 100 398 c 0
 126 398 148 376 148 350 c 0
 148 324 126 302 100 302 c 0
 74 302 52 324 52 350 c 0
352 350 m 0
 352 376 374 398 400 398 c 0
 426 398 448 376 448 350 c 0
 448 324 426 302 400 302 c 0
 374 302 352 324 352 350 c 0
452 350 m 0
 452 376 474 398 500 398 c 0
 526 398 548 376 548 350 c 0
 548 324 526 302 500 302 c 0
 474 302 452 324 452 350 c 0
52 250 m 0
 52 276 74 298 100 298 c 0
 126 298 148 276 148 250 c 0
 148 224 126 202 100 202 c 0
 74 202 52 224 52 250 c 0
452 250 m 0
 452 276 474 298 500 298 c 0
 526 298 548 276 548 250 c 0
 548 224 526 202 500 202 c 0
 474 202 452 224 452 250 c 0
52 150 m 0
 52 176 74 198 100 198 c 0
 126 198 148 176 148 150 c 0
 148 124 126 102 100 102 c 0
 74 102 52 124 52 150 c 0
352 150 m 0
 352 176 374 198 400 198 c 0
 426 198 448 176 448 150 c 0
 448 124 426 102 400 102 c 0
 374 102 352 124 352 150 c 0
452 150 m 0
 452 176 474 198 500 198 c 0
 526 198 548 176 548 150 c 0
 548 124 526 102 500 102 c 0
 474 102 452 124 452 150 c 0
152 50 m 0
 152 76 174 98 200 98 c 0
 226 98 248 76 248 50 c 0
 248 24 226 2 200 2 c 0
 174 2 152 24 152 50 c 0
252 50 m 0
 252 76 274 98 300 98 c 0
 326 98 348 76 348 50 c 0
 348 24 326 2 300 2 c 0
 274 2 252 24 252 50 c 0
452 50 m 0
 452 76 474 98 500 98 c 0
 526 98 548 76 548 50 c 0
 548 24 526 2 500 2 c 0
 474 2 452 24 452 50 c 0
452 -50 m 0
 452 -24 474 -2 500 -2 c 0
 526 -2 548 -24 548 -50 c 0
 548 -76 526 -98 500 -98 c 0
 474 -98 452 -76 452 -50 c 0
452 -150 m 0
 452 -124 474 -102 500 -102 c 0
 526 -102 548 -124 548 -150 c 0
 548 -176 526 -198 500 -198 c 0
 474 -198 452 -176 452 -150 c 0
EndSplineSet
EndChar

StartChar: r
Encoding: 114 114 82
Width: 600
Flags: HMW
AnchorPoint: "marks_below" 300 0 basechar 0
AnchorPoint: "marks_above" 300 600 basechar 0
LayerCount: 2
Fore
SplineSet
52 450 m 0
 52 476 74 498 100 498 c 0
 126 498 148 476 148 450 c 0
 148 424 126 402 100 402 c 0
 74 402 52 424 52 450 c 0
252 450 m 0
 252 476 274 498 300 498 c 0
 326 498 348 476 348 450 c 0
 348 424 326 402 300 402 c 0
 274 402 252 424 252 450 c 0
352 450 m 0
 352 476 374 498 400 498 c 0
 426 498 448 476 448 450 c 0
 448 424 426 402 400 402 c 0
 374 402 352 424 352 450 c 0
52 350 m 0
 52 376 74 398 100 398 c 0
 126 398 148 376 148 350 c 0
 148 324 126 302 100 302 c 0
 74 302 52 324 52 350 c 0
152 350 m 0
 152 376 174 398 200 398 c 0
 226 398 248 376 248 350 c 0
 248 324 226 302 200 302 c 0
 174 302 152 324 152 350 c 0
452 350 m 0
 452 376 474 398 500 398 c 0
 526 398 548 376 548 350 c 0
 548 324 526 302 500 302 c 0
 474 302 452 324 452 350 c 0
52 250 m 0
 52 276 74 298 100 298 c 0
 126 298 148 276 148 250 c 0
 148 224 126 202 100 202 c 0
 74 202 52 224 52 250 c 0
52 150 m 0
 52 176 74 198 100 198 c 0
 126 198 148 176 148 150 c 0
 148 124 126 102 100 102 c 0
 74 102 52 124 52 150 c 0
52 50 m 0
 52 76 74 98 100 98 c 0
 126 98 148 76 148 50 c 0
 148 24 126 2 100 2 c 0
 74 2 52 24 52 50 c 0
EndSplineSet
EndChar

StartChar: s
Encoding: 115 115 83
Width: 600
Flags: HMW
AnchorPoint: "marks_below" 300 0 basechar 0
AnchorPoint: "marks_above" 300 600 basechar 0
LayerCount: 2
Fore
SplineSet
152 450 m 0
 152 476 174 498 200 498 c 0
 226 498 248 476 248 450 c 0
 248 424 226 402 200 402 c 0
 174 402 152 424 152 450 c 0
252 450 m 0
 252 476 274 498 300 498 c 0
 326 498 348 476 348 450 c 0
 348 424 326 402 300 402 c 0
 274 402 252 424 252 450 c 0
352 450 m 0
 352 476 374 498 400 498 c 0
 426 498 448 476 448 450 c 0
 448 424 426 402 400 402 c 0
 374 402 352 424 352 450 c 0
452 450 m 0
 452 476 474 498 500 498 c 0
 526 498 548 476 548 450 c 0
 548 424 526 402 500 402 c 0
 474 402 452 424 452 450 c 0
52 350 m 0
 52 376 74 398 100 398 c 0
 126 398 148 376 148 350 c 0
 148 324 126 302 100 302 c 0
 74 302 52 324 52 350 c 0
152 250 m 0
 152 276 174 298 200 298 c 0
 226 298 248 276 248 250 c 0
 248 224 226 202 200 202 c 0
 174 202 152 224 152 250 c 0
252 250 m 0
 252 276 274 298 300 298 c 0
 326 298 348 276 348 250 c 0
 348 224 326 202 300 202 c 0
 274 202 252 224 252 250 c 0
352 250 m 0
 352 276 374 298 400 298 c 0
 426 298 448 276 448 250 c 0
 448 224 426 202 400 202 c 0
 374 202 352 224 352 250 c 0
452 150 m 0
 452 176 474 198 500 198 c 0
 526 198 548 176 548 150 c 0
 548 124 526 102 500 102 c 0
 474 102 452 124 452 150 c 0
52 50 m 0
 52 76 74 98 100 98 c 0
 126 98 148 76 148 50 c 0
 148 24 126 2 100 2 c 0
 74 2 52 24 52 50 c 0
152 50 m 0
 152 76 174 98 200 98 c 0
 226 98 248 76 248 50 c 0
 248 24 226 2 200 2 c 0
 174 2 152 24 152 50 c 0
252 50 m 0
 252 76 274 98 300 98 c 0
 326 98 348 76 348 50 c 0
 348 24 326 2 300 2 c 0
 274 2 252 24 252 50 c 0
352 50 m 0
 352 76 374 98 400 98 c 0
 426 98 448 76 448 50 c 0
 448 24 426 2 400 2 c 0
 374 2 352 24 352 50 c 0
EndSplineSet
EndChar

StartChar: t
Encoding: 116 116 84
Width: 600
Flags: HMW
AnchorPoint: "marks_aboveright" 350 600 basechar 0
AnchorPoint: "marks_below" 300 0 basechar 0
AnchorPoint: "marks_above" 300 800 basechar 0
LayerCount: 2
Fore
SplineSet
152 650 m 0
 152 676 174 698 200 698 c 0
 226 698 248 676 248 650 c 0
 248 624 226 602 200 602 c 0
 174 602 152 624 152 650 c 0
152 550 m 0
 152 576 174 598 200 598 c 0
 226 598 248 576 248 550 c 0
 248 524 226 502 200 502 c 0
 174 502 152 524 152 550 c 0
52 450 m 0
 52 476 74 498 100 498 c 0
 126 498 148 476 148 450 c 0
 148 424 126 402 100 402 c 0
 74 402 52 424 52 450 c 0
152 450 m 0
 152 476 174 498 200 498 c 0
 226 498 248 476 248 450 c 0
 248 424 226 402 200 402 c 0
 174 402 152 424 152 450 c 0
252 450 m 0
 252 476 274 498 300 498 c 0
 326 498 348 476 348 450 c 0
 348 424 326 402 300 402 c 0
 274 402 252 424 252 450 c 0
352 450 m 0
 352 476 374 498 400 498 c 0
 426 498 448 476 448 450 c 0
 448 424 426 402 400 402 c 0
 374 402 352 424 352 450 c 0
152 350 m 0
 152 376 174 398 200 398 c 0
 226 398 248 376 248 350 c 0
 248 324 226 302 200 302 c 0
 174 302 152 324 152 350 c 0
152 250 m 0
 152 276 174 298 200 298 c 0
 226 298 248 276 248 250 c 0
 248 224 226 202 200 202 c 0
 174 202 152 224 152 250 c 0
152 150 m 0
 152 176 174 198 200 198 c 0
 226 198 248 176 248 150 c 0
 248 124 226 102 200 102 c 0
 174 102 152 124 152 150 c 0
452 150 m 0
 452 176 474 198 500 198 c 0
 526 198 548 176 548 150 c 0
 548 124 526 102 500 102 c 0
 474 102 452 124 452 150 c 0
252 50 m 0
 252 76 274 98 300 98 c 0
 326 98 348 76 348 50 c 0
 348 24 326 2 300 2 c 0
 274 2 252 24 252 50 c 0
352 50 m 0
 352 76 374 98 400 98 c 0
 426 98 448 76 448 50 c 0
 448 24 426 2 400 2 c 0
 374 2 352 24 352 50 c 0
EndSplineSet
EndChar

StartChar: u
Encoding: 117 117 85
Width: 600
Flags: HMW
AnchorPoint: "ogonek" 400 0 basechar 0
AnchorPoint: "marks_below" 300 0 basechar 0
AnchorPoint: "marks_above" 300 600 basechar 0
LayerCount: 2
Fore
SplineSet
52 450 m 0
 52 476 74 498 100 498 c 0
 126 498 148 476 148 450 c 0
 148 424 126 402 100 402 c 0
 74 402 52 424 52 450 c 0
452 450 m 0
 452 476 474 498 500 498 c 0
 526 498 548 476 548 450 c 0
 548 424 526 402 500 402 c 0
 474 402 452 424 452 450 c 0
52 350 m 0
 52 376 74 398 100 398 c 0
 126 398 148 376 148 350 c 0
 148 324 126 302 100 302 c 0
 74 302 52 324 52 350 c 0
452 350 m 0
 452 376 474 398 500 398 c 0
 526 398 548 376 548 350 c 0
 548 324 526 302 500 302 c 0
 474 302 452 324 452 350 c 0
52 250 m 0
 52 276 74 298 100 298 c 0
 126 298 148 276 148 250 c 0
 148 224 126 202 100 202 c 0
 74 202 52 224 52 250 c 0
452 250 m 0
 452 276 474 298 500 298 c 0
 526 298 548 276 548 250 c 0
 548 224 526 202 500 202 c 0
 474 202 452 224 452 250 c 0
52 150 m 0
 52 176 74 198 100 198 c 0
 126 198 148 176 148 150 c 0
 148 124 126 102 100 102 c 0
 74 102 52 124 52 150 c 0
352 150 m 0
 352 176 374 198 400 198 c 0
 426 198 448 176 448 150 c 0
 448 124 426 102 400 102 c 0
 374 102 352 124 352 150 c 0
452 150 m 0
 452 176 474 198 500 198 c 0
 526 198 548 176 548 150 c 0
 548 124 526 102 500 102 c 0
 474 102 452 124 452 150 c 0
152 50 m 0
 152 76 174 98 200 98 c 0
 226 98 248 76 248 50 c 0
 248 24 226 2 200 2 c 0
 174 2 152 24 152 50 c 0
252 50 m 0
 252 76 274 98 300 98 c 0
 326 98 348 76 348 50 c 0
 348 24 326 2 300 2 c 0
 274 2 252 24 252 50 c 0
452 50 m 0
 452 76 474 98 500 98 c 0
 526 98 548 76 548 50 c 0
 548 24 526 2 500 2 c 0
 474 2 452 24 452 50 c 0
EndSplineSet
EndChar

StartChar: v
Encoding: 118 118 86
Width: 600
Flags: HMW
AnchorPoint: "marks_below" 300 0 basechar 0
AnchorPoint: "marks_above" 300 600 basechar 0
LayerCount: 2
Fore
SplineSet
52 450 m 0
 52 476 74 498 100 498 c 0
 126 498 148 476 148 450 c 0
 148 424 126 402 100 402 c 0
 74 402 52 424 52 450 c 0
452 450 m 0
 452 476 474 498 500 498 c 0
 526 498 548 476 548 450 c 0
 548 424 526 402 500 402 c 0
 474 402 452 424 452 450 c 0
52 350 m 0
 52 376 74 398 100 398 c 0
 126 398 148 376 148 350 c 0
 148 324 126 302 100 302 c 0
 74 302 52 324 52 350 c 0
452 350 m 0
 452 376 474 398 500 398 c 0
 526 398 548 376 548 350 c 0
 548 324 526 302 500 302 c 0
 474 302 452 324 452 350 c 0
52 250 m 0
 52 276 74 298 100 298 c 0
 126 298 148 276 148 250 c 0
 148 224 126 202 100 202 c 0
 74 202 52 224 52 250 c 0
452 250 m 0
 452 276 474 298 500 298 c 0
 526 298 548 276 548 250 c 0
 548 224 526 202 500 202 c 0
 474 202 452 224 452 250 c 0
152 150 m 0
 152 176 174 198 200 198 c 0
 226 198 248 176 248 150 c 0
 248 124 226 102 200 102 c 0
 174 102 152 124 152 150 c 0
352 150 m 0
 352 176 374 198 400 198 c 0
 426 198 448 176 448 150 c 0
 448 124 426 102 400 102 c 0
 374 102 352 124 352 150 c 0
252 50 m 0
 252 76 274 98 300 98 c 0
 326 98 348 76 348 50 c 0
 348 24 326 2 300 2 c 0
 274 2 252 24 252 50 c 0
EndSplineSet
EndChar

StartChar: w
Encoding: 119 119 87
Width: 600
Flags: HMW
AnchorPoint: "marks_below" 300 0 basechar 0
AnchorPoint: "marks_above" 300 600 basechar 0
LayerCount: 2
Fore
SplineSet
52 450 m 0
 52 476 74 498 100 498 c 0
 126 498 148 476 148 450 c 0
 148 424 126 402 100 402 c 0
 74 402 52 424 52 450 c 0
452 450 m 0
 452 476 474 498 500 498 c 0
 526 498 548 476 548 450 c 0
 548 424 526 402 500 402 c 0
 474 402 452 424 452 450 c 0
52 350 m 0
 52 376 74 398 100 398 c 0
 126 398 148 376 148 350 c 0
 148 324 126 302 100 302 c 0
 74 302 52 324 52 350 c 0
252 350 m 0
 252 376 274 398 300 398 c 0
 326 398 348 376 348 350 c 0
 348 324 326 302 300 302 c 0
 274 302 252 324 252 350 c 0
452 350 m 0
 452 376 474 398 500 398 c 0
 526 398 548 376 548 350 c 0
 548 324 526 302 500 302 c 0
 474 302 452 324 452 350 c 0
52 250 m 0
 52 276 74 298 100 298 c 0
 126 298 148 276 148 250 c 0
 148 224 126 202 100 202 c 0
 74 202 52 224 52 250 c 0
252 250 m 0
 252 276 274 298 300 298 c 0
 326 298 348 276 348 250 c 0
 348 224 326 202 300 202 c 0
 274 202 252 224 252 250 c 0
452 250 m 0
 452 276 474 298 500 298 c 0
 526 298 548 276 548 250 c 0
 548 224 526 202 500 202 c 0
 474 202 452 224 452 250 c 0
52 150 m 0
 52 176 74 198 100 198 c 0
 126 198 148 176 148 150 c 0
 148 124 126 102 100 102 c 0
 74 102 52 124 52 150 c 0
252 150 m 0
 252 176 274 198 300 198 c 0
 326 198 348 176 348 150 c 0
 348 124 326 102 300 102 c 0
 274 102 252 124 252 150 c 0
452 150 m 0
 452 176 474 198 500 198 c 0
 526 198 548 176 548 150 c 0
 548 124 526 102 500 102 c 0
 474 102 452 124 452 150 c 0
152 50 m 0
 152 76 174 98 200 98 c 0
 226 98 248 76 248 50 c 0
 248 24 226 2 200 2 c 0
 174 2 152 24 152 50 c 0
352 50 m 0
 352 76 374 98 400 98 c 0
 426 98 448 76 448 50 c 0
 448 24 426 2 400 2 c 0
 374 2 352 24 352 50 c 0
EndSplineSet
EndChar

StartChar: x
Encoding: 120 120 88
Width: 600
Flags: HMW
AnchorPoint: "marks_below" 300 0 basechar 0
AnchorPoint: "marks_above" 300 600 basechar 0
LayerCount: 2
Fore
SplineSet
52 450 m 0
 52 476 74 498 100 498 c 0
 126 498 148 476 148 450 c 0
 148 424 126 402 100 402 c 0
 74 402 52 424 52 450 c 0
452 450 m 0
 452 476 474 498 500 498 c 0
 526 498 548 476 548 450 c 0
 548 424 526 402 500 402 c 0
 474 402 452 424 452 450 c 0
152 350 m 0
 152 376 174 398 200 398 c 0
 226 398 248 376 248 350 c 0
 248 324 226 302 200 302 c 0
 174 302 152 324 152 350 c 0
352 350 m 0
 352 376 374 398 400 398 c 0
 426 398 448 376 448 350 c 0
 448 324 426 302 400 302 c 0
 374 302 352 324 352 350 c 0
252 250 m 0
 252 276 274 298 300 298 c 0
 326 298 348 276 348 250 c 0
 348 224 326 202 300 202 c 0
 274 202 252 224 252 250 c 0
152 150 m 0
 152 176 174 198 200 198 c 0
 226 198 248 176 248 150 c 0
 248 124 226 102 200 102 c 0
 174 102 152 124 152 150 c 0
352 150 m 0
 352 176 374 198 400 198 c 0
 426 198 448 176 448 150 c 0
 448 124 426 102 400 102 c 0
 374 102 352 124 352 150 c 0
52 50 m 0
 52 76 74 98 100 98 c 0
 126 98 148 76 148 50 c 0
 148 24 126 2 100 2 c 0
 74 2 52 24 52 50 c 0
452 50 m 0
 452 76 474 98 500 98 c 0
 526 98 548 76 548 50 c 0
 548 24 526 2 500 2 c 0
 474 2 452 24 452 50 c 0
EndSplineSet
EndChar

StartChar: y
Encoding: 121 121 89
Width: 600
Flags: HMW
AnchorPoint: "marks_above" 300 600 basechar 0
LayerCount: 2
Fore
SplineSet
52 450 m 0
 52 476 74 498 100 498 c 0
 126 498 148 476 148 450 c 0
 148 424 126 402 100 402 c 0
 74 402 52 424 52 450 c 0
452 450 m 0
 452 476 474 498 500 498 c 0
 526 498 548 476 548 450 c 0
 548 424 526 402 500 402 c 0
 474 402 452 424 452 450 c 0
52 350 m 0
 52 376 74 398 100 398 c 0
 126 398 148 376 148 350 c 0
 148 324 126 302 100 302 c 0
 74 302 52 324 52 350 c 0
452 350 m 0
 452 376 474 398 500 398 c 0
 526 398 548 376 548 350 c 0
 548 324 526 302 500 302 c 0
 474 302 452 324 452 350 c 0
52 250 m 0
 52 276 74 298 100 298 c 0
 126 298 148 276 148 250 c 0
 148 224 126 202 100 202 c 0
 74 202 52 224 52 250 c 0
452 250 m 0
 452 276 474 298 500 298 c 0
 526 298 548 276 548 250 c 0
 548 224 526 202 500 202 c 0
 474 202 452 224 452 250 c 0
52 150 m 0
 52 176 74 198 100 198 c 0
 126 198 148 176 148 150 c 0
 148 124 126 102 100 102 c 0
 74 102 52 124 52 150 c 0
352 150 m 0
 352 176 374 198 400 198 c 0
 426 198 448 176 448 150 c 0
 448 124 426 102 400 102 c 0
 374 102 352 124 352 150 c 0
452 150 m 0
 452 176 474 198 500 198 c 0
 526 198 548 176 548 150 c 0
 548 124 526 102 500 102 c 0
 474 102 452 124 452 150 c 0
152 50 m 0
 152 76 174 98 200 98 c 0
 226 98 248 76 248 50 c 0
 248 24 226 2 200 2 c 0
 174 2 152 24 152 50 c 0
252 50 m 0
 252 76 274 98 300 98 c 0
 326 98 348 76 348 50 c 0
 348 24 326 2 300 2 c 0
 274 2 252 24 252 50 c 0
452 50 m 0
 452 76 474 98 500 98 c 0
 526 98 548 76 548 50 c 0
 548 24 526 2 500 2 c 0
 474 2 452 24 452 50 c 0
452 -50 m 0
 452 -24 474 -2 500 -2 c 0
 526 -2 548 -24 548 -50 c 0
 548 -76 526 -98 500 -98 c 0
 474 -98 452 -76 452 -50 c 0
152 -150 m 0
 152 -124 174 -102 200 -102 c 0
 226 -102 248 -124 248 -150 c 0
 248 -176 226 -198 200 -198 c 0
 174 -198 152 -176 152 -150 c 0
252 -150 m 0
 252 -124 274 -102 300 -102 c 0
 326 -102 348 -124 348 -150 c 0
 348 -176 326 -198 300 -198 c 0
 274 -198 252 -176 252 -150 c 0
352 -150 m 0
 352 -124 374 -102 400 -102 c 0
 426 -102 448 -124 448 -150 c 0
 448 -176 426 -198 400 -198 c 0
 374 -198 352 -176 352 -150 c 0
EndSplineSet
EndChar

StartChar: z
Encoding: 122 122 90
Width: 600
Flags: HMW
AnchorPoint: "marks_below" 300 0 basechar 0
AnchorPoint: "marks_above" 300 600 basechar 0
LayerCount: 2
Fore
SplineSet
52 450 m 0
 52 476 74 498 100 498 c 0
 126 498 148 476 148 450 c 0
 148 424 126 402 100 402 c 0
 74 402 52 424 52 450 c 0
152 450 m 0
 152 476 174 498 200 498 c 0
 226 498 248 476 248 450 c 0
 248 424 226 402 200 402 c 0
 174 402 152 424 152 450 c 0
252 450 m 0
 252 476 274 498 300 498 c 0
 326 498 348 476 348 450 c 0
 348 424 326 402 300 402 c 0
 274 402 252 424 252 450 c 0
352 450 m 0
 352 476 374 498 400 498 c 0
 426 498 448 476 448 450 c 0
 448 424 426 402 400 402 c 0
 374 402 352 424 352 450 c 0
452 450 m 0
 452 476 474 498 500 498 c 0
 526 498 548 476 548 450 c 0
 548 424 526 402 500 402 c 0
 474 402 452 424 452 450 c 0
352 350 m 0
 352 376 374 398 400 398 c 0
 426 398 448 376 448 350 c 0
 448 324 426 302 400 302 c 0
 374 302 352 324 352 350 c 0
252 250 m 0
 252 276 274 298 300 298 c 0
 326 298 348 276 348 250 c 0
 348 224 326 202 300 202 c 0
 274 202 252 224 252 250 c 0
152 150 m 0
 152 176 174 198 200 198 c 0
 226 198 248 176 248 150 c 0
 248 124 226 102 200 102 c 0
 174 102 152 124 152 150 c 0
52 50 m 0
 52 76 74 98 100 98 c 0
 126 98 148 76 148 50 c 0
 148 24 126 2 100 2 c 0
 74 2 52 24 52 50 c 0
152 50 m 0
 152 76 174 98 200 98 c 0
 226 98 248 76 248 50 c 0
 248 24 226 2 200 2 c 0
 174 2 152 24 152 50 c 0
252 50 m 0
 252 76 274 98 300 98 c 0
 326 98 348 76 348 50 c 0
 348 24 326 2 300 2 c 0
 274 2 252 24 252 50 c 0
352 50 m 0
 352 76 374 98 400 98 c 0
 426 98 448 76 448 50 c 0
 448 24 426 2 400 2 c 0
 374 2 352 24 352 50 c 0
452 50 m 0
 452 76 474 98 500 98 c 0
 526 98 548 76 548 50 c 0
 548 24 526 2 500 2 c 0
 474 2 452 24 452 50 c 0
EndSplineSet
EndChar

StartChar: braceleft
Encoding: 123 123 91
Width: 500
Flags: HMW
LayerCount: 2
Fore
SplineSet
252 650 m 0
 252 676 274 698 300 698 c 0
 326 698 348 676 348 650 c 0
 348 624 326 602 300 602 c 0
 274 602 252 624 252 650 c 0
352 650 m 0
 352 676 374 698 400 698 c 0
 426 698 448 676 448 650 c 0
 448 624 426 602 400 602 c 0
 374 602 352 624 352 650 c 0
152 550 m 0
 152 576 174 598 200 598 c 0
 226 598 248 576 248 550 c 0
 248 524 226 502 200 502 c 0
 174 502 152 524 152 550 c 0
252 450 m 0
 252 476 274 498 300 498 c 0
 326 498 348 476 348 450 c 0
 348 424 326 402 300 402 c 0
 274 402 252 424 252 450 c 0
52 350 m 0
 52 376 74 398 100 398 c 0
 126 398 148 376 148 350 c 0
 148 324 126 302 100 302 c 0
 74 302 52 324 52 350 c 0
152 350 m 0
 152 376 174 398 200 398 c 0
 226 398 248 376 248 350 c 0
 248 324 226 302 200 302 c 0
 174 302 152 324 152 350 c 0
252 250 m 0
 252 276 274 298 300 298 c 0
 326 298 348 276 348 250 c 0
 348 224 326 202 300 202 c 0
 274 202 252 224 252 250 c 0
152 150 m 0
 152 176 174 198 200 198 c 0
 226 198 248 176 248 150 c 0
 248 124 226 102 200 102 c 0
 174 102 152 124 152 150 c 0
252 50 m 0
 252 76 274 98 300 98 c 0
 326 98 348 76 348 50 c 0
 348 24 326 2 300 2 c 0
 274 2 252 24 252 50 c 0
352 50 m 0
 352 76 374 98 400 98 c 0
 426 98 448 76 448 50 c 0
 448 24 426 2 400 2 c 0
 374 2 352 24 352 50 c 0
EndSplineSet
EndChar

StartChar: bar
Encoding: 124 124 92
Width: 200
Flags: HMW
LayerCount: 2
Fore
SplineSet
52 650 m 0
 52 676 74 698 100 698 c 0
 126 698 148 676 148 650 c 0
 148 624 126 602 100 602 c 0
 74 602 52 624 52 650 c 0
52 550 m 0
 52 576 74 598 100 598 c 0
 126 598 148 576 148 550 c 0
 148 524 126 502 100 502 c 0
 74 502 52 524 52 550 c 0
52 450 m 0
 52 476 74 498 100 498 c 0
 126 498 148 476 148 450 c 0
 148 424 126 402 100 402 c 0
 74 402 52 424 52 450 c 0
52 350 m 0
 52 376 74 398 100 398 c 0
 126 398 148 376 148 350 c 0
 148 324 126 302 100 302 c 0
 74 302 52 324 52 350 c 0
52 250 m 0
 52 276 74 298 100 298 c 0
 126 298 148 276 148 250 c 0
 148 224 126 202 100 202 c 0
 74 202 52 224 52 250 c 0
52 150 m 0
 52 176 74 198 100 198 c 0
 126 198 148 176 148 150 c 0
 148 124 126 102 100 102 c 0
 74 102 52 124 52 150 c 0
52 50 m 0
 52 76 74 98 100 98 c 0
 126 98 148 76 148 50 c 0
 148 24 126 2 100 2 c 0
 74 2 52 24 52 50 c 0
EndSplineSet
EndChar

StartChar: braceright
Encoding: 125 125 93
Width: 500
Flags: HMW
LayerCount: 2
Fore
SplineSet
52 650 m 0
 52 676 74 698 100 698 c 0
 126 698 148 676 148 650 c 0
 148 624 126 602 100 602 c 0
 74 602 52 624 52 650 c 0
152 650 m 0
 152 676 174 698 200 698 c 0
 226 698 248 676 248 650 c 0
 248 624 226 602 200 602 c 0
 174 602 152 624 152 650 c 0
252 550 m 0
 252 576 274 598 300 598 c 0
 326 598 348 576 348 550 c 0
 348 524 326 502 300 502 c 0
 274 502 252 524 252 550 c 0
152 450 m 0
 152 476 174 498 200 498 c 0
 226 498 248 476 248 450 c 0
 248 424 226 402 200 402 c 0
 174 402 152 424 152 450 c 0
252 350 m 0
 252 376 274 398 300 398 c 0
 326 398 348 376 348 350 c 0
 348 324 326 302 300 302 c 0
 274 302 252 324 252 350 c 0
352 350 m 0
 352 376 374 398 400 398 c 0
 426 398 448 376 448 350 c 0
 448 324 426 302 400 302 c 0
 374 302 352 324 352 350 c 0
152 250 m 0
 152 276 174 298 200 298 c 0
 226 298 248 276 248 250 c 0
 248 224 226 202 200 202 c 0
 174 202 152 224 152 250 c 0
252 150 m 0
 252 176 274 198 300 198 c 0
 326 198 348 176 348 150 c 0
 348 124 326 102 300 102 c 0
 274 102 252 124 252 150 c 0
52 50 m 0
 52 76 74 98 100 98 c 0
 126 98 148 76 148 50 c 0
 148 24 126 2 100 2 c 0
 74 2 52 24 52 50 c 0
152 50 m 0
 152 76 174 98 200 98 c 0
 226 98 248 76 248 50 c 0
 248 24 226 2 200 2 c 0
 174 2 152 24 152 50 c 0
EndSplineSet
EndChar

StartChar: asciitilde
Encoding: 126 126 94
Width: 600
Flags: HMW
LayerCount: 2
Fore
SplineSet
152 450 m 0
 152 476 174 498 200 498 c 0
 226 498 248 476 248 450 c 0
 248 424 226 402 200 402 c 0
 174 402 152 424 152 450 c 0
452 450 m 0
 452 476 474 498 500 498 c 0
 526 498 548 476 548 450 c 0
 548 424 526 402 500 402 c 0
 474 402 452 424 452 450 c 0
52 350 m 0
 52 376 74 398 100 398 c 0
 126 398 148 376 148 350 c 0
 148 324 126 302 100 302 c 0
 74 302 52 324 52 350 c 0
252 350 m 0
 252 376 274 398 300 398 c 0
 326 398 348 376 348 350 c 0
 348 324 326 302 300 302 c 0
 274 302 252 324 252 350 c 0
452 350 m 0
 452 376 474 398 500 398 c 0
 526 398 548 376 548 350 c 0
 548 324 526 302 500 302 c 0
 474 302 452 324 452 350 c 0
52 250 m 0
 52 276 74 298 100 298 c 0
 126 298 148 276 148 250 c 0
 148 224 126 202 100 202 c 0
 74 202 52 224 52 250 c 0
352 250 m 0
 352 276 374 298 400 298 c 0
 426 298 448 276 448 250 c 0
 448 224 426 202 400 202 c 0
 374 202 352 224 352 250 c 0
EndSplineSet
EndChar

StartChar: .notdef
Encoding: 1114113 -1 95
Width: 601
VWidth: 0
Flags: HMW
LayerCount: 2
Fore
SplineSet
550 0 m 1
 50 0 l 1
 50 700 l 1
 550 700 l 1
 550 0 l 1
130 70 m 1
 470 70 l 1
 470 630 l 1
 130 630 l 1
 130 70 l 1
EndSplineSet
EndChar

StartChar: exclamdown
Encoding: 161 161 96
Width: 200
Flags: HMW
LayerCount: 2
Fore
SplineSet
52 450 m 0
 52 476 74 498 100 498 c 0
 126 498 148 476 148 450 c 0
 148 424 126 402 100 402 c 0
 74 402 52 424 52 450 c 0
52 250 m 0
 52 276 74 298 100 298 c 0
 126 298 148 276 148 250 c 0
 148 224 126 202 100 202 c 0
 74 202 52 224 52 250 c 0
52 150 m 0
 52 176 74 198 100 198 c 0
 126 198 148 176 148 150 c 0
 148 124 126 102 100 102 c 0
 74 102 52 124 52 150 c 0
52 50 m 0
 52 76 74 98 100 98 c 0
 126 98 148 76 148 50 c 0
 148 24 126 2 100 2 c 0
 74 2 52 24 52 50 c 0
52 -50 m 0
 52 -24 74 -2 100 -2 c 0
 126 -2 148 -24 148 -50 c 0
 148 -76 126 -98 100 -98 c 0
 74 -98 52 -76 52 -50 c 0
52 -150 m 0
 52 -124 74 -102 100 -102 c 0
 126 -102 148 -124 148 -150 c 0
 148 -176 126 -198 100 -198 c 0
 74 -198 52 -176 52 -150 c 0
EndSplineSet
EndChar

StartChar: cent
Encoding: 162 162 97
Width: 600
Flags: HMW
LayerCount: 2
Fore
SplineSet
252 650 m 0
 252 676 274 698 300 698 c 0
 326 698 348 676 348 650 c 0
 348 624 326 602 300 602 c 0
 274 602 252 624 252 650 c 0
152 550 m 0
 152 576 174 598 200 598 c 0
 226 598 248 576 248 550 c 0
 248 524 226 502 200 502 c 0
 174 502 152 524 152 550 c 0
252 550 m 0
 252 576 274 598 300 598 c 0
 326 598 348 576 348 550 c 0
 348 524 326 502 300 502 c 0
 274 502 252 524 252 550 c 0
352 550 m 0
 352 576 374 598 400 598 c 0
 426 598 448 576 448 550 c 0
 448 524 426 502 400 502 c 0
 374 502 352 524 352 550 c 0
52 450 m 0
 52 476 74 498 100 498 c 0
 126 498 148 476 148 450 c 0
 148 424 126 402 100 402 c 0
 74 402 52 424 52 450 c 0
252 450 m 0
 252 476 274 498 300 498 c 0
 326 498 348 476 348 450 c 0
 348 424 326 402 300 402 c 0
 274 402 252 424 252 450 c 0
452 450 m 0
 452 476 474 498 500 498 c 0
 526 498 548 476 548 450 c 0
 548 424 526 402 500 402 c 0
 474 402 452 424 452 450 c 0
52 350 m 0
 52 376 74 398 100 398 c 0
 126 398 148 376 148 350 c 0
 148 324 126 302 100 302 c 0
 74 302 52 324 52 350 c 0
252 350 m 0
 252 376 274 398 300 398 c 0
 326 398 348 376 348 350 c 0
 348 324 326 302 300 302 c 0
 274 302 252 324 252 350 c 0
52 250 m 0
 52 276 74 298 100 298 c 0
 126 298 148 276 148 250 c 0
 148 224 126 202 100 202 c 0
 74 202 52 224 52 250 c 0
252 250 m 0
 252 276 274 298 300 298 c 0
 326 298 348 276 348 250 c 0
 348 224 326 202 300 202 c 0
 274 202 252 224 252 250 c 0
452 250 m 0
 452 276 474 298 500 298 c 0
 526 298 548 276 548 250 c 0
 548 224 526 202 500 202 c 0
 474 202 452 224 452 250 c 0
152 150 m 0
 152 176 174 198 200 198 c 0
 226 198 248 176 248 150 c 0
 248 124 226 102 200 102 c 0
 174 102 152 124 152 150 c 0
252 150 m 0
 252 176 274 198 300 198 c 0
 326 198 348 176 348 150 c 0
 348 124 326 102 300 102 c 0
 274 102 252 124 252 150 c 0
352 150 m 0
 352 176 374 198 400 198 c 0
 426 198 448 176 448 150 c 0
 448 124 426 102 400 102 c 0
 374 102 352 124 352 150 c 0
252 50 m 0
 252 76 274 98 300 98 c 0
 326 98 348 76 348 50 c 0
 348 24 326 2 300 2 c 0
 274 2 252 24 252 50 c 0
EndSplineSet
EndChar

StartChar: sterling
Encoding: 163 163 98
Width: 600
Flags: HMW
LayerCount: 2
Fore
SplineSet
252 650 m 0
 252 676 274 698 300 698 c 0
 326 698 348 676 348 650 c 0
 348 624 326 602 300 602 c 0
 274 602 252 624 252 650 c 0
352 650 m 0
 352 676 374 698 400 698 c 0
 426 698 448 676 448 650 c 0
 448 624 426 602 400 602 c 0
 374 602 352 624 352 650 c 0
152 550 m 0
 152 576 174 598 200 598 c 0
 226 598 248 576 248 550 c 0
 248 524 226 502 200 502 c 0
 174 502 152 524 152 550 c 0
452 550 m 0
 452 576 474 598 500 598 c 0
 526 598 548 576 548 550 c 0
 548 524 526 502 500 502 c 0
 474 502 452 524 452 550 c 0
152 450 m 0
 152 476 174 498 200 498 c 0
 226 498 248 476 248 450 c 0
 248 424 226 402 200 402 c 0
 174 402 152 424 152 450 c 0
52 350 m 0
 52 376 74 398 100 398 c 0
 126 398 148 376 148 350 c 0
 148 324 126 302 100 302 c 0
 74 302 52 324 52 350 c 0
152 350 m 0
 152 376 174 398 200 398 c 0
 226 398 248 376 248 350 c 0
 248 324 226 302 200 302 c 0
 174 302 152 324 152 350 c 0
252 350 m 0
 252 376 274 398 300 398 c 0
 326 398 348 376 348 350 c 0
 348 324 326 302 300 302 c 0
 274 302 252 324 252 350 c 0
152 250 m 0
 152 276 174 298 200 298 c 0
 226 298 248 276 248 250 c 0
 248 224 226 202 200 202 c 0
 174 202 152 224 152 250 c 0
152 150 m 0
 152 176 174 198 200 198 c 0
 226 198 248 176 248 150 c 0
 248 124 226 102 200 102 c 0
 174 102 152 124 152 150 c 0
52 50 m 0
 52 76 74 98 100 98 c 0
 126 98 148 76 148 50 c 0
 148 24 126 2 100 2 c 0
 74 2 52 24 52 50 c 0
152 50 m 0
 152 76 174 98 200 98 c 0
 226 98 248 76 248 50 c 0
 248 24 226 2 200 2 c 0
 174 2 152 24 152 50 c 0
252 50 m 0
 252 76 274 98 300 98 c 0
 326 98 348 76 348 50 c 0
 348 24 326 2 300 2 c 0
 274 2 252 24 252 50 c 0
352 50 m 0
 352 76 374 98 400 98 c 0
 426 98 448 76 448 50 c 0
 448 24 426 2 400 2 c 0
 374 2 352 24 352 50 c 0
452 50 m 0
 452 76 474 98 500 98 c 0
 526 98 548 76 548 50 c 0
 548 24 526 2 500 2 c 0
 474 2 452 24 452 50 c 0
EndSplineSet
EndChar

StartChar: currency
Encoding: 164 164 99
Width: 600
Flags: HMW
LayerCount: 2
Fore
SplineSet
52 550 m 0
 52 576 74 598 100 598 c 0
 126 598 148 576 148 550 c 0
 148 524 126 502 100 502 c 0
 74 502 52 524 52 550 c 0
452 550 m 0
 452 576 474 598 500 598 c 0
 526 598 548 576 548 550 c 0
 548 524 526 502 500 502 c 0
 474 502 452 524 452 550 c 0
152 450 m 0
 152 476 174 498 200 498 c 0
 226 498 248 476 248 450 c 0
 248 424 226 402 200 402 c 0
 174 402 152 424 152 450 c 0
252 450 m 0
 252 476 274 498 300 498 c 0
 326 498 348 476 348 450 c 0
 348 424 326 402 300 402 c 0
 274 402 252 424 252 450 c 0
352 450 m 0
 352 476 374 498 400 498 c 0
 426 498 448 476 448 450 c 0
 448 424 426 402 400 402 c 0
 374 402 352 424 352 450 c 0
152 350 m 0
 152 376 174 398 200 398 c 0
 226 398 248 376 248 350 c 0
 248 324 226 302 200 302 c 0
 174 302 152 324 152 350 c 0
352 350 m 0
 352 376 374 398 400 398 c 0
 426 398 448 376 448 350 c 0
 448 324 426 302 400 302 c 0
 374 302 352 324 352 350 c 0
152 250 m 0
 152 276 174 298 200 298 c 0
 226 298 248 276 248 250 c 0
 248 224 226 202 200 202 c 0
 174 202 152 224 152 250 c 0
252 250 m 0
 252 276 274 298 300 298 c 0
 326 298 348 276 348 250 c 0
 348 224 326 202 300 202 c 0
 274 202 252 224 252 250 c 0
352 250 m 0
 352 276 374 298 400 298 c 0
 426 298 448 276 448 250 c 0
 448 224 426 202 400 202 c 0
 374 202 352 224 352 250 c 0
52 150 m 0
 52 176 74 198 100 198 c 0
 126 198 148 176 148 150 c 0
 148 124 126 102 100 102 c 0
 74 102 52 124 52 150 c 0
452 150 m 0
 452 176 474 198 500 198 c 0
 526 198 548 176 548 150 c 0
 548 124 526 102 500 102 c 0
 474 102 452 124 452 150 c 0
EndSplineSet
EndChar

StartChar: yen
Encoding: 165 165 100
Width: 600
Flags: HMW
LayerCount: 2
Fore
SplineSet
52 650 m 0
 52 676 74 698 100 698 c 0
 126 698 148 676 148 650 c 0
 148 624 126 602 100 602 c 0
 74 602 52 624 52 650 c 0
452 650 m 0
 452 676 474 698 500 698 c 0
 526 698 548 676 548 650 c 0
 548 624 526 602 500 602 c 0
 474 602 452 624 452 650 c 0
152 550 m 0
 152 576 174 598 200 598 c 0
 226 598 248 576 248 550 c 0
 248 524 226 502 200 502 c 0
 174 502 152 524 152 550 c 0
352 550 m 0
 352 576 374 598 400 598 c 0
 426 598 448 576 448 550 c 0
 448 524 426 502 400 502 c 0
 374 502 352 524 352 550 c 0
252 450 m 0
 252 476 274 498 300 498 c 0
 326 498 348 476 348 450 c 0
 348 424 326 402 300 402 c 0
 274 402 252 424 252 450 c 0
152 350 m 0
 152 376 174 398 200 398 c 0
 226 398 248 376 248 350 c 0
 248 324 226 302 200 302 c 0
 174 302 152 324 152 350 c 0
252 350 m 0
 252 376 274 398 300 398 c 0
 326 398 348 376 348 350 c 0
 348 324 326 302 300 302 c 0
 274 302 252 324 252 350 c 0
352 350 m 0
 352 376 374 398 400 398 c 0
 426 398 448 376 448 350 c 0
 448 324 426 302 400 302 c 0
 374 302 352 324 352 350 c 0
250 252 m 0
 250 278 272 300 298 300 c 0
 324 300 346 278 346 252 c 0
 346 226 324 204 298 204 c 0
 272 204 250 226 250 252 c 0
152 150 m 0
 152 176 174 198 200 198 c 0
 226 198 248 176 248 150 c 0
 248 124 226 102 200 102 c 0
 174 102 152 124 152 150 c 0
252 150 m 0
 252 176 274 198 300 198 c 0
 326 198 348 176 348 150 c 0
 348 124 326 102 300 102 c 0
 274 102 252 124 252 150 c 0
352 150 m 0
 352 176 374 198 400 198 c 0
 426 198 448 176 448 150 c 0
 448 124 426 102 400 102 c 0
 374 102 352 124 352 150 c 0
252 50 m 0
 252 76 274 98 300 98 c 0
 326 98 348 76 348 50 c 0
 348 24 326 2 300 2 c 0
 274 2 252 24 252 50 c 0
EndSplineSet
EndChar

StartChar: brokenbar
Encoding: 166 166 101
Width: 200
Flags: HMW
LayerCount: 2
Fore
SplineSet
52 650 m 0
 52 676 74 698 100 698 c 0
 126 698 148 676 148 650 c 0
 148 624 126 602 100 602 c 0
 74 602 52 624 52 650 c 0
52 550 m 0
 52 576 74 598 100 598 c 0
 126 598 148 576 148 550 c 0
 148 524 126 502 100 502 c 0
 74 502 52 524 52 550 c 0
52 450 m 0
 52 476 74 498 100 498 c 0
 126 498 148 476 148 450 c 0
 148 424 126 402 100 402 c 0
 74 402 52 424 52 450 c 0
52 250 m 0
 52 276 74 298 100 298 c 0
 126 298 148 276 148 250 c 0
 148 224 126 202 100 202 c 0
 74 202 52 224 52 250 c 0
52 150 m 0
 52 176 74 198 100 198 c 0
 126 198 148 176 148 150 c 0
 148 124 126 102 100 102 c 0
 74 102 52 124 52 150 c 0
52 50 m 0
 52 76 74 98 100 98 c 0
 126 98 148 76 148 50 c 0
 148 24 126 2 100 2 c 0
 74 2 52 24 52 50 c 0
EndSplineSet
EndChar

StartChar: section
Encoding: 167 167 102
Width: 600
Flags: HMW
LayerCount: 2
Fore
SplineSet
152 650 m 0
 152 676 174 698 200 698 c 0
 226 698 248 676 248 650 c 0
 248 624 226 602 200 602 c 0
 174 602 152 624 152 650 c 0
252 650 m 0
 252 676 274 698 300 698 c 0
 326 698 348 676 348 650 c 0
 348 624 326 602 300 602 c 0
 274 602 252 624 252 650 c 0
352 650 m 0
 352 676 374 698 400 698 c 0
 426 698 448 676 448 650 c 0
 448 624 426 602 400 602 c 0
 374 602 352 624 352 650 c 0
52 550 m 0
 52 576 74 598 100 598 c 0
 126 598 148 576 148 550 c 0
 148 524 126 502 100 502 c 0
 74 502 52 524 52 550 c 0
452 550 m 0
 452 576 474 598 500 598 c 0
 526 598 548 576 548 550 c 0
 548 524 526 502 500 502 c 0
 474 502 452 524 452 550 c 0
52 450 m 0
 52 476 74 498 100 498 c 0
 126 498 148 476 148 450 c 0
 148 424 126 402 100 402 c 0
 74 402 52 424 52 450 c 0
152 350 m 0
 152 376 174 398 200 398 c 0
 226 398 248 376 248 350 c 0
 248 324 226 302 200 302 c 0
 174 302 152 324 152 350 c 0
252 350 m 0
 252 376 274 398 300 398 c 0
 326 398 348 376 348 350 c 0
 348 324 326 302 300 302 c 0
 274 302 252 324 252 350 c 0
352 350 m 0
 352 376 374 398 400 398 c 0
 426 398 448 376 448 350 c 0
 448 324 426 302 400 302 c 0
 374 302 352 324 352 350 c 0
52 250 m 0
 52 276 74 298 100 298 c 0
 126 298 148 276 148 250 c 0
 148 224 126 202 100 202 c 0
 74 202 52 224 52 250 c 0
452 250 m 0
 452 276 474 298 500 298 c 0
 526 298 548 276 548 250 c 0
 548 224 526 202 500 202 c 0
 474 202 452 224 452 250 c 0
152 150 m 0
 152 176 174 198 200 198 c 0
 226 198 248 176 248 150 c 0
 248 124 226 102 200 102 c 0
 174 102 152 124 152 150 c 0
252 150 m 0
 252 176 274 198 300 198 c 0
 326 198 348 176 348 150 c 0
 348 124 326 102 300 102 c 0
 274 102 252 124 252 150 c 0
352 150 m 0
 352 176 374 198 400 198 c 0
 426 198 448 176 448 150 c 0
 448 124 426 102 400 102 c 0
 374 102 352 124 352 150 c 0
452 50 m 0
 452 76 474 98 500 98 c 0
 526 98 548 76 548 50 c 0
 548 24 526 2 500 2 c 0
 474 2 452 24 452 50 c 0
52 -50 m 0
 52 -24 74 -2 100 -2 c 0
 126 -2 148 -24 148 -50 c 0
 148 -76 126 -98 100 -98 c 0
 74 -98 52 -76 52 -50 c 0
452 -50 m 0
 452 -24 474 -2 500 -2 c 0
 526 -2 548 -24 548 -50 c 0
 548 -76 526 -98 500 -98 c 0
 474 -98 452 -76 452 -50 c 0
152 -150 m 0
 152 -124 174 -102 200 -102 c 0
 226 -102 248 -124 248 -150 c 0
 248 -176 226 -198 200 -198 c 0
 174 -198 152 -176 152 -150 c 0
252 -150 m 0
 252 -124 274 -102 300 -102 c 0
 326 -102 348 -124 348 -150 c 0
 348 -176 326 -198 300 -198 c 0
 274 -198 252 -176 252 -150 c 0
352 -150 m 0
 352 -124 374 -102 400 -102 c 0
 426 -102 448 -124 448 -150 c 0
 448 -176 426 -198 400 -198 c 0
 374 -198 352 -176 352 -150 c 0
EndSplineSet
EndChar

StartChar: dieresis
Encoding: 168 168 103
Width: 400
Flags: HMW
LayerCount: 2
Fore
SplineSet
52 650 m 0
 52 676 74 698 100 698 c 0
 126 698 148 676 148 650 c 0
 148 624 126 602 100 602 c 0
 74 602 52 624 52 650 c 0
252 650 m 0
 252 676 274 698 300 698 c 0
 326 698 348 676 348 650 c 0
 348 624 326 602 300 602 c 0
 274 602 252 624 252 650 c 0
EndSplineSet
EndChar

StartChar: copyright
Encoding: 169 169 104
Width: 900
Flags: HMW
LayerCount: 2
Fore
SplineSet
252 650 m 0
 252 676 274 698 300 698 c 0
 326 698 348 676 348 650 c 0
 348 624 326 602 300 602 c 0
 274 602 252 624 252 650 c 0
352 650 m 0
 352 676 374 698 400 698 c 0
 426 698 448 676 448 650 c 0
 448 624 426 602 400 602 c 0
 374 602 352 624 352 650 c 0
452 650 m 0
 452 676 474 698 500 698 c 0
 526 698 548 676 548 650 c 0
 548 624 526 602 500 602 c 0
 474 602 452 624 452 650 c 0
552 650 m 0
 552 676 574 698 600 698 c 0
 626 698 648 676 648 650 c 0
 648 624 626 602 600 602 c 0
 574 602 552 624 552 650 c 0
152 550 m 0
 152 576 174 598 200 598 c 0
 226 598 248 576 248 550 c 0
 248 524 226 502 200 502 c 0
 174 502 152 524 152 550 c 0
652 550 m 0
 652 576 674 598 700 598 c 0
 726 598 748 576 748 550 c 0
 748 524 726 502 700 502 c 0
 674 502 652 524 652 550 c 0
52 450 m 0
 52 476 74 498 100 498 c 0
 126 498 148 476 148 450 c 0
 148 424 126 402 100 402 c 0
 74 402 52 424 52 450 c 0
352 450 m 0
 352 476 374 498 400 498 c 0
 426 498 448 476 448 450 c 0
 448 424 426 402 400 402 c 0
 374 402 352 424 352 450 c 0
452 450 m 0
 452 476 474 498 500 498 c 0
 526 498 548 476 548 450 c 0
 548 424 526 402 500 402 c 0
 474 402 452 424 452 450 c 0
752 450 m 0
 752 476 774 498 800 498 c 0
 826 498 848 476 848 450 c 0
 848 424 826 402 800 402 c 0
 774 402 752 424 752 450 c 0
52 350 m 0
 52 376 74 398 100 398 c 0
 126 398 148 376 148 350 c 0
 148 324 126 302 100 302 c 0
 74 302 52 324 52 350 c 0
252 350 m 0
 252 376 274 398 300 398 c 0
 326 398 348 376 348 350 c 0
 348 324 326 302 300 302 c 0
 274 302 252 324 252 350 c 0
752 350 m 0
 752 376 774 398 800 398 c 0
 826 398 848 376 848 350 c 0
 848 324 826 302 800 302 c 0
 774 302 752 324 752 350 c 0
52 250 m 0
 52 276 74 298 100 298 c 0
 126 298 148 276 148 250 c 0
 148 224 126 202 100 202 c 0
 74 202 52 224 52 250 c 0
252 250 m 0
 252 276 274 298 300 298 c 0
 326 298 348 276 348 250 c 0
 348 224 326 202 300 202 c 0
 274 202 252 224 252 250 c 0
752 250 m 0
 752 276 774 298 800 298 c 0
 826 298 848 276 848 250 c 0
 848 224 826 202 800 202 c 0
 774 202 752 224 752 250 c 0
52 150 m 0
 52 176 74 198 100 198 c 0
 126 198 148 176 148 150 c 0
 148 124 126 102 100 102 c 0
 74 102 52 124 52 150 c 0
352 150 m 0
 352 176 374 198 400 198 c 0
 426 198 448 176 448 150 c 0
 448 124 426 102 400 102 c 0
 374 102 352 124 352 150 c 0
452 150 m 0
 452 176 474 198 500 198 c 0
 526 198 548 176 548 150 c 0
 548 124 526 102 500 102 c 0
 474 102 452 124 452 150 c 0
752 150 m 0
 752 176 774 198 800 198 c 0
 826 198 848 176 848 150 c 0
 848 124 826 102 800 102 c 0
 774 102 752 124 752 150 c 0
152 50 m 0
 152 76 174 98 200 98 c 0
 226 98 248 76 248 50 c 0
 248 24 226 2 200 2 c 0
 174 2 152 24 152 50 c 0
652 50 m 0
 652 76 674 98 700 98 c 0
 726 98 748 76 748 50 c 0
 748 24 726 2 700 2 c 0
 674 2 652 24 652 50 c 0
252 -50 m 0
 252 -24 274 -2 300 -2 c 0
 326 -2 348 -24 348 -50 c 0
 348 -76 326 -98 300 -98 c 0
 274 -98 252 -76 252 -50 c 0
352 -50 m 0
 352 -24 374 -2 400 -2 c 0
 426 -2 448 -24 448 -50 c 0
 448 -76 426 -98 400 -98 c 0
 374 -98 352 -76 352 -50 c 0
452 -50 m 0
 452 -24 474 -2 500 -2 c 0
 526 -2 548 -24 548 -50 c 0
 548 -76 526 -98 500 -98 c 0
 474 -98 452 -76 452 -50 c 0
552 -50 m 0
 552 -24 574 -2 600 -2 c 0
 626 -2 648 -24 648 -50 c 0
 648 -76 626 -98 600 -98 c 0
 574 -98 552 -76 552 -50 c 0
EndSplineSet
EndChar

StartChar: ordfeminine
Encoding: 170 170 105
Width: 500
Flags: HMW
LayerCount: 2
Fore
SplineSet
152 650 m 0
 152 676 174 698 200 698 c 0
 226 698 248 676 248 650 c 0
 248 624 226 602 200 602 c 0
 174 602 152 624 152 650 c 0
252 650 m 0
 252 676 274 698 300 698 c 0
 326 698 348 676 348 650 c 0
 348 624 326 602 300 602 c 0
 274 602 252 624 252 650 c 0
352 650 m 0
 352 676 374 698 400 698 c 0
 426 698 448 676 448 650 c 0
 448 624 426 602 400 602 c 0
 374 602 352 624 352 650 c 0
52 550 m 0
 52 576 74 598 100 598 c 0
 126 598 148 576 148 550 c 0
 148 524 126 502 100 502 c 0
 74 502 52 524 52 550 c 0
352 550 m 0
 352 576 374 598 400 598 c 0
 426 598 448 576 448 550 c 0
 448 524 426 502 400 502 c 0
 374 502 352 524 352 550 c 0
52 450 m 0
 52 476 74 498 100 498 c 0
 126 498 148 476 148 450 c 0
 148 424 126 402 100 402 c 0
 74 402 52 424 52 450 c 0
352 450 m 0
 352 476 374 498 400 498 c 0
 426 498 448 476 448 450 c 0
 448 424 426 402 400 402 c 0
 374 402 352 424 352 450 c 0
152 350 m 0
 152 376 174 398 200 398 c 0
 226 398 248 376 248 350 c 0
 248 324 226 302 200 302 c 0
 174 302 152 324 152 350 c 0
252 350 m 0
 252 376 274 398 300 398 c 0
 326 398 348 376 348 350 c 0
 348 324 326 302 300 302 c 0
 274 302 252 324 252 350 c 0
352 350 m 0
 352 376 374 398 400 398 c 0
 426 398 448 376 448 350 c 0
 448 324 426 302 400 302 c 0
 374 302 352 324 352 350 c 0
52 150 m 0
 52 176 74 198 100 198 c 0
 126 198 148 176 148 150 c 0
 148 124 126 102 100 102 c 0
 74 102 52 124 52 150 c 0
152 150 m 0
 152 176 174 198 200 198 c 0
 226 198 248 176 248 150 c 0
 248 124 226 102 200 102 c 0
 174 102 152 124 152 150 c 0
252 150 m 0
 252 176 274 198 300 198 c 0
 326 198 348 176 348 150 c 0
 348 124 326 102 300 102 c 0
 274 102 252 124 252 150 c 0
352 150 m 0
 352 176 374 198 400 198 c 0
 426 198 448 176 448 150 c 0
 448 124 426 102 400 102 c 0
 374 102 352 124 352 150 c 0
EndSplineSet
EndChar

StartChar: logicalnot
Encoding: 172 172 106
Width: 600
Flags: HMW
LayerCount: 2
Fore
SplineSet
52 350 m 0
 52 376 74 398 100 398 c 0
 126 398 148 376 148 350 c 0
 148 324 126 302 100 302 c 0
 74 302 52 324 52 350 c 0
152 350 m 0
 152 376 174 398 200 398 c 0
 226 398 248 376 248 350 c 0
 248 324 226 302 200 302 c 0
 174 302 152 324 152 350 c 0
252 350 m 0
 252 376 274 398 300 398 c 0
 326 398 348 376 348 350 c 0
 348 324 326 302 300 302 c 0
 274 302 252 324 252 350 c 0
352 350 m 0
 352 376 374 398 400 398 c 0
 426 398 448 376 448 350 c 0
 448 324 426 302 400 302 c 0
 374 302 352 324 352 350 c 0
452 350 m 0
 452 376 474 398 500 398 c 0
 526 398 548 376 548 350 c 0
 548 324 526 302 500 302 c 0
 474 302 452 324 452 350 c 0
452 250 m 0
 452 276 474 298 500 298 c 0
 526 298 548 276 548 250 c 0
 548 224 526 202 500 202 c 0
 474 202 452 224 452 250 c 0
452 150 m 0
 452 176 474 198 500 198 c 0
 526 198 548 176 548 150 c 0
 548 124 526 102 500 102 c 0
 474 102 452 124 452 150 c 0
EndSplineSet
EndChar

StartChar: registered
Encoding: 174 174 107
Width: 900
Flags: HMW
LayerCount: 2
Fore
SplineSet
252 650 m 0
 252 676 274 698 300 698 c 0
 326 698 348 676 348 650 c 0
 348 624 326 602 300 602 c 0
 274 602 252 624 252 650 c 0
352 650 m 0
 352 676 374 698 400 698 c 0
 426 698 448 676 448 650 c 0
 448 624 426 602 400 602 c 0
 374 602 352 624 352 650 c 0
452 650 m 0
 452 676 474 698 500 698 c 0
 526 698 548 676 548 650 c 0
 548 624 526 602 500 602 c 0
 474 602 452 624 452 650 c 0
552 650 m 0
 552 676 574 698 600 698 c 0
 626 698 648 676 648 650 c 0
 648 624 626 602 600 602 c 0
 574 602 552 624 552 650 c 0
152 550 m 0
 152 576 174 598 200 598 c 0
 226 598 248 576 248 550 c 0
 248 524 226 502 200 502 c 0
 174 502 152 524 152 550 c 0
652 550 m 0
 652 576 674 598 700 598 c 0
 726 598 748 576 748 550 c 0
 748 524 726 502 700 502 c 0
 674 502 652 524 652 550 c 0
52 450 m 0
 52 476 74 498 100 498 c 0
 126 498 148 476 148 450 c 0
 148 424 126 402 100 402 c 0
 74 402 52 424 52 450 c 0
252 450 m 0
 252 476 274 498 300 498 c 0
 326 498 348 476 348 450 c 0
 348 424 326 402 300 402 c 0
 274 402 252 424 252 450 c 0
352 450 m 0
 352 476 374 498 400 498 c 0
 426 498 448 476 448 450 c 0
 448 424 426 402 400 402 c 0
 374 402 352 424 352 450 c 0
452 450 m 0
 452 476 474 498 500 498 c 0
 526 498 548 476 548 450 c 0
 548 424 526 402 500 402 c 0
 474 402 452 424 452 450 c 0
752 450 m 0
 752 476 774 498 800 498 c 0
 826 498 848 476 848 450 c 0
 848 424 826 402 800 402 c 0
 774 402 752 424 752 450 c 0
52 350 m 0
 52 376 74 398 100 398 c 0
 126 398 148 376 148 350 c 0
 148 324 126 302 100 302 c 0
 74 302 52 324 52 350 c 0
252 350 m 0
 252 376 274 398 300 398 c 0
 326 398 348 376 348 350 c 0
 348 324 326 302 300 302 c 0
 274 302 252 324 252 350 c 0
552 350 m 0
 552 376 574 398 600 398 c 0
 626 398 648 376 648 350 c 0
 648 324 626 302 600 302 c 0
 574 302 552 324 552 350 c 0
752 350 m 0
 752 376 774 398 800 398 c 0
 826 398 848 376 848 350 c 0
 848 324 826 302 800 302 c 0
 774 302 752 324 752 350 c 0
52 250 m 0
 52 276 74 298 100 298 c 0
 126 298 148 276 148 250 c 0
 148 224 126 202 100 202 c 0
 74 202 52 224 52 250 c 0
252 250 m 0
 252 276 274 298 300 298 c 0
 326 298 348 276 348 250 c 0
 348 224 326 202 300 202 c 0
 274 202 252 224 252 250 c 0
352 250 m 0
 352 276 374 298 400 298 c 0
 426 298 448 276 448 250 c 0
 448 224 426 202 400 202 c 0
 374 202 352 224 352 250 c 0
452 250 m 0
 452 276 474 298 500 298 c 0
 526 298 548 276 548 250 c 0
 548 224 526 202 500 202 c 0
 474 202 452 224 452 250 c 0
752 250 m 0
 752 276 774 298 800 298 c 0
 826 298 848 276 848 250 c 0
 848 224 826 202 800 202 c 0
 774 202 752 224 752 250 c 0
52 150 m 0
 52 176 74 198 100 198 c 0
 126 198 148 176 148 150 c 0
 148 124 126 102 100 102 c 0
 74 102 52 124 52 150 c 0
252 150 m 0
 252 176 274 198 300 198 c 0
 326 198 348 176 348 150 c 0
 348 124 326 102 300 102 c 0
 274 102 252 124 252 150 c 0
552 150 m 0
 552 176 574 198 600 198 c 0
 626 198 648 176 648 150 c 0
 648 124 626 102 600 102 c 0
 574 102 552 124 552 150 c 0
752 150 m 0
 752 176 774 198 800 198 c 0
 826 198 848 176 848 150 c 0
 848 124 826 102 800 102 c 0
 774 102 752 124 752 150 c 0
152 50 m 0
 152 76 174 98 200 98 c 0
 226 98 248 76 248 50 c 0
 248 24 226 2 200 2 c 0
 174 2 152 24 152 50 c 0
652 50 m 0
 652 76 674 98 700 98 c 0
 726 98 748 76 748 50 c 0
 748 24 726 2 700 2 c 0
 674 2 652 24 652 50 c 0
252 -50 m 0
 252 -24 274 -2 300 -2 c 0
 326 -2 348 -24 348 -50 c 0
 348 -76 326 -98 300 -98 c 0
 274 -98 252 -76 252 -50 c 0
352 -50 m 0
 352 -24 374 -2 400 -2 c 0
 426 -2 448 -24 448 -50 c 0
 448 -76 426 -98 400 -98 c 0
 374 -98 352 -76 352 -50 c 0
452 -50 m 0
 452 -24 474 -2 500 -2 c 0
 526 -2 548 -24 548 -50 c 0
 548 -76 526 -98 500 -98 c 0
 474 -98 452 -76 452 -50 c 0
552 -50 m 0
 552 -24 574 -2 600 -2 c 0
 626 -2 648 -24 648 -50 c 0
 648 -76 626 -98 600 -98 c 0
 574 -98 552 -76 552 -50 c 0
EndSplineSet
EndChar

StartChar: macron
Encoding: 175 175 108
Width: 400
Flags: HMW
LayerCount: 2
Fore
SplineSet
52 650 m 0
 52 676 74 698 100 698 c 0
 126 698 148 676 148 650 c 0
 148 624 126 602 100 602 c 0
 74 602 52 624 52 650 c 0
152 650 m 0
 152 676 174 698 200 698 c 0
 226 698 248 676 248 650 c 0
 248 624 226 602 200 602 c 0
 174 602 152 624 152 650 c 0
252 650 m 0
 252 676 274 698 300 698 c 0
 326 698 348 676 348 650 c 0
 348 624 326 602 300 602 c 0
 274 602 252 624 252 650 c 0
EndSplineSet
EndChar

StartChar: degree
Encoding: 176 176 109
Width: 500
Flags: HMW
LayerCount: 2
Fore
SplineSet
152 650 m 0
 152 676 174 698 200 698 c 0
 226 698 248 676 248 650 c 0
 248 624 226 602 200 602 c 0
 174 602 152 624 152 650 c 0
252 650 m 0
 252 676 274 698 300 698 c 0
 326 698 348 676 348 650 c 0
 348 624 326 602 300 602 c 0
 274 602 252 624 252 650 c 0
52 550 m 0
 52 576 74 598 100 598 c 0
 126 598 148 576 148 550 c 0
 148 524 126 502 100 502 c 0
 74 502 52 524 52 550 c 0
352 550 m 0
 352 576 374 598 400 598 c 0
 426 598 448 576 448 550 c 0
 448 524 426 502 400 502 c 0
 374 502 352 524 352 550 c 0
52 450 m 0
 52 476 74 498 100 498 c 0
 126 498 148 476 148 450 c 0
 148 424 126 402 100 402 c 0
 74 402 52 424 52 450 c 0
352 450 m 0
 352 476 374 498 400 498 c 0
 426 498 448 476 448 450 c 0
 448 424 426 402 400 402 c 0
 374 402 352 424 352 450 c 0
152 350 m 0
 152 376 174 398 200 398 c 0
 226 398 248 376 248 350 c 0
 248 324 226 302 200 302 c 0
 174 302 152 324 152 350 c 0
252 350 m 0
 252 376 274 398 300 398 c 0
 326 398 348 376 348 350 c 0
 348 324 326 302 300 302 c 0
 274 302 252 324 252 350 c 0
EndSplineSet
EndChar

StartChar: uni00B2
Encoding: 178 178 110
Width: 400
Flags: HMW
LayerCount: 2
Fore
SplineSet
52 650 m 0
 52 676 74 698 100 698 c 0
 126 698 148 676 148 650 c 0
 148 624 126 602 100 602 c 0
 74 602 52 624 52 650 c 0
152 650 m 0
 152 676 174 698 200 698 c 0
 226 698 248 676 248 650 c 0
 248 624 226 602 200 602 c 0
 174 602 152 624 152 650 c 0
252 550 m 0
 252 576 274 598 300 598 c 0
 326 598 348 576 348 550 c 0
 348 524 326 502 300 502 c 0
 274 502 252 524 252 550 c 0
152 450 m 0
 152 476 174 498 200 498 c 0
 226 498 248 476 248 450 c 0
 248 424 226 402 200 402 c 0
 174 402 152 424 152 450 c 0
52 350 m 0
 52 376 74 398 100 398 c 0
 126 398 148 376 148 350 c 0
 148 324 126 302 100 302 c 0
 74 302 52 324 52 350 c 0
52 250 m 0
 52 276 74 298 100 298 c 0
 126 298 148 276 148 250 c 0
 148 224 126 202 100 202 c 0
 74 202 52 224 52 250 c 0
152 250 m 0
 152 276 174 298 200 298 c 0
 226 298 248 276 248 250 c 0
 248 224 226 202 200 202 c 0
 174 202 152 224 152 250 c 0
252 250 m 0
 252 276 274 298 300 298 c 0
 326 298 348 276 348 250 c 0
 348 224 326 202 300 202 c 0
 274 202 252 224 252 250 c 0
EndSplineSet
EndChar

StartChar: uni00B3
Encoding: 179 179 111
Width: 400
Flags: HMW
LayerCount: 2
Fore
SplineSet
52 650 m 0
 52 676 74 698 100 698 c 0
 126 698 148 676 148 650 c 0
 148 624 126 602 100 602 c 0
 74 602 52 624 52 650 c 0
152 650 m 0
 152 676 174 698 200 698 c 0
 226 698 248 676 248 650 c 0
 248 624 226 602 200 602 c 0
 174 602 152 624 152 650 c 0
252 550 m 0
 252 576 274 598 300 598 c 0
 326 598 348 576 348 550 c 0
 348 524 326 502 300 502 c 0
 274 502 252 524 252 550 c 0
52 450 m 0
 52 476 74 498 100 498 c 0
 126 498 148 476 148 450 c 0
 148 424 126 402 100 402 c 0
 74 402 52 424 52 450 c 0
152 450 m 0
 152 476 174 498 200 498 c 0
 226 498 248 476 248 450 c 0
 248 424 226 402 200 402 c 0
 174 402 152 424 152 450 c 0
252 350 m 0
 252 376 274 398 300 398 c 0
 326 398 348 376 348 350 c 0
 348 324 326 302 300 302 c 0
 274 302 252 324 252 350 c 0
52 250 m 0
 52 276 74 298 100 298 c 0
 126 298 148 276 148 250 c 0
 148 224 126 202 100 202 c 0
 74 202 52 224 52 250 c 0
152 250 m 0
 152 276 174 298 200 298 c 0
 226 298 248 276 248 250 c 0
 248 224 226 202 200 202 c 0
 174 202 152 224 152 250 c 0
EndSplineSet
EndChar

StartChar: acute
Encoding: 180 180 112
Width: 300
Flags: HMW
LayerCount: 2
Fore
SplineSet
152 650 m 0
 152 676 174 698 200 698 c 0
 226 698 248 676 248 650 c 0
 248 624 226 602 200 602 c 0
 174 602 152 624 152 650 c 0
52 550 m 0
 52 576 74 598 100 598 c 0
 126 598 148 576 148 550 c 0
 148 524 126 502 100 502 c 0
 74 502 52 524 52 550 c 0
EndSplineSet
EndChar

StartChar: mu
Encoding: 181 181 113
Width: 600
Flags: HMW
LayerCount: 2
Fore
SplineSet
52 450 m 0
 52 476 74 498 100 498 c 0
 126 498 148 476 148 450 c 0
 148 424 126 402 100 402 c 0
 74 402 52 424 52 450 c 0
352 450 m 0
 352 476 374 498 400 498 c 0
 426 498 448 476 448 450 c 0
 448 424 426 402 400 402 c 0
 374 402 352 424 352 450 c 0
52 350 m 0
 52 376 74 398 100 398 c 0
 126 398 148 376 148 350 c 0
 148 324 126 302 100 302 c 0
 74 302 52 324 52 350 c 0
352 350 m 0
 352 376 374 398 400 398 c 0
 426 398 448 376 448 350 c 0
 448 324 426 302 400 302 c 0
 374 302 352 324 352 350 c 0
52 250 m 0
 52 276 74 298 100 298 c 0
 126 298 148 276 148 250 c 0
 148 224 126 202 100 202 c 0
 74 202 52 224 52 250 c 0
352 250 m 0
 352 276 374 298 400 298 c 0
 426 298 448 276 448 250 c 0
 448 224 426 202 400 202 c 0
 374 202 352 224 352 250 c 0
52 150 m 0
 52 176 74 198 100 198 c 0
 126 198 148 176 148 150 c 0
 148 124 126 102 100 102 c 0
 74 102 52 124 52 150 c 0
352 150 m 0
 352 176 374 198 400 198 c 0
 426 198 448 176 448 150 c 0
 448 124 426 102 400 102 c 0
 374 102 352 124 352 150 c 0
52 50 m 0
 52 76 74 98 100 98 c 0
 126 98 148 76 148 50 c 0
 148 24 126 2 100 2 c 0
 74 2 52 24 52 50 c 0
152 50 m 0
 152 76 174 98 200 98 c 0
 226 98 248 76 248 50 c 0
 248 24 226 2 200 2 c 0
 174 2 152 24 152 50 c 0
252 50 m 0
 252 76 274 98 300 98 c 0
 326 98 348 76 348 50 c 0
 348 24 326 2 300 2 c 0
 274 2 252 24 252 50 c 0
452 50 m 0
 452 76 474 98 500 98 c 0
 526 98 548 76 548 50 c 0
 548 24 526 2 500 2 c 0
 474 2 452 24 452 50 c 0
52 -50 m 0
 52 -24 74 -2 100 -2 c 0
 126 -2 148 -24 148 -50 c 0
 148 -76 126 -98 100 -98 c 0
 74 -98 52 -76 52 -50 c 0
52 -150 m 0
 52 -124 74 -102 100 -102 c 0
 126 -102 148 -124 148 -150 c 0
 148 -176 126 -198 100 -198 c 0
 74 -198 52 -176 52 -150 c 0
EndSplineSet
EndChar

StartChar: paragraph
Encoding: 182 182 114
Width: 600
Flags: HMW
LayerCount: 2
Fore
SplineSet
152 650 m 0
 152 676 174 698 200 698 c 0
 226 698 248 676 248 650 c 0
 248 624 226 602 200 602 c 0
 174 602 152 624 152 650 c 0
252 650 m 0
 252 676 274 698 300 698 c 0
 326 698 348 676 348 650 c 0
 348 624 326 602 300 602 c 0
 274 602 252 624 252 650 c 0
352 650 m 0
 352 676 374 698 400 698 c 0
 426 698 448 676 448 650 c 0
 448 624 426 602 400 602 c 0
 374 602 352 624 352 650 c 0
452 650 m 0
 452 676 474 698 500 698 c 0
 526 698 548 676 548 650 c 0
 548 624 526 602 500 602 c 0
 474 602 452 624 452 650 c 0
52 550 m 0
 52 576 74 598 100 598 c 0
 126 598 148 576 148 550 c 0
 148 524 126 502 100 502 c 0
 74 502 52 524 52 550 c 0
152 550 m 0
 152 576 174 598 200 598 c 0
 226 598 248 576 248 550 c 0
 248 524 226 502 200 502 c 0
 174 502 152 524 152 550 c 0
252 550 m 0
 252 576 274 598 300 598 c 0
 326 598 348 576 348 550 c 0
 348 524 326 502 300 502 c 0
 274 502 252 524 252 550 c 0
452 550 m 0
 452 576 474 598 500 598 c 0
 526 598 548 576 548 550 c 0
 548 524 526 502 500 502 c 0
 474 502 452 524 452 550 c 0
52 450 m 0
 52 476 74 498 100 498 c 0
 126 498 148 476 148 450 c 0
 148 424 126 402 100 402 c 0
 74 402 52 424 52 450 c 0
152 450 m 0
 152 476 174 498 200 498 c 0
 226 498 248 476 248 450 c 0
 248 424 226 402 200 402 c 0
 174 402 152 424 152 450 c 0
252 450 m 0
 252 476 274 498 300 498 c 0
 326 498 348 476 348 450 c 0
 348 424 326 402 300 402 c 0
 274 402 252 424 252 450 c 0
452 450 m 0
 452 476 474 498 500 498 c 0
 526 498 548 476 548 450 c 0
 548 424 526 402 500 402 c 0
 474 402 452 424 452 450 c 0
152 350 m 0
 152 376 174 398 200 398 c 0
 226 398 248 376 248 350 c 0
 248 324 226 302 200 302 c 0
 174 302 152 324 152 350 c 0
252 350 m 0
 252 376 274 398 300 398 c 0
 326 398 348 376 348 350 c 0
 348 324 326 302 300 302 c 0
 274 302 252 324 252 350 c 0
452 350 m 0
 452 376 474 398 500 398 c 0
 526 398 548 376 548 350 c 0
 548 324 526 302 500 302 c 0
 474 302 452 324 452 350 c 0
252 250 m 0
 252 276 274 298 300 298 c 0
 326 298 348 276 348 250 c 0
 348 224 326 202 300 202 c 0
 274 202 252 224 252 250 c 0
452 250 m 0
 452 276 474 298 500 298 c 0
 526 298 548 276 548 250 c 0
 548 224 526 202 500 202 c 0
 474 202 452 224 452 250 c 0
252 150 m 0
 252 176 274 198 300 198 c 0
 326 198 348 176 348 150 c 0
 348 124 326 102 300 102 c 0
 274 102 252 124 252 150 c 0
452 150 m 0
 452 176 474 198 500 198 c 0
 526 198 548 176 548 150 c 0
 548 124 526 102 500 102 c 0
 474 102 452 124 452 150 c 0
252 50 m 0
 252 76 274 98 300 98 c 0
 326 98 348 76 348 50 c 0
 348 24 326 2 300 2 c 0
 274 2 252 24 252 50 c 0
452 50 m 0
 452 76 474 98 500 98 c 0
 526 98 548 76 548 50 c 0
 548 24 526 2 500 2 c 0
 474 2 452 24 452 50 c 0
252 -50 m 0
 252 -24 274 -2 300 -2 c 0
 326 -2 348 -24 348 -50 c 0
 348 -76 326 -98 300 -98 c 0
 274 -98 252 -76 252 -50 c 0
452 -50 m 0
 452 -24 474 -2 500 -2 c 0
 526 -2 548 -24 548 -50 c 0
 548 -76 526 -98 500 -98 c 0
 474 -98 452 -76 452 -50 c 0
252 -150 m 0
 252 -124 274 -102 300 -102 c 0
 326 -102 348 -124 348 -150 c 0
 348 -176 326 -198 300 -198 c 0
 274 -198 252 -176 252 -150 c 0
452 -150 m 0
 452 -124 474 -102 500 -102 c 0
 526 -102 548 -124 548 -150 c 0
 548 -176 526 -198 500 -198 c 0
 474 -198 452 -176 452 -150 c 0
EndSplineSet
EndChar

StartChar: periodcentered
Encoding: 183 183 115
Width: 200
VWidth: 0
Flags: HMW
LayerCount: 2
Fore
SplineSet
52 350 m 0
 52 376 74 398 100 398 c 0
 126 398 148 376 148 350 c 0
 148 324 126 302 100 302 c 0
 74 302 52 324 52 350 c 0
EndSplineSet
EndChar

StartChar: cedilla
Encoding: 184 184 116
Width: 300
Flags: HMW
LayerCount: 2
Fore
SplineSet
152 -50 m 0
 152 -24 174 -2 200 -2 c 0
 226 -2 248 -24 248 -50 c 0
 248 -76 226 -98 200 -98 c 0
 174 -98 152 -76 152 -50 c 0
52 -150 m 0
 52 -124 74 -102 100 -102 c 0
 126 -102 148 -124 148 -150 c 0
 148 -176 126 -198 100 -198 c 0
 74 -198 52 -176 52 -150 c 0
152 -150 m 0
 152 -124 174 -102 200 -102 c 0
 226 -102 248 -124 248 -150 c 0
 248 -176 226 -198 200 -198 c 0
 174 -198 152 -176 152 -150 c 0
EndSplineSet
EndChar

StartChar: uni00B9
Encoding: 185 185 117
Width: 400
Flags: HMW
LayerCount: 2
Fore
SplineSet
152 650 m 0
 152 676 174 698 200 698 c 0
 226 698 248 676 248 650 c 0
 248 624 226 602 200 602 c 0
 174 602 152 624 152 650 c 0
52 550 m 0
 52 576 74 598 100 598 c 0
 126 598 148 576 148 550 c 0
 148 524 126 502 100 502 c 0
 74 502 52 524 52 550 c 0
152 550 m 0
 152 576 174 598 200 598 c 0
 226 598 248 576 248 550 c 0
 248 524 226 502 200 502 c 0
 174 502 152 524 152 550 c 0
152 450 m 0
 152 476 174 498 200 498 c 0
 226 498 248 476 248 450 c 0
 248 424 226 402 200 402 c 0
 174 402 152 424 152 450 c 0
152 350 m 0
 152 376 174 398 200 398 c 0
 226 398 248 376 248 350 c 0
 248 324 226 302 200 302 c 0
 174 302 152 324 152 350 c 0
52 250 m 0
 52 276 74 298 100 298 c 0
 126 298 148 276 148 250 c 0
 148 224 126 202 100 202 c 0
 74 202 52 224 52 250 c 0
152 250 m 0
 152 276 174 298 200 298 c 0
 226 298 248 276 248 250 c 0
 248 224 226 202 200 202 c 0
 174 202 152 224 152 250 c 0
252 250 m 0
 252 276 274 298 300 298 c 0
 326 298 348 276 348 250 c 0
 348 224 326 202 300 202 c 0
 274 202 252 224 252 250 c 0
EndSplineSet
EndChar

StartChar: ordmasculine
Encoding: 186 186 118
Width: 500
Flags: HMW
LayerCount: 2
Fore
SplineSet
152 650 m 0
 152 676 174 698 200 698 c 0
 226 698 248 676 248 650 c 0
 248 624 226 602 200 602 c 0
 174 602 152 624 152 650 c 0
252 650 m 0
 252 676 274 698 300 698 c 0
 326 698 348 676 348 650 c 0
 348 624 326 602 300 602 c 0
 274 602 252 624 252 650 c 0
52 550 m 0
 52 576 74 598 100 598 c 0
 126 598 148 576 148 550 c 0
 148 524 126 502 100 502 c 0
 74 502 52 524 52 550 c 0
352 550 m 0
 352 576 374 598 400 598 c 0
 426 598 448 576 448 550 c 0
 448 524 426 502 400 502 c 0
 374 502 352 524 352 550 c 0
52 450 m 0
 52 476 74 498 100 498 c 0
 126 498 148 476 148 450 c 0
 148 424 126 402 100 402 c 0
 74 402 52 424 52 450 c 0
352 450 m 0
 352 476 374 498 400 498 c 0
 426 498 448 476 448 450 c 0
 448 424 426 402 400 402 c 0
 374 402 352 424 352 450 c 0
152 350 m 0
 152 376 174 398 200 398 c 0
 226 398 248 376 248 350 c 0
 248 324 226 302 200 302 c 0
 174 302 152 324 152 350 c 0
252 350 m 0
 252 376 274 398 300 398 c 0
 326 398 348 376 348 350 c 0
 348 324 326 302 300 302 c 0
 274 302 252 324 252 350 c 0
52 150 m 0
 52 176 74 198 100 198 c 0
 126 198 148 176 148 150 c 0
 148 124 126 102 100 102 c 0
 74 102 52 124 52 150 c 0
152 150 m 0
 152 176 174 198 200 198 c 0
 226 198 248 176 248 150 c 0
 248 124 226 102 200 102 c 0
 174 102 152 124 152 150 c 0
252 150 m 0
 252 176 274 198 300 198 c 0
 326 198 348 176 348 150 c 0
 348 124 326 102 300 102 c 0
 274 102 252 124 252 150 c 0
352 150 m 0
 352 176 374 198 400 198 c 0
 426 198 448 176 448 150 c 0
 448 124 426 102 400 102 c 0
 374 102 352 124 352 150 c 0
EndSplineSet
EndChar

StartChar: questiondown
Encoding: 191 191 123
Width: 600
Flags: HMW
LayerCount: 2
Fore
SplineSet
252 450 m 0
 252 476 274 498 300 498 c 0
 326 498 348 476 348 450 c 0
 348 424 326 402 300 402 c 0
 274 402 252 424 252 450 c 0
252 250 m 0
 252 276 274 298 300 298 c 0
 326 298 348 276 348 250 c 0
 348 224 326 202 300 202 c 0
 274 202 252 224 252 250 c 0
152 150 m 0
 152 176 174 198 200 198 c 0
 226 198 248 176 248 150 c 0
 248 124 226 102 200 102 c 0
 174 102 152 124 152 150 c 0
252 150 m 0
 252 176 274 198 300 198 c 0
 326 198 348 176 348 150 c 0
 348 124 326 102 300 102 c 0
 274 102 252 124 252 150 c 0
52 50 m 0
 52 76 74 98 100 98 c 0
 126 98 148 76 148 50 c 0
 148 24 126 2 100 2 c 0
 74 2 52 24 52 50 c 0
52 -50 m 0
 52 -24 74 -2 100 -2 c 0
 126 -2 148 -24 148 -50 c 0
 148 -76 126 -98 100 -98 c 0
 74 -98 52 -76 52 -50 c 0
452 -50 m 0
 452 -24 474 -2 500 -2 c 0
 526 -2 548 -24 548 -50 c 0
 548 -76 526 -98 500 -98 c 0
 474 -98 452 -76 452 -50 c 0
152 -150 m 0
 152 -124 174 -102 200 -102 c 0
 226 -102 248 -124 248 -150 c 0
 248 -176 226 -198 200 -198 c 0
 174 -198 152 -176 152 -150 c 0
252 -150 m 0
 252 -124 274 -102 300 -102 c 0
 326 -102 348 -124 348 -150 c 0
 348 -176 326 -198 300 -198 c 0
 274 -198 252 -176 252 -150 c 0
352 -150 m 0
 352 -124 374 -102 400 -102 c 0
 426 -102 448 -124 448 -150 c 0
 448 -176 426 -198 400 -198 c 0
 374 -198 352 -176 352 -150 c 0
EndSplineSet
EndChar

StartChar: AE
Encoding: 198 198 124
Width: 800
Flags: HMW
AnchorPoint: "marks_below" 400 0 basechar 0
AnchorPoint: "marks_above" 400 800 basechar 0
LayerCount: 2
Fore
SplineSet
652 50 m 0
 652 76 674 98 700 98 c 0
 726 98 748 76 748 50 c 0
 748 24 726 2 700 2 c 0
 674 2 652 24 652 50 c 0
552 50 m 0
 552 76 574 98 600 98 c 0
 626 98 648 76 648 50 c 0
 648 24 626 2 600 2 c 0
 574 2 552 24 552 50 c 0
452 50 m 0
 452 76 474 98 500 98 c 0
 526 98 548 76 548 50 c 0
 548 24 526 2 500 2 c 0
 474 2 452 24 452 50 c 0
352 50 m 0
 352 76 374 98 400 98 c 0
 426 98 448 76 448 50 c 0
 448 24 426 2 400 2 c 0
 374 2 352 24 352 50 c 0
52 50 m 0
 52 76 74 98 100 98 c 0
 126 98 148 76 148 50 c 0
 148 24 126 2 100 2 c 0
 74 2 52 24 52 50 c 0
352 150 m 0
 352 176 374 198 400 198 c 0
 426 198 448 176 448 150 c 0
 448 124 426 102 400 102 c 0
 374 102 352 124 352 150 c 0
52 150 m 0
 52 176 74 198 100 198 c 0
 126 198 148 176 148 150 c 0
 148 124 126 102 100 102 c 0
 74 102 52 124 52 150 c 0
352 250 m 0
 352 276 374 298 400 298 c 0
 426 298 448 276 448 250 c 0
 448 224 426 202 400 202 c 0
 374 202 352 224 352 250 c 0
252 250 m 0
 252 276 274 298 300 298 c 0
 326 298 348 276 348 250 c 0
 348 224 326 202 300 202 c 0
 274 202 252 224 252 250 c 0
152 250 m 0
 152 276 174 298 200 298 c 0
 226 298 248 276 248 250 c 0
 248 224 226 202 200 202 c 0
 174 202 152 224 152 250 c 0
52 250 m 0
 52 276 74 298 100 298 c 0
 126 298 148 276 148 250 c 0
 148 224 126 202 100 202 c 0
 74 202 52 224 52 250 c 0
552 350 m 0
 552 376 574 398 600 398 c 0
 626 398 648 376 648 350 c 0
 648 324 626 302 600 302 c 0
 574 302 552 324 552 350 c 0
452 350 m 0
 452 376 474 398 500 398 c 0
 526 398 548 376 548 350 c 0
 548 324 526 302 500 302 c 0
 474 302 452 324 452 350 c 0
352 350 m 0
 352 376 374 398 400 398 c 0
 426 398 448 376 448 350 c 0
 448 324 426 302 400 302 c 0
 374 302 352 324 352 350 c 0
52 350 m 0
 52 376 74 398 100 398 c 0
 126 398 148 376 148 350 c 0
 148 324 126 302 100 302 c 0
 74 302 52 324 52 350 c 0
352 450 m 0
 352 476 374 498 400 498 c 0
 426 498 448 476 448 450 c 0
 448 424 426 402 400 402 c 0
 374 402 352 424 352 450 c 0
52 450 m 0
 52 476 74 498 100 498 c 0
 126 498 148 476 148 450 c 0
 148 424 126 402 100 402 c 0
 74 402 52 424 52 450 c 0
352 550 m 0
 352 576 374 598 400 598 c 0
 426 598 448 576 448 550 c 0
 448 524 426 502 400 502 c 0
 374 502 352 524 352 550 c 0
152 550 m 0
 152 576 174 598 200 598 c 0
 226 598 248 576 248 550 c 0
 248 524 226 502 200 502 c 0
 174 502 152 524 152 550 c 0
652 650 m 0
 652 676 674 698 700 698 c 0
 726 698 748 676 748 650 c 0
 748 624 726 602 700 602 c 0
 674 602 652 624 652 650 c 0
552 650 m 0
 552 676 574 698 600 698 c 0
 626 698 648 676 648 650 c 0
 648 624 626 602 600 602 c 0
 574 602 552 624 552 650 c 0
452 650 m 0
 452 676 474 698 500 698 c 0
 526 698 548 676 548 650 c 0
 548 624 526 602 500 602 c 0
 474 602 452 624 452 650 c 0
352 650 m 0
 352 676 374 698 400 698 c 0
 426 698 448 676 448 650 c 0
 448 624 426 602 400 602 c 0
 374 602 352 624 352 650 c 0
252 650 m 0
 252 676 274 698 300 698 c 0
 326 698 348 676 348 650 c 0
 348 624 326 602 300 602 c 0
 274 602 252 624 252 650 c 0
EndSplineSet
EndChar

StartChar: Eth
Encoding: 208 208 134
Width: 700
Flags: HMW
AnchorPoint: "marks_below" 400 0 basechar 0
AnchorPoint: "marks_above" 400 800 basechar 0
LayerCount: 2
Fore
SplineSet
352 50 m 0
 352 76 374 98 400 98 c 0
 426 98 448 76 448 50 c 0
 448 24 426 2 400 2 c 0
 374 2 352 24 352 50 c 0
252 50 m 0
 252 76 274 98 300 98 c 0
 326 98 348 76 348 50 c 0
 348 24 326 2 300 2 c 0
 274 2 252 24 252 50 c 0
152 50 m 0
 152 76 174 98 200 98 c 0
 226 98 248 76 248 50 c 0
 248 24 226 2 200 2 c 0
 174 2 152 24 152 50 c 0
452 150 m 0
 452 176 474 198 500 198 c 0
 526 198 548 176 548 150 c 0
 548 124 526 102 500 102 c 0
 474 102 452 124 452 150 c 0
152 150 m 0
 152 176 174 198 200 198 c 0
 226 198 248 176 248 150 c 0
 248 124 226 102 200 102 c 0
 174 102 152 124 152 150 c 0
552 250 m 0
 552 276 574 298 600 298 c 0
 626 298 648 276 648 250 c 0
 648 224 626 202 600 202 c 0
 574 202 552 224 552 250 c 0
152 250 m 0
 152 276 174 298 200 298 c 0
 226 298 248 276 248 250 c 0
 248 224 226 202 200 202 c 0
 174 202 152 224 152 250 c 0
552 350 m 0
 552 376 574 398 600 398 c 0
 626 398 648 376 648 350 c 0
 648 324 626 302 600 302 c 0
 574 302 552 324 552 350 c 0
252 350 m 0
 252 376 274 398 300 398 c 0
 326 398 348 376 348 350 c 0
 348 324 326 302 300 302 c 0
 274 302 252 324 252 350 c 0
152 350 m 0
 152 376 174 398 200 398 c 0
 226 398 248 376 248 350 c 0
 248 324 226 302 200 302 c 0
 174 302 152 324 152 350 c 0
52 350 m 0
 52 376 74 398 100 398 c 0
 126 398 148 376 148 350 c 0
 148 324 126 302 100 302 c 0
 74 302 52 324 52 350 c 0
552 450 m 0
 552 476 574 498 600 498 c 0
 626 498 648 476 648 450 c 0
 648 424 626 402 600 402 c 0
 574 402 552 424 552 450 c 0
152 450 m 0
 152 476 174 498 200 498 c 0
 226 498 248 476 248 450 c 0
 248 424 226 402 200 402 c 0
 174 402 152 424 152 450 c 0
452 550 m 0
 452 576 474 598 500 598 c 0
 526 598 548 576 548 550 c 0
 548 524 526 502 500 502 c 0
 474 502 452 524 452 550 c 0
152 550 m 0
 152 576 174 598 200 598 c 0
 226 598 248 576 248 550 c 0
 248 524 226 502 200 502 c 0
 174 502 152 524 152 550 c 0
352 650 m 0
 352 676 374 698 400 698 c 0
 426 698 448 676 448 650 c 0
 448 624 426 602 400 602 c 0
 374 602 352 624 352 650 c 0
252 650 m 0
 252 676 274 698 300 698 c 0
 326 698 348 676 348 650 c 0
 348 624 326 602 300 602 c 0
 274 602 252 624 252 650 c 0
152 650 m 0
 152 676 174 698 200 698 c 0
 226 698 248 676 248 650 c 0
 248 624 226 602 200 602 c 0
 174 602 152 624 152 650 c 0
EndSplineSet
EndChar

